<?xml version="1.0" encoding="UTF-8"?>
<svg id="Layer_2" data-name="Layer 2" xmlns="http://www.w3.org/2000/svg" viewBox="0 0 442.84 136.01">
  <defs>
    <style>
      .cls-1 {
        fill: #fff;
      }
    </style>
  </defs>
  <g id="Livello_1" data-name="Livello 1">
    <g>
      <path class="cls-1" d="M23.14,11.01c0,5.86-3.83,10.3-10.55,10.3h-6.25v10.44H.19V.64h12.45c6.73,0,10.51,4.56,10.51,10.37ZM11.45,5.54h-5.13v10.94h5.13c3.4,0,5.43-2.01,5.43-5.47s-2.03-5.47-5.43-5.47Z"/>
      <path class="cls-1" d="M51.32,10.49c0,4.56-2.83,7.64-5.65,8.73l6.25,12.54h-6.88l-5.45-11.6h-5.52v11.6h-6.09V.64h12.42c6.91,0,10.92,3.9,10.92,9.85ZM39.42,15.52c3.42,0,5.54-1.64,5.54-4.92s-2.19-5.13-5.45-5.13h-5.45v10.05h5.36Z"/>
      <path class="cls-1" d="M77.21,31.76h-20.04V.64h20.04v5.04h-13.93v7.98h13.11v4.72h-13.11v8.34h13.93v5.04Z"/>
      <path class="cls-1" d="M87.38,23.28c.41,2.42,2.74,4.19,6.41,4.19s5.86-1.75,5.86-4.31c0-2.17-1.55-3.28-4.79-4.04l-4.81-1.12c-4.83-1.09-7.89-3.88-7.89-8.59,0-5.7,4.76-9.42,11.63-9.42s11.22,3.99,11.51,8.78h-5.84c-.39-2.23-2.42-3.94-5.72-3.94s-5.43,1.75-5.43,4.17c0,1.87,1.53,3.1,4.26,3.69l4.83,1.12c5.04,1.14,8.37,3.56,8.37,8.78,0,5.79-4.45,9.76-12.33,9.76s-11.74-4.15-12.01-9.07h5.95Z"/>
      <path class="cls-1" d="M131.38,31.76h-20.04V.64h20.04v5.04h-13.93v7.98h13.11v4.72h-13.11v8.34h13.93v5.04Z"/>
      <path class="cls-1" d="M160.47,11.01c0,5.86-3.83,10.3-10.55,10.3h-6.25v10.44h-6.15V.64h12.45c6.73,0,10.51,4.56,10.51,10.37ZM148.77,5.54h-5.13v10.94h5.13c3.4,0,5.43-2.01,5.43-5.47s-2.03-5.47-5.43-5.47Z"/>
      <path class="cls-1" d="M165.3,31.76V.64h6.15v31.12h-6.15Z"/>
      <path class="cls-1" d="M194.9,11.1c.08.05.12.12.1.19l-4.6,16.27c-.21.87-.32,1.38-.32,1.55,0,.23.05.42.14.59.08.18.27.27.57.27.52,0,1.2-.45,2.05-1.34.5-.53,1.12-1.29,1.85-2.28l.59.5-.23.32c-1.14,1.59-2.08,2.74-2.83,3.44-1.17,1.09-2.31,1.64-3.42,1.64-.65,0-1.2-.27-1.63-.82s-.65-1.19-.65-1.94c0-.44.03-.82.09-1.15.06-.33.17-.81.34-1.45l3.24-11.71c.05-.18.08-.35.11-.5.03-.15.05-.3.05-.46,0-.55-.2-.88-.6-1.01-.4-.13-1.2-.19-2.38-.19v-.75c1.25-.15,2.15-.27,2.7-.35.55-.08,1.1-.17,1.66-.26.72-.12,1.41-.26,2.06-.41.65-.15,1.01-.2,1.1-.15ZM192.75,5.39c-.44-.49-.66-1.07-.66-1.75s.22-1.29.66-1.78c.44-.49.97-.73,1.6-.73s1.16.24,1.61.73c.45.49.67,1.08.67,1.78s-.22,1.29-.67,1.77c-.45.48-.98.72-1.61.72s-1.15-.24-1.6-.73Z"/>
      <path class="cls-1" d="M197.43,31.76l3.9-14.08c.33-1.19.53-1.91.58-2.17s.08-.52.08-.81c0-.44-.12-.79-.38-1.04-.25-.25-.74-.38-1.47-.38-.18,0-.36.01-.54.03-.17.02-.37.05-.58.08v-.75c.98-.15,1.68-.27,2.09-.34.42-.08.86-.17,1.35-.27l4.05-.89c.09.06.15.13.18.21l-3.02,9.8c1.87-2.84,3.43-4.95,4.68-6.34,2.2-2.45,4.18-3.67,5.92-3.67.67,0,1.25.13,1.74.39.93.5,1.4,1.41,1.4,2.71,0,.36-.04.74-.11,1.14-.08.4-.17.82-.3,1.28l-3,10.92c-.06.23-.13.5-.21.83-.08.33-.11.56-.11.7,0,.23.05.43.16.62.11.18.28.27.51.27.38,0,.82-.23,1.31-.69.5-.46,1.3-1.46,2.43-2.97l.66.59c-1.22,1.69-2.19,2.87-2.9,3.55-1.22,1.2-2.39,1.8-3.51,1.8-.51,0-1-.17-1.47-.51s-.71-.96-.71-1.86c0-.26.02-.53.06-.82.04-.29.09-.54.15-.75l2.91-11.08c.15-.61.25-1.11.31-1.49s.08-.67.08-.83c0-.36-.09-.68-.26-.95-.17-.27-.49-.4-.93-.4-1.15,0-2.61,1.03-4.36,3.1-1.03,1.23-2.08,2.69-3.14,4.39-.79,1.32-1.42,2.61-1.87,3.86s-1.18,3.53-2.18,6.84h-3.5Z"/>
      <path class="cls-1" d="M237.81,18.19c0,5.75,2.48,8.96,6.84,8.96,3.58,0,5.9-2.26,6.16-5.45h5.95v.59c-.3,5.95-5.33,10.05-12.15,10.05-8.37,0-13.06-5.33-13.06-14.16v-3.88c0-8.82,4.74-14.27,13.06-14.27,6.84,0,11.88,4.22,12.15,10.37v.57h-5.95c-.25-3.31-2.62-5.75-6.16-5.75-4.31,0-6.84,3.33-6.84,9.1v3.85Z"/>
      <path class="cls-1" d="M259.48,31.76l10.44-31.12h7.2l10.4,31.12h-6.54l-2.44-8h-10.4l-2.44,8h-6.22ZM273.23,6.59l-3.81,12.58h7.89l-3.81-12.58h-.27Z"/>
      <path class="cls-1" d="M295.39,23.28c.41,2.42,2.74,4.19,6.41,4.19s5.86-1.75,5.86-4.31c0-2.17-1.55-3.28-4.79-4.04l-4.81-1.12c-4.83-1.09-7.89-3.88-7.89-8.59,0-5.7,4.76-9.42,11.63-9.42s11.22,3.99,11.51,8.78h-5.84c-.39-2.23-2.42-3.94-5.72-3.94s-5.43,1.75-5.43,4.17c0,1.87,1.53,3.1,4.26,3.69l4.83,1.12c5.04,1.14,8.37,3.56,8.37,8.78,0,5.79-4.45,9.76-12.33,9.76s-11.74-4.15-12.01-9.07h5.95Z"/>
      <path class="cls-1" d="M325.32,31.76V5.79h-8.82V.64h23.85v5.15h-8.84v25.97h-6.18Z"/>
      <path class="cls-1" d="M364.51,31.76h-20.04V.64h20.04v5.04h-13.93v7.98h13.11v4.72h-13.11v8.34h13.93v5.04Z"/>
      <path class="cls-1" d="M389.99,31.76h-19.35V.64h6.16v25.87h13.2v5.24Z"/>
      <path class="cls-1" d="M413.79,31.76h-19.35V.64h6.16v25.87h13.2v5.24Z"/>
      <path class="cls-1" d="M429.52,32.35c-8.32,0-13.34-5.36-13.34-14.13v-3.99c0-8.84,5.01-14.18,13.34-14.18s13.31,5.38,13.31,14.18v3.99c0,8.78-4.99,14.13-13.31,14.13ZM429.52,5.17c-4.13,0-7.07,3.01-7.07,9v4.06c0,6,2.94,8.98,7.07,8.98s7.07-2.99,7.07-8.98v-4.06c0-6-2.96-9-7.07-9Z"/>
    </g>
    <g>
      <path class="cls-1" d="M27.76,121.6v-.19c0-3.05,2.2-6.15,6.84-6.15,4.13,0,6.83,2.42,6.83,5.6,0,2.75-1.77,4.45-3.52,6.36l-4.54,5.01v.19h8.39v3.22h-13.81v-2.46l7.31-7.88c1.07-1.14,2.24-2.42,2.24-4.07s-1.27-2.8-2.99-2.8c-1.89,0-3,1.39-3,2.96v.22h-3.75Z"/>
      <path class="cls-1" d="M49.04,131.21c.22.83,1.29,1.68,2.9,1.68,3.09,0,4.37-3.11,4.25-6.96h-.22c-.56,1.46-2.14,2.78-4.73,2.78-3.41,0-6.45-2.3-6.45-6.59s3.18-6.88,7.4-6.88,7.73,2.39,7.73,10.08c0,7-2.71,10.68-8.04,10.68-4.26,0-6.4-2.46-6.61-4.79h3.76ZM52.09,118.32c-1.95,0-3.47,1.41-3.47,3.75s1.57,3.68,3.5,3.68,3.5-1.26,3.5-3.65-1.49-3.78-3.53-3.78Z"/>
      <path class="cls-1" d="M65.98,130.94c1.46,0,2.59,1.01,2.59,2.52s-1.14,2.46-2.59,2.46-2.55-.98-2.55-2.46,1.13-2.52,2.55-2.52Z"/>
      <path class="cls-1" d="M76.97,135.63v-16.19h-.19l-4.54,3.22v-3.63l4.73-3.4h3.93v20h-3.93Z"/>
      <path class="cls-1" d="M90.94,135.63v-16.19h-.19l-4.54,3.22v-3.63l4.73-3.4h3.93v20h-3.93Z"/>
      <path class="cls-1" d="M102.73,130.94c1.46,0,2.59,1.01,2.59,2.52s-1.14,2.46-2.59,2.46-2.55-.98-2.55-2.46,1.13-2.52,2.55-2.52Z"/>
      <path class="cls-1" d="M108.9,121.6v-.19c0-3.05,2.2-6.15,6.84-6.15,4.13,0,6.83,2.42,6.83,5.6,0,2.75-1.77,4.45-3.52,6.36l-4.54,5.01v.19h8.39v3.22h-13.81v-2.46l7.31-7.88c1.07-1.14,2.24-2.42,2.24-4.07s-1.27-2.8-2.99-2.8c-1.89,0-3,1.39-3,2.96v.22h-3.75Z"/>
      <path class="cls-1" d="M126.02,125.19c0-5.99,2.87-9.93,7.65-9.93s7.56,3.88,7.56,9.93v.89c0,5.99-2.89,9.93-7.63,9.93s-7.57-3.9-7.57-9.93v-.89ZM129.97,126.05c0,4.22,1.39,6.74,3.65,6.74s3.65-2.52,3.65-6.74v-.85c0-4.2-1.38-6.71-3.65-6.71s-3.65,2.5-3.65,6.71v.85Z"/>
      <path class="cls-1" d="M144.64,121.6v-.19c0-3.05,2.2-6.15,6.84-6.15,4.13,0,6.83,2.42,6.83,5.6,0,2.75-1.77,4.45-3.52,6.36l-4.54,5.01v.19h8.39v3.22h-13.81v-2.46l7.31-7.88c1.07-1.14,2.24-2.42,2.24-4.07s-1.27-2.8-2.99-2.8c-1.89,0-3,1.39-3,2.96v.22h-3.75Z"/>
      <path class="cls-1" d="M165.63,130.5c.29,1.58,1.86,2.39,3.52,2.39,1.89,0,3.63-1.41,3.63-3.84,0-2.2-1.64-3.6-3.63-3.6-1.77,0-2.86,1.05-3.28,1.85h-3.46l.83-11.66h12.25v3.19h-9.08l-.44,5.3h.21c.4-.64,1.76-1.7,4.01-1.7,3.44,0,6.42,2.33,6.42,6.49s-3.05,7.09-7.53,7.09c-4.17,0-6.94-2.37-7.08-5.51h3.63Z"/>
      <path class="cls-1" d="M185.79,129.14v-3.43h9.23v3.43h-9.23Z"/>
      <path class="cls-1" d="M194.19,129.14v-3.43h9.23v3.43h-9.23Z"/>
      <path class="cls-1" d="M202.59,129.14v-3.43h9.23v3.43h-9.23Z"/>
      <path class="cls-1" d="M211,129.14v-3.43h9.23v3.43h-9.23Z"/>
      <path class="cls-1" d="M219.4,129.14v-3.43h9.23v3.43h-9.23Z"/>
      <path class="cls-1" d="M227.81,129.14v-3.43h9.23v3.43h-9.23Z"/>
      <path class="cls-1" d="M236.21,129.14v-3.43h9.23v3.43h-9.23Z"/>
      <path class="cls-1" d="M244.62,129.14v-3.43h9.23v3.43h-9.23Z"/>
      <path class="cls-1" d="M253.02,129.14v-3.43h9.23v3.43h-9.23Z"/>
      <path class="cls-1" d="M272.98,135.63v-16.19h-.19l-4.54,3.22v-3.63l4.73-3.4h3.93v20h-3.93Z"/>
      <path class="cls-1" d="M286.95,135.63v-16.19h-.19l-4.54,3.22v-3.63l4.73-3.4h3.93v20h-3.93Z"/>
      <path class="cls-1" d="M298.73,130.94c1.46,0,2.59,1.01,2.59,2.52s-1.14,2.46-2.59,2.46-2.55-.98-2.55-2.46,1.13-2.52,2.55-2.52Z"/>
      <path class="cls-1" d="M304.82,125.19c0-5.99,2.87-9.93,7.65-9.93s7.56,3.88,7.56,9.93v.89c0,5.99-2.89,9.93-7.63,9.93s-7.57-3.9-7.57-9.93v-.89ZM308.77,126.05c0,4.22,1.39,6.74,3.65,6.74s3.65-2.52,3.65-6.74v-.85c0-4.2-1.38-6.71-3.65-6.71s-3.65,2.5-3.65,6.71v.85Z"/>
      <path class="cls-1" d="M328.26,135.63v-16.19h-.19l-4.54,3.22v-3.63l4.73-3.4h3.93v20h-3.93Z"/>
      <path class="cls-1" d="M340.05,130.94c1.46,0,2.59,1.01,2.59,2.52s-1.14,2.46-2.59,2.46-2.55-.98-2.55-2.46,1.13-2.52,2.55-2.52Z"/>
      <path class="cls-1" d="M346.22,121.6v-.19c0-3.05,2.2-6.15,6.84-6.15,4.13,0,6.83,2.42,6.83,5.6,0,2.75-1.77,4.45-3.52,6.36l-4.54,5.01v.19h8.39v3.22h-13.81v-2.46l7.31-7.88c1.07-1.14,2.24-2.42,2.24-4.07s-1.27-2.8-2.99-2.8c-1.89,0-3,1.39-3,2.96v.22h-3.75Z"/>
      <path class="cls-1" d="M363.34,125.19c0-5.99,2.87-9.93,7.65-9.93s7.56,3.88,7.56,9.93v.89c0,5.99-2.89,9.93-7.63,9.93s-7.57-3.9-7.57-9.93v-.89ZM367.29,126.05c0,4.22,1.39,6.74,3.65,6.74s3.65-2.52,3.65-6.74v-.85c0-4.2-1.38-6.71-3.65-6.71s-3.65,2.5-3.65,6.71v.85Z"/>
      <path class="cls-1" d="M381.96,121.6v-.19c0-3.05,2.2-6.15,6.84-6.15,4.13,0,6.83,2.42,6.83,5.6,0,2.75-1.77,4.45-3.52,6.36l-4.54,5.01v.19h8.39v3.22h-13.81v-2.46l7.31-7.88c1.07-1.14,2.24-2.42,2.24-4.07s-1.27-2.8-2.99-2.8c-1.89,0-3,1.39-3,2.96v.22h-3.75Z"/>
      <path class="cls-1" d="M410.05,120.27c-.28-.88-1.25-1.85-3-1.85-2.62,0-4.25,2.81-4.16,6.97h.23c.6-1.36,2.11-2.78,4.82-2.78,3.16,0,6.28,2.18,6.28,6.4,0,4.44-3.13,7-7.35,7-2.52,0-4.85-.89-6.3-3.27-.94-1.52-1.49-3.68-1.49-6.59,0-7.35,3.15-10.87,8.03-10.87,4.31,0,6.56,2.65,6.71,4.98h-3.76ZM406.87,132.89c2.01,0,3.53-1.26,3.53-3.71s-1.64-3.62-3.52-3.62c-2.09,0-3.54,1.49-3.54,3.6,0,2.33,1.55,3.72,3.53,3.72Z"/>
    </g>
    <g>
      <path class="cls-1" d="M11.85,56.08c-.49-2.01-2.11-3.25-4.39-3.25-3.09,0-4.95,2.3-4.95,6.17v2.54c0,3.95,1.83,6.26,5.03,6.26,2.98,0,4.5-1.7,4.5-4.02v-1.75h-4.72v-2.15h7.16v3.84c0,3.61-2.47,6.3-6.93,6.3-4.83,0-7.56-3.14-7.56-8.49v-2.54c0-5.14,2.84-8.39,7.52-8.39,3.76,0,6.37,2.23,6.85,5.48h-2.52Z"/>
      <path class="cls-1" d="M18.29,55.25h2.47v2.21h.12c.36-.94,1.39-2.43,3.94-2.43.31,0,.62.03.9.07v2.26c-.23-.05-.72-.08-1.16-.08-2.53,0-3.79,1.52-3.79,3.47v8.89h-2.49v-14.38Z"/>
      <path class="cls-1" d="M40.01,69.64h-2.45v-2.39h-.14c-.41,1.18-1.76,2.62-4.28,2.62-2.88,0-4.92-1.3-4.92-4.63v-9.98h2.47v9.31c0,2.39,1.42,3.14,3.13,3.14,2.11,0,3.71-1.54,3.71-3.39v-9.06h2.47v14.38Z"/>
      <path class="cls-1" d="M46.79,67.5h-.12v6.9h-2.47v-19.17h2.38v2.3h.12c.59-1.54,2.24-2.5,4.31-2.5,3.38,0,5.5,2.38,5.5,6.17v2.47c0,3.81-2.15,6.18-5.58,6.18-1.98,0-3.46-.83-4.13-2.35ZM54.01,63.23v-1.53c0-2.88-1.33-4.54-3.66-4.54s-3.68,1.59-3.68,4.18v2.5c0,2.31,1.53,3.9,3.75,3.9s3.6-1.64,3.6-4.51Z"/>
      <path class="cls-1" d="M62.61,67.5h-.12v6.9h-2.47v-19.17h2.38v2.3h.12c.59-1.54,2.24-2.5,4.31-2.5,3.38,0,5.5,2.38,5.5,6.17v2.47c0,3.81-2.15,6.18-5.58,6.18-1.98,0-3.46-.83-4.13-2.35ZM69.83,63.23v-1.53c0-2.88-1.33-4.54-3.66-4.54s-3.68,1.59-3.68,4.18v2.5c0,2.31,1.53,3.9,3.75,3.9s3.6-1.64,3.6-4.51Z"/>
      <path class="cls-1" d="M87.54,61.37v2.13c0,4.06-2.64,6.37-6.21,6.37s-6.22-2.27-6.22-6.37v-2.12c0-3.88,2.62-6.36,6.22-6.36s6.21,2.34,6.21,6.34ZM77.59,61.58v1.74c0,2.67,1.35,4.46,3.76,4.46s3.71-1.79,3.71-4.46v-1.74c0-2.62-1.39-4.46-3.71-4.46s-3.76,1.83-3.76,4.46Z"/>
      <path class="cls-1" d="M102.77,50.98l-2.62,7.93h-2.91l3.31-7.93h2.23ZM108.54,50.98l-2.64,7.93h-2.9l3.31-7.93h2.23Z"/>
      <path class="cls-1" d="M109.15,69.64l3.29-18.68h6.12c3.61,0,5.55,2.16,5.55,4.95,0,.29-.03.72-.08,1.11-.48,3.62-2.91,5.62-7.59,5.62h-3.54l-1.23,7h-2.53ZM114.59,53.12l-1.3,7.31h3.39c3.4,0,4.61-1.63,4.81-3.45.04-.27.07-.66.07-.9,0-1.64-.96-2.97-3.47-2.97h-3.5Z"/>
      <path class="cls-1" d="M124.53,65.85c0-.16,0-.37.03-.59.23-2.42,2.15-4.06,5.82-4.06h3.84l.14-.89c.03-.15.05-.42.05-.66,0-1.22-.74-2.58-2.98-2.58-1.72,0-2.67.78-2.98,1.71h-2.41c.4-2.16,2.39-3.76,5.58-3.76,3.42,0,5.18,1.86,5.18,4.48,0,.72-.14,1.52-.26,2.21l-1.41,7.92h-2.39l.34-1.94h-.16c-.52,1.03-1.91,2.17-4.06,2.17-2.38,0-4.33-1.48-4.33-4.02ZM129.58,67.85c1.91,0,3.62-1.29,3.94-3.05l.31-1.74h-3.54c-2.26,0-3.27,1.22-3.27,2.54s.92,2.24,2.56,2.24Z"/>
      <path class="cls-1" d="M138.76,67.45l9.16-10.02.04-.18h-7.79l.38-2h10.72l-.38,2.19-9.13,9.97-.03.18h7.78l-.37,2.05h-10.77l.4-2.19Z"/>
      <path class="cls-1" d="M151.43,67.45l9.16-10.02.04-.18h-7.79l.38-2h10.72l-.38,2.19-9.13,9.97-.03.18h7.78l-.37,2.05h-10.77l.4-2.19Z"/>
      <path class="cls-1" d="M167.19,55.25h2.5l-2.54,14.38h-2.5l2.54-14.38ZM168.98,49.18c1.04,0,1.78.71,1.78,1.7s-.77,1.7-1.8,1.7c-.98,0-1.74-.71-1.74-1.68s.77-1.71,1.76-1.71Z"/>
      <path class="cls-1" d="M180.2,66.78h-.18l-1.33,7.63h-2.5l3.36-19.15h2.47l-.42,2.31h.18c.45-1.09,1.63-2.53,4.09-2.53,2.98,0,5.07,2.02,5.07,5.36,0,.51-.01,1.13-.12,1.7l-.46,2.57c-.46,2.91-2.57,5.2-5.99,5.2-2.46,0-3.92-1.82-4.17-3.08ZM184.11,67.68c2.19,0,3.58-1.72,3.95-3.73l.36-2.02c.05-.34.07-.83.07-1.22,0-2.28-1.37-3.62-3.5-3.62s-3.58,1.67-3.96,4.03l-.33,1.96c-.05.34-.05.63-.05.68,0,2.68,1.87,3.92,3.47,3.92Z"/>
      <path class="cls-1" d="M193.01,64.4c0-.82.12-1.65.22-2.19l.37-1.98c.59-3.32,3.09-5.21,6.37-5.21,4.36,0,5.73,3.39,5.3,6.07,0,.03-.31,1.82-.36,1.96h-9.39c-.07.25-.14.75-.14,1.23,0,1.76.89,3.49,3.38,3.49,1.75,0,2.87-.85,3.16-1.79h2.45c-.33,1.9-2.46,3.9-5.77,3.9s-5.59-1.87-5.59-5.47ZM202.9,60.96c.4-2.13-.67-3.91-3.02-3.91-1.7,0-3.34.98-3.8,3.24l-.19.92h6.97s.04-.23.04-.25Z"/>
      <path class="cls-1" d="M209.61,55.25h2.37l-.44,2.41h.18c.52-1.34,1.94-2.64,4.07-2.64.42,0,.94.08,1.19.12l-.49,2.31c-.3-.11-.86-.16-1.23-.16-2.54,0-3.84,1.93-4.27,4.24l-1.42,8.11h-2.5l2.54-14.38Z"/>
      <path class="cls-1" d="M225.58,55.25h2.5l-2.54,14.38h-2.5l2.54-14.38ZM227.37,49.18c1.04,0,1.78.71,1.78,1.7s-.77,1.7-1.8,1.7c-.98,0-1.74-.71-1.74-1.68s.77-1.71,1.76-1.71Z"/>
      <path class="cls-1" d="M233.45,49.99h2.5l-3.49,19.65h-2.5l3.49-19.65Z"/>
      <path class="cls-1" d="M245.53,66.78h-.18l-1.33,7.63h-2.5l3.36-19.15h2.47l-.42,2.31h.18c.45-1.09,1.63-2.53,4.09-2.53,2.98,0,5.07,2.02,5.07,5.36,0,.51-.01,1.13-.12,1.7l-.46,2.57c-.46,2.91-2.57,5.2-5.99,5.2-2.46,0-3.92-1.82-4.17-3.08ZM249.44,67.68c2.19,0,3.58-1.72,3.95-3.73l.36-2.02c.05-.34.07-.83.07-1.22,0-2.28-1.37-3.62-3.5-3.62s-3.58,1.67-3.96,4.03l-.33,1.96c-.05.34-.05.63-.05.68,0,2.68,1.87,3.92,3.47,3.92Z"/>
      <path class="cls-1" d="M260.59,55.25h2.37l-.44,2.41h.18c.52-1.34,1.94-2.64,4.07-2.64.42,0,.94.08,1.19.12l-.49,2.31c-.3-.11-.86-.16-1.23-.16-2.54,0-3.84,1.93-4.27,4.24l-1.42,8.11h-2.5l2.54-14.38Z"/>
      <path class="cls-1" d="M268.45,64.4c0-.82.12-1.65.22-2.19l.37-1.98c.59-3.32,3.09-5.21,6.37-5.21,4.36,0,5.73,3.39,5.3,6.07,0,.03-.31,1.82-.36,1.96h-9.39c-.07.25-.14.75-.14,1.23,0,1.76.89,3.49,3.38,3.49,1.75,0,2.87-.85,3.16-1.79h2.45c-.33,1.9-2.46,3.9-5.77,3.9s-5.59-1.87-5.59-5.47ZM278.35,60.96c.4-2.13-.67-3.91-3.02-3.91-1.7,0-3.34.98-3.8,3.24l-.19.92h6.97s.04-.23.04-.25Z"/>
      <path class="cls-1" d="M289.12,55.02c3.43,0,5.25,2.06,5.25,3.95v.27h-2.3v-.11c0-.96-.98-2.21-2.97-2.21-1.75,0-2.75.93-2.75,2.02,0,1.41,1.46,1.85,3.08,2.38,2.13.68,4.01,1.56,4.01,4.13,0,2.87-2.23,4.47-5.61,4.47s-5.65-1.91-5.65-4.2v-.15h2.35c0,.07.01.18.03.25.21,1.07,1.45,2.08,3.42,2.08s2.99-.92,2.99-2.24c0-1.46-1.37-1.89-2.94-2.38-1.54-.48-4.12-1.35-4.12-4.03,0-2.53,1.85-4.22,5.2-4.22Z"/>
      <path class="cls-1" d="M296.3,64.4c0-.82.12-1.65.22-2.19l.37-1.98c.59-3.32,3.09-5.21,6.37-5.21,4.36,0,5.73,3.39,5.3,6.07,0,.03-.31,1.82-.36,1.96h-9.39c-.07.25-.14.75-.14,1.23,0,1.76.89,3.49,3.38,3.49,1.75,0,2.87-.85,3.16-1.79h2.45c-.33,1.9-2.46,3.9-5.77,3.9s-5.59-1.87-5.59-5.47ZM306.2,60.96c.4-2.13-.67-3.91-3.02-3.91-1.7,0-3.34.98-3.8,3.24l-.19.92h6.97s.04-.23.04-.25Z"/>
      <path class="cls-1" d="M313.53,66.78h-.18l-1.33,7.63h-2.5l3.36-19.15h2.47l-.42,2.31h.18c.45-1.09,1.63-2.53,4.09-2.53,2.98,0,5.07,2.02,5.07,5.36,0,.51-.01,1.13-.12,1.7l-.46,2.57c-.46,2.91-2.57,5.2-5.99,5.2-2.46,0-3.92-1.82-4.17-3.08ZM317.44,67.68c2.19,0,3.58-1.72,3.95-3.73l.36-2.02c.05-.34.07-.83.07-1.22,0-2.28-1.37-3.62-3.5-3.62s-3.58,1.67-3.96,4.03l-.33,1.96c-.05.34-.05.63-.05.68,0,2.68,1.87,3.92,3.47,3.92Z"/>
      <path class="cls-1" d="M326.34,64.4c0-.82.12-1.65.22-2.19l.37-1.98c.59-3.32,3.09-5.21,6.37-5.21,4.36,0,5.73,3.39,5.3,6.07,0,.03-.31,1.82-.36,1.96h-9.39c-.07.25-.14.75-.14,1.23,0,1.76.89,3.49,3.38,3.49,1.75,0,2.87-.85,3.16-1.79h2.45c-.33,1.9-2.46,3.9-5.77,3.9s-5.59-1.87-5.59-5.47ZM336.24,60.96c.4-2.13-.67-3.91-3.02-3.91-1.7,0-3.34.98-3.8,3.24l-.19.92h6.97s.04-.23.04-.25Z"/>
      <path class="cls-1" d="M341.94,58.91l2.64-7.93h2.9l-3.31,7.93h-2.23ZM347.71,58.91l2.64-7.93h2.9l-3.31,7.93h-2.23Z"/>
    </g>
  </g>
</svg>