<?xml version="1.0" encoding="UTF-8"?>
<svg id="Livello_2" data-name="Livello 2" xmlns="http://www.w3.org/2000/svg" viewBox="0 0 442.67 192.1">
  <defs>
    <style>
      .cls-1 {
        fill: #fff;
        stroke-width: 0px;
      }
    </style>
  </defs>
  <g id="Livello_1-2" data-name="Livello 1">
    <g>
      <g>
        <path class="cls-1" d="m22.97,63.26c0,5.86-3.83,10.3-10.55,10.3h-6.25v10.44H.02v-31.12h12.45c6.73,0,10.51,4.56,10.51,10.37Zm-11.69-5.47h-5.13v10.94h5.13c3.4,0,5.43-2.01,5.43-5.47s-2.03-5.47-5.43-5.47Z"/>
        <path class="cls-1" d="m51.15,62.74c0,4.56-2.83,7.64-5.65,8.73l6.25,12.54h-6.88l-5.45-11.6h-5.52v11.6h-6.09v-31.12h12.42c6.91,0,10.92,3.9,10.92,9.85Zm-11.9,5.04c3.42,0,5.54-1.64,5.54-4.92s-2.19-5.13-5.45-5.13h-5.45v10.05h5.36Z"/>
        <path class="cls-1" d="m77.04,84.01h-20.04v-31.12h20.04v5.04h-13.93v7.98h13.11v4.72h-13.11v8.34h13.93v5.04Z"/>
        <path class="cls-1" d="m87.21,75.53c.41,2.42,2.74,4.19,6.41,4.19s5.86-1.76,5.86-4.31c0-2.17-1.55-3.28-4.79-4.04l-4.81-1.12c-4.83-1.09-7.89-3.88-7.89-8.59,0-5.7,4.76-9.42,11.63-9.42s11.22,3.99,11.51,8.78h-5.84c-.39-2.23-2.42-3.94-5.72-3.94s-5.43,1.76-5.43,4.17c0,1.87,1.53,3.1,4.26,3.69l4.83,1.12c5.04,1.14,8.37,3.56,8.37,8.78,0,5.79-4.45,9.76-12.33,9.76s-11.74-4.15-12.01-9.07h5.95Z"/>
        <path class="cls-1" d="m131.21,84.01h-20.04v-31.12h20.04v5.04h-13.93v7.98h13.11v4.72h-13.11v8.34h13.93v5.04Z"/>
        <path class="cls-1" d="m160.3,63.26c0,5.86-3.83,10.3-10.55,10.3h-6.25v10.44h-6.15v-31.12h12.45c6.73,0,10.51,4.56,10.51,10.37Zm-11.69-5.47h-5.13v10.94h5.13c3.4,0,5.43-2.01,5.43-5.47s-2.03-5.47-5.43-5.47Z"/>
        <path class="cls-1" d="m165.13,84.01v-31.12h6.15v31.12h-6.15Z"/>
        <path class="cls-1" d="m194.73,63.35c.08.05.12.12.1.19l-4.6,16.27c-.21.87-.32,1.38-.32,1.55,0,.23.05.43.14.59.08.18.27.27.57.27.52,0,1.2-.45,2.05-1.34.5-.53,1.12-1.29,1.85-2.28l.59.5-.23.32c-1.14,1.6-2.08,2.74-2.83,3.44-1.17,1.09-2.31,1.64-3.42,1.64-.65,0-1.2-.27-1.63-.82-.43-.55-.65-1.19-.65-1.94,0-.44.03-.82.09-1.15.06-.33.17-.81.34-1.45l3.24-11.71c.05-.18.08-.35.11-.5.03-.15.05-.3.05-.46,0-.55-.2-.88-.6-1.01-.4-.13-1.2-.19-2.38-.19v-.75c1.25-.15,2.15-.27,2.7-.35.55-.08,1.1-.17,1.66-.26.72-.12,1.41-.26,2.06-.41s1.01-.2,1.1-.15Zm-2.15-5.71c-.44-.49-.66-1.07-.66-1.75s.22-1.29.66-1.78c.44-.49.97-.73,1.6-.73s1.16.24,1.61.73c.45.49.67,1.08.67,1.78s-.22,1.29-.67,1.77c-.45.48-.98.72-1.61.72s-1.15-.24-1.6-.73Z"/>
        <path class="cls-1" d="m197.26,84.01l3.9-14.08c.33-1.19.53-1.91.58-2.17.05-.25.08-.52.08-.81,0-.44-.12-.79-.38-1.04-.25-.25-.74-.38-1.47-.38-.18,0-.36.01-.54.03-.17.02-.37.05-.58.08v-.75c.98-.15,1.68-.27,2.09-.34.42-.08.86-.17,1.35-.27l4.05-.89c.09.06.15.13.18.21l-3.02,9.8c1.87-2.84,3.43-4.95,4.68-6.34,2.2-2.45,4.18-3.67,5.92-3.67.67,0,1.25.13,1.74.39.93.5,1.4,1.41,1.4,2.71,0,.36-.04.74-.11,1.14-.08.4-.17.82-.3,1.28l-3,10.92c-.06.23-.13.51-.21.83-.08.33-.11.56-.11.7,0,.23.05.43.16.62.11.18.28.27.51.27.38,0,.82-.23,1.31-.69.5-.46,1.3-1.46,2.43-2.97l.66.59c-1.22,1.69-2.19,2.87-2.9,3.56-1.22,1.2-2.39,1.8-3.51,1.8-.51,0-1-.17-1.47-.51s-.71-.96-.71-1.86c0-.26.02-.53.06-.82.04-.29.09-.54.15-.75l2.91-11.08c.15-.61.25-1.11.31-1.49.05-.39.08-.66.08-.83,0-.36-.09-.68-.26-.95-.17-.27-.49-.4-.93-.4-1.15,0-2.61,1.03-4.36,3.1-1.03,1.23-2.08,2.69-3.14,4.39-.79,1.32-1.42,2.61-1.87,3.86-.46,1.25-1.18,3.53-2.18,6.84h-3.5Z"/>
        <path class="cls-1" d="m237.64,70.44c0,5.74,2.48,8.96,6.84,8.96,3.58,0,5.9-2.26,6.16-5.45h5.95v.59c-.3,5.95-5.33,10.05-12.15,10.05-8.37,0-13.06-5.33-13.06-14.16v-3.88c0-8.82,4.74-14.27,13.06-14.27,6.84,0,11.88,4.22,12.15,10.37v.57h-5.95c-.25-3.31-2.62-5.75-6.16-5.75-4.31,0-6.84,3.33-6.84,9.1v3.85Z"/>
        <path class="cls-1" d="m259.31,84.01l10.44-31.12h7.2l10.4,31.12h-6.54l-2.44-8h-10.4l-2.44,8h-6.22Zm13.75-25.17l-3.81,12.58h7.89l-3.81-12.58h-.27Z"/>
        <path class="cls-1" d="m295.22,75.53c.41,2.42,2.74,4.19,6.41,4.19s5.86-1.76,5.86-4.31c0-2.17-1.55-3.28-4.79-4.04l-4.81-1.12c-4.83-1.09-7.89-3.88-7.89-8.59,0-5.7,4.76-9.42,11.63-9.42s11.22,3.99,11.51,8.78h-5.84c-.39-2.23-2.42-3.94-5.72-3.94s-5.43,1.76-5.43,4.17c0,1.87,1.53,3.1,4.26,3.69l4.83,1.12c5.04,1.14,8.37,3.56,8.37,8.78,0,5.79-4.45,9.76-12.33,9.76s-11.74-4.15-12.01-9.07h5.95Z"/>
        <path class="cls-1" d="m325.15,84.01v-25.97h-8.82v-5.15h23.85v5.15h-8.84v25.97h-6.18Z"/>
        <path class="cls-1" d="m364.34,84.01h-20.04v-31.12h20.04v5.04h-13.93v7.98h13.11v4.72h-13.11v8.34h13.93v5.04Z"/>
        <path class="cls-1" d="m389.82,84.01h-19.35v-31.12h6.16v25.87h13.2v5.24Z"/>
        <path class="cls-1" d="m413.62,84.01h-19.35v-31.12h6.16v25.87h13.2v5.24Z"/>
        <path class="cls-1" d="m429.35,84.6c-8.32,0-13.34-5.36-13.34-14.13v-3.99c0-8.84,5.01-14.18,13.34-14.18s13.31,5.38,13.31,14.18v3.99c0,8.78-4.99,14.13-13.31,14.13Zm0-27.17c-4.13,0-7.07,3.01-7.07,9v4.06c0,6,2.94,8.98,7.07,8.98s7.07-2.99,7.07-8.98v-4.06c0-6-2.96-9-7.07-9Z"/>
      </g>
      <g>
        <path class="cls-1" d="m4.43,158.79h1.82c1.56,0,2.68-1.02,2.66-2.4,0-1.39-1.14-2.33-2.66-2.33s-2.62,1.04-2.69,2.16H.39c.09-2.69,2.2-4.78,5.96-4.79,3.6-.01,5.85,1.89,5.89,4.49.05,2.44-1.92,3.75-3.18,3.95v.18c1.56.15,3.67,1.38,3.71,4.11.04,3.27-2.97,5.16-6.52,5.16-3.91,0-6.1-2.22-6.18-4.85h3.13c.09,1.24,1.35,2.16,3.07,2.17,1.89,0,3.14-1.1,3.12-2.64-.01-1.5-1.19-2.59-3.04-2.59h-1.91v-2.62Z"/>
        <path class="cls-1" d="m15.54,159.97c0-5.16,2.47-8.56,6.59-8.56s6.51,3.34,6.51,8.56v.77c0,5.16-2.49,8.56-6.57,8.56s-6.52-3.36-6.52-8.56v-.77Zm3.41.74c0,3.63,1.2,5.8,3.14,5.8s3.14-2.17,3.14-5.8v-.73c0-3.62-1.19-5.78-3.14-5.78s-3.14,2.16-3.14,5.78v.73Z"/>
        <path class="cls-1" d="m33.86,164.93c1.26,0,2.23.87,2.23,2.17s-.98,2.12-2.23,2.12-2.2-.84-2.2-2.12.97-2.17,2.2-2.17Z"/>
        <path class="cls-1" d="m43.33,168.97v-13.94h-.16l-3.91,2.78v-3.13l4.08-2.93h3.38v17.22h-3.38Z"/>
        <path class="cls-1" d="m55.36,168.97v-13.94h-.16l-3.91,2.78v-3.13l4.08-2.93h3.38v17.22h-3.38Z"/>
        <path class="cls-1" d="m65.52,164.93c1.26,0,2.23.87,2.23,2.17s-.98,2.12-2.23,2.12-2.2-.84-2.2-2.12.97-2.17,2.2-2.17Z"/>
        <path class="cls-1" d="m70.84,156.88v-.16c0-2.62,1.89-5.3,5.89-5.3,3.56,0,5.88,2.08,5.88,4.82,0,2.37-1.53,3.84-3.03,5.48l-3.91,4.32v.16h7.23v2.78h-11.9v-2.12l6.3-6.79c.92-.98,1.93-2.08,1.93-3.51s-1.1-2.41-2.57-2.41c-1.63,0-2.59,1.2-2.59,2.55v.19h-3.23Z"/>
        <path class="cls-1" d="m85.59,159.97c0-5.16,2.47-8.56,6.59-8.56s6.51,3.34,6.51,8.56v.77c0,5.16-2.49,8.56-6.57,8.56s-6.52-3.36-6.52-8.56v-.77Zm3.41.74c0,3.63,1.2,5.8,3.14,5.8s3.14-2.17,3.14-5.8v-.73c0-3.62-1.19-5.78-3.14-5.78s-3.14,2.16-3.14,5.78v.73Z"/>
        <path class="cls-1" d="m101.64,156.88v-.16c0-2.62,1.89-5.3,5.89-5.3,3.56,0,5.88,2.08,5.88,4.82,0,2.37-1.53,3.84-3.03,5.48l-3.91,4.32v.16h7.23v2.78h-11.9v-2.12l6.3-6.79c.92-.98,1.93-2.08,1.93-3.51s-1.1-2.41-2.57-2.41c-1.63,0-2.59,1.2-2.59,2.55v.19h-3.23Z"/>
        <path class="cls-1" d="m127.57,151.75v11.28h2.11v2.75h-2.11v3.19h-3.19v-3.19h-8.34v-2.79c2.02-3.79,4.37-7.52,6.62-11.24h4.91Zm-3.19,11.28v-8.71h-.18c-1.73,2.74-3.52,5.69-5.07,8.62v.09h5.25Z"/>
        <path class="cls-1" d="m137.28,163.38v-2.95h7.95v2.95h-7.95Z"/>
        <path class="cls-1" d="m144.52,163.38v-2.95h7.95v2.95h-7.95Z"/>
        <path class="cls-1" d="m151.77,163.38v-2.95h7.95v2.95h-7.95Z"/>
        <path class="cls-1" d="m159.01,163.38v-2.95h7.95v2.95h-7.95Z"/>
        <path class="cls-1" d="m166.25,163.38v-2.95h7.95v2.95h-7.95Z"/>
        <path class="cls-1" d="m173.49,163.38v-2.95h7.95v2.95h-7.95Z"/>
        <path class="cls-1" d="m180.74,163.38v-2.95h7.95v2.95h-7.95Z"/>
        <path class="cls-1" d="m187.98,163.38v-2.95h7.95v2.95h-7.95Z"/>
        <path class="cls-1" d="m195.22,163.38v-2.95h7.95v2.95h-7.95Z"/>
        <path class="cls-1" d="m212.42,168.97v-13.94h-.16l-3.91,2.78v-3.13l4.08-2.93h3.38v17.22h-3.38Z"/>
        <path class="cls-1" d="m220.3,156.88v-.16c0-2.62,1.89-5.3,5.89-5.3,3.56,0,5.88,2.08,5.88,4.82,0,2.37-1.53,3.84-3.03,5.48l-3.91,4.32v.16h7.23v2.78h-11.9v-2.12l6.3-6.79c.92-.98,1.93-2.08,1.93-3.51s-1.1-2.41-2.57-2.41c-1.63,0-2.59,1.2-2.59,2.55v.19h-3.23Z"/>
        <path class="cls-1" d="m237.4,164.93c1.26,0,2.23.87,2.23,2.17s-.98,2.12-2.23,2.12-2.2-.84-2.2-2.12.97-2.17,2.2-2.17Z"/>
        <path class="cls-1" d="m242.64,159.97c0-5.16,2.47-8.56,6.59-8.56s6.51,3.34,6.51,8.56v.77c0,5.16-2.49,8.56-6.57,8.56s-6.52-3.36-6.52-8.56v-.77Zm3.41.74c0,3.63,1.2,5.8,3.14,5.8s3.14-2.17,3.14-5.8v-.73c0-3.62-1.19-5.78-3.14-5.78s-3.14,2.16-3.14,5.78v.73Z"/>
        <path class="cls-1" d="m262.84,168.97v-13.94h-.16l-3.91,2.78v-3.13l4.08-2.93h3.38v17.22h-3.38Z"/>
        <path class="cls-1" d="m273,164.93c1.26,0,2.23.87,2.23,2.17s-.98,2.12-2.23,2.12-2.2-.84-2.2-2.12.97-2.17,2.2-2.17Z"/>
        <path class="cls-1" d="m278.32,156.88v-.16c0-2.62,1.89-5.3,5.89-5.3,3.56,0,5.88,2.08,5.88,4.82,0,2.37-1.53,3.84-3.03,5.48l-3.91,4.32v.16h7.23v2.78h-11.9v-2.12l6.3-6.79c.92-.98,1.93-2.08,1.93-3.51s-1.1-2.41-2.57-2.41c-1.63,0-2.59,1.2-2.59,2.55v.19h-3.23Z"/>
        <path class="cls-1" d="m293.07,159.97c0-5.16,2.47-8.56,6.59-8.56s6.51,3.34,6.51,8.56v.77c0,5.16-2.49,8.56-6.57,8.56s-6.52-3.36-6.52-8.56v-.77Zm3.41.74c0,3.63,1.2,5.8,3.14,5.8s3.14-2.17,3.14-5.8v-.73c0-3.62-1.19-5.78-3.14-5.78s-3.14,2.16-3.14,5.78v.73Z"/>
        <path class="cls-1" d="m309.12,156.88v-.16c0-2.62,1.89-5.3,5.89-5.3,3.56,0,5.88,2.08,5.88,4.82,0,2.37-1.53,3.84-3.03,5.48l-3.91,4.32v.16h7.23v2.78h-11.9v-2.12l6.3-6.79c.92-.98,1.93-2.08,1.93-3.51s-1.1-2.41-2.57-2.41c-1.63,0-2.59,1.2-2.59,2.55v.19h-3.23Z"/>
        <path class="cls-1" d="m327.2,164.55c.25,1.36,1.6,2.06,3.03,2.06,1.63,0,3.13-1.21,3.13-3.31,0-1.89-1.41-3.1-3.13-3.1-1.53,0-2.46.91-2.83,1.59h-2.98l.72-10.04h10.55v2.75h-7.82l-.38,4.57h.18c.34-.55,1.51-1.46,3.46-1.46,2.97,0,5.53,2.01,5.53,5.59s-2.62,6.11-6.49,6.11c-3.6,0-5.98-2.04-6.09-4.75h3.13Z"/>
      </g>
      <g>
        <path class="cls-1" d="m.55,189.26v-10h1.66v10H.55Z"/>
        <path class="cls-1" d="m4.7,189.26v-10h1.46l4.67,7.18h.07v-7.18h1.6v10h-1.46l-4.68-7.2h-.07v7.2h-1.6Z"/>
        <path class="cls-1" d="m20.89,182.12c-.23-.98-1.02-1.63-2.18-1.63-1.55,0-2.45,1.15-2.45,3.1v1.3c0,1.94.85,3.15,2.5,3.15,1.48,0,2.23-.86,2.23-1.99v-.79h-2.3v-1.31h3.9v2.03c0,1.93-1.3,3.48-3.84,3.48-2.73,0-4.17-1.78-4.17-4.56v-1.32c0-2.73,1.55-4.51,4.15-4.51,2.2,0,3.58,1.32,3.79,3.05h-1.64Z"/>
        <path class="cls-1" d="m31.86,182.34c0,1.42-.82,2.42-1.84,2.8l2.02,4.12h-1.87l-1.79-3.85h-2.07v3.85h-1.64v-10h3.82c2.1,0,3.37,1.22,3.37,3.08Zm-3.65,1.76c1.22,0,1.93-.58,1.93-1.7s-.73-1.77-1.89-1.77h-1.95v3.47h1.9Z"/>
        <path class="cls-1" d="m40.22,189.26h-6.24v-10h6.24v1.4h-4.58v2.85h4.31v1.34h-4.31v3.01h4.58v1.4Z"/>
        <path class="cls-1" d="m43.34,186.63c.16.86.99,1.46,2.23,1.46,1.31,0,2.07-.62,2.07-1.55,0-.75-.51-1.16-1.59-1.43l-1.64-.41c-1.52-.37-2.45-1.28-2.45-2.7,0-1.77,1.49-2.96,3.61-2.96s3.46,1.19,3.59,2.72h-1.61c-.16-.8-.88-1.36-1.99-1.36-1.18,0-1.93.62-1.93,1.5,0,.65.49,1.09,1.38,1.3l1.63.4c1.68.41,2.65,1.21,2.65,2.78,0,1.84-1.44,3.07-3.86,3.07s-3.62-1.23-3.74-2.83h1.63Z"/>
        <path class="cls-1" d="m52.24,186.63c.16.86.99,1.46,2.23,1.46,1.31,0,2.07-.62,2.07-1.55,0-.75-.51-1.16-1.59-1.43l-1.64-.41c-1.52-.37-2.45-1.28-2.45-2.7,0-1.77,1.49-2.96,3.61-2.96s3.46,1.19,3.59,2.72h-1.61c-.16-.8-.88-1.36-1.99-1.36-1.18,0-1.93.62-1.93,1.5,0,.65.49,1.09,1.38,1.3l1.63.4c1.68.41,2.65,1.21,2.65,2.78,0,1.84-1.44,3.07-3.86,3.07s-3.62-1.23-3.74-2.83h1.63Z"/>
        <path class="cls-1" d="m63.94,189.46c-2.56,0-4.16-1.68-4.16-4.51v-1.36c0-2.84,1.6-4.52,4.16-4.52s4.15,1.68,4.15,4.52v1.36c0,2.83-1.59,4.51-4.15,4.51Zm0-8.97c-1.43,0-2.48,1.02-2.48,3.08v1.38c0,2.07,1.05,3.09,2.48,3.09s2.47-1.02,2.47-3.09v-1.38c0-2.06-1.05-3.08-2.47-3.08Z"/>
        <path class="cls-1" d="m79.46,189.26h-6.06v-10h1.66v8.55h4.4v1.44Z"/>
        <path class="cls-1" d="m80.99,189.26v-10h1.66v10h-1.66Z"/>
        <path class="cls-1" d="m85.14,179.27h3.98c1.74,0,2.87.94,2.87,2.46,0,1.17-.66,1.92-1.66,2.2v.07c1.27.15,2.2,1,2.2,2.45,0,1.77-1.4,2.81-3.48,2.81h-3.91v-10Zm1.66,4.23h1.41c1.49,0,2.15-.5,2.15-1.49,0-.89-.58-1.42-1.57-1.42h-1.98v2.91Zm0,4.45h1.59c1.74,0,2.45-.5,2.45-1.55s-.69-1.65-1.93-1.65h-2.12v3.2Z"/>
        <path class="cls-1" d="m100.71,189.26h-6.24v-10h6.24v1.4h-4.58v2.85h4.31v1.34h-4.31v3.01h4.58v1.4Z"/>
        <path class="cls-1" d="m110.06,182.34c0,1.42-.82,2.42-1.84,2.8l2.02,4.12h-1.87l-1.79-3.85h-2.07v3.85h-1.64v-10h3.82c2.1,0,3.37,1.22,3.37,3.08Zm-3.65,1.76c1.22,0,1.93-.58,1.93-1.7s-.73-1.77-1.89-1.77h-1.95v3.47h1.9Z"/>
        <path class="cls-1" d="m115.94,189.46c-2.56,0-4.16-1.68-4.16-4.51v-1.36c0-2.84,1.6-4.52,4.16-4.52s4.15,1.68,4.15,4.52v1.36c0,2.83-1.59,4.51-4.15,4.51Zm0-8.97c-1.43,0-2.48,1.02-2.48,3.08v1.38c0,2.07,1.05,3.09,2.48,3.09s2.47-1.02,2.47-3.09v-1.38c0-2.06-1.05-3.08-2.47-3.08Z"/>
        <path class="cls-1" d="m124.84,185.89v-1.45h4.61v1.45h-4.61Z"/>
        <path class="cls-1" d="m135.56,186.63c.16.86.99,1.46,2.23,1.46,1.31,0,2.07-.62,2.07-1.55,0-.75-.51-1.16-1.59-1.43l-1.64-.41c-1.52-.37-2.45-1.28-2.45-2.7,0-1.77,1.49-2.96,3.61-2.96s3.46,1.19,3.59,2.72h-1.61c-.16-.8-.88-1.36-1.99-1.36-1.18,0-1.93.62-1.93,1.5,0,.65.49,1.09,1.38,1.3l1.63.4c1.68.41,2.65,1.21,2.65,2.78,0,1.84-1.44,3.07-3.86,3.07s-3.62-1.23-3.74-2.83h1.63Z"/>
        <path class="cls-1" d="m143.92,179.64h1.59v1.93h1.74v1.27h-1.74v4.11c0,.84.31,1.08,1.19,1.08.22,0,.51-.01.64-.03v1.25c-.13.02-.67.07-1.04.07-1.88,0-2.4-.67-2.4-2.23v-4.24h-1.18v-1.27h1.2v-1.93Z"/>
        <path class="cls-1" d="m149.22,181.52h1.62v1.21h.09c.17-.52.73-1.32,2.03-1.32.22,0,.4.01.55.04v1.44c-.14-.04-.42-.06-.7-.06-1.3,0-1.94.78-1.94,1.82v4.61h-1.65v-7.74Z"/>
        <path class="cls-1" d="m154.61,187.02c0-1.37.95-2.29,2.74-2.29h1.96v-.72c0-.89-.56-1.3-1.46-1.3s-1.27.37-1.4.88h-1.55c.1-1.3,1.07-2.17,3-2.17,1.66,0,3.02.69,3.02,2.62v5.24h-1.55v-1h-.07c-.34.59-1.02,1.12-2.16,1.12-1.5,0-2.53-.92-2.53-2.37Zm4.69-.37v-.83h-1.7c-.94,0-1.36.48-1.36,1.12,0,.81.67,1.19,1.41,1.19.92,0,1.66-.63,1.66-1.47Z"/>
        <path class="cls-1" d="m168,182.69h.08v-3.95h1.63v10.53h-1.58v-1.24h-.08c-.23.78-1.16,1.34-2.29,1.34-1.78,0-2.94-1.27-2.94-3.31v-1.33c0-2.04,1.18-3.31,2.96-3.31,1.09,0,1.93.48,2.23,1.27Zm-3.53,2.28v.85c0,1.41.68,2.22,1.79,2.22s1.82-.8,1.82-2.12v-1.17c0-1.19-.78-1.99-1.85-1.99s-1.76.81-1.76,2.21Z"/>
        <path class="cls-1" d="m171.62,187.02c0-1.37.95-2.29,2.74-2.29h1.96v-.72c0-.89-.56-1.3-1.46-1.3s-1.27.37-1.4.88h-1.55c.1-1.3,1.07-2.17,3-2.17,1.66,0,3.02.69,3.02,2.62v5.24h-1.55v-1h-.07c-.34.59-1.02,1.12-2.16,1.12-1.5,0-2.53-.92-2.53-2.37Zm4.69-.37v-.83h-1.7c-.94,0-1.36.48-1.36,1.12,0,.81.67,1.19,1.41,1.19.92,0,1.66-.63,1.66-1.47Z"/>
        <path class="cls-1" d="m184.45,186.63c.16.86.99,1.46,2.23,1.46,1.31,0,2.07-.62,2.07-1.55,0-.75-.51-1.16-1.59-1.43l-1.64-.41c-1.52-.37-2.45-1.28-2.45-2.7,0-1.77,1.49-2.96,3.61-2.96s3.46,1.19,3.59,2.72h-1.61c-.16-.8-.88-1.36-1.99-1.36-1.18,0-1.93.62-1.93,1.5,0,.65.49,1.09,1.38,1.3l1.63.4c1.68.41,2.65,1.21,2.65,2.78,0,1.84-1.44,3.07-3.86,3.07s-3.62-1.23-3.74-2.83h1.63Z"/>
        <path class="cls-1" d="m198.82,184.88v1c0,2.25-1.41,3.52-3.44,3.52s-3.45-1.25-3.45-3.51v-1c0-2.12,1.42-3.49,3.45-3.49s3.44,1.31,3.44,3.49Zm-5.24.09v.86c0,1.3.62,2.26,1.82,2.26s1.79-.95,1.79-2.26v-.86c0-1.3-.64-2.26-1.79-2.26s-1.82.97-1.82,2.26Z"/>
        <path class="cls-1" d="m201.27,179.64h1.59v1.93h1.74v1.27h-1.74v4.11c0,.84.31,1.08,1.19,1.08.22,0,.51-.01.64-.03v1.25c-.13.02-.67.07-1.04.07-1.88,0-2.4-.67-2.4-2.23v-4.24h-1.18v-1.27h1.2v-1.93Z"/>
        <path class="cls-1" d="m206.98,179.64h1.59v1.93h1.74v1.27h-1.74v4.11c0,.84.31,1.08,1.19,1.08.22,0,.51-.01.64-.03v1.25c-.13.02-.67.07-1.04.07-1.88,0-2.4-.67-2.4-2.23v-4.24h-1.18v-1.27h1.2v-1.93Z"/>
        <path class="cls-1" d="m211.81,185.92v-1.05c0-2.2,1.44-3.48,3.33-3.48s3.31,1.35,3.31,3.48v.91h-5.02v.38c0,1.11.66,1.93,1.8,1.93.85,0,1.44-.4,1.55-.89h1.59c-.1.89-1.04,2.19-3.13,2.19s-3.42-1.3-3.42-3.48Zm5.05-1.2v-.1c0-1.17-.68-1.94-1.71-1.94s-1.72.78-1.72,1.94v.1h3.44Z"/>
        <path class="cls-1" d="m220.45,181.52h1.62v1.21h.09c.17-.52.73-1.32,2.03-1.32.22,0,.4.01.55.04v1.44c-.14-.04-.42-.06-.7-.06-1.3,0-1.94.78-1.94,1.82v4.61h-1.65v-7.74Z"/>
        <path class="cls-1" d="m226.35,181.52h1.62v1.21h.09c.17-.52.73-1.32,2.03-1.32.22,0,.4.01.55.04v1.44c-.14-.04-.42-.06-.7-.06-1.3,0-1.94.78-1.94,1.82v4.61h-1.65v-7.74Z"/>
        <path class="cls-1" d="m231.74,187.02c0-1.37.95-2.29,2.74-2.29h1.96v-.72c0-.89-.56-1.3-1.46-1.3s-1.27.37-1.4.88h-1.55c.1-1.3,1.07-2.17,3-2.17,1.66,0,3.02.69,3.02,2.62v5.24h-1.55v-1h-.07c-.34.59-1.02,1.12-2.16,1.12-1.5,0-2.53-.92-2.53-2.37Zm4.69-.37v-.83h-1.7c-.94,0-1.36.48-1.36,1.12,0,.81.67,1.19,1.41,1.19.92,0,1.66-.63,1.66-1.47Z"/>
        <path class="cls-1" d="m240.31,181.52h1.6v1.39h.08c.2-.61.76-1.51,2.33-1.51s2.61.87,2.61,2.63v5.23h-1.63v-4.75c0-1.18-.62-1.72-1.53-1.72-1.2,0-1.83.92-1.83,2.18v4.3h-1.63v-7.74Z"/>
        <path class="cls-1" d="m248.81,185.92v-1.05c0-2.2,1.44-3.48,3.33-3.48s3.31,1.35,3.31,3.48v.91h-5.02v.38c0,1.11.66,1.93,1.8,1.93.85,0,1.44-.4,1.55-.89h1.59c-.1.89-1.04,2.19-3.13,2.19s-3.42-1.3-3.42-3.48Zm5.05-1.2v-.1c0-1.17-.68-1.94-1.71-1.94s-1.72.78-1.72,1.94v.1h3.44Z"/>
        <path class="cls-1" d="m256.93,187.02c0-1.37.95-2.29,2.74-2.29h1.96v-.72c0-.89-.56-1.3-1.46-1.3s-1.27.37-1.4.88h-1.55c.1-1.3,1.07-2.17,3-2.17,1.66,0,3.02.69,3.02,2.62v5.24h-1.55v-1h-.07c-.34.59-1.02,1.12-2.16,1.12-1.5,0-2.53-.92-2.53-2.37Zm4.69-.37v-.83h-1.7c-.94,0-1.36.48-1.36,1.12,0,.81.67,1.19,1.41,1.19.92,0,1.66-.63,1.66-1.47Z"/>
        <path class="cls-1" d="m273.54,182.69h.08v-3.95h1.63v10.53h-1.58v-1.24h-.08c-.23.78-1.16,1.34-2.29,1.34-1.78,0-2.94-1.27-2.94-3.31v-1.33c0-2.04,1.18-3.31,2.96-3.31,1.09,0,1.93.48,2.23,1.27Zm-3.53,2.28v.85c0,1.41.68,2.22,1.79,2.22s1.82-.8,1.82-2.12v-1.17c0-1.19-.78-1.99-1.85-1.99s-1.76.81-1.76,2.21Z"/>
        <path class="cls-1" d="m277.2,185.92v-1.05c0-2.2,1.44-3.48,3.33-3.48s3.31,1.35,3.31,3.48v.91h-5.02v.38c0,1.11.66,1.93,1.8,1.93.85,0,1.44-.4,1.55-.89h1.59c-.1.89-1.04,2.19-3.13,2.19s-3.42-1.3-3.42-3.48Zm5.05-1.2v-.1c0-1.17-.68-1.94-1.71-1.94s-1.72.78-1.72,1.94v.1h3.44Z"/>
        <path class="cls-1" d="m285.79,178.74h1.63v10.53h-1.63v-10.53Z"/>
        <path class="cls-1" d="m294.36,184.96c0,1.96.88,3.08,2.41,3.08,1.22,0,2.05-.73,2.16-1.77h1.62v.12c-.12,1.81-1.69,3.08-3.79,3.08-2.61,0-4.09-1.67-4.09-4.5v-1.34c0-2.83,1.5-4.55,4.09-4.55,2.1,0,3.67,1.32,3.79,3.21v.11h-1.62c-.11-1.1-.96-1.89-2.16-1.89-1.52,0-2.41,1.15-2.41,3.13v1.33Z"/>
        <path class="cls-1" d="m302.07,187.02c0-1.37.95-2.29,2.74-2.29h1.96v-.72c0-.89-.56-1.3-1.46-1.3s-1.27.37-1.4.88h-1.55c.1-1.3,1.07-2.17,3-2.17,1.66,0,3.02.69,3.02,2.62v5.24h-1.55v-1h-.07c-.34.59-1.02,1.12-2.16,1.12-1.5,0-2.53-.92-2.53-2.37Zm4.69-.37v-.83h-1.7c-.94,0-1.36.48-1.36,1.12,0,.81.67,1.19,1.41,1.19.92,0,1.66-.63,1.66-1.47Z"/>
        <path class="cls-1" d="m313.3,181.39c1.7,0,2.86.85,2.86,2.22h-1.46c-.04-.51-.51-1.03-1.44-1.03-.83,0-1.39.39-1.39,1.05,0,.86,1.1.97,1.96,1.12,1.44.25,2.56.71,2.56,2.18,0,1.56-1.24,2.47-3.2,2.47-1.84,0-3.02-.83-3.02-2.21h1.58c.09.62.53,1.03,1.52,1.03,1.09,0,1.54-.49,1.54-1.09,0-.8-.89-.94-1.93-1.13-1.41-.29-2.56-.69-2.56-2.21,0-1.68,1.42-2.39,3-2.39Z"/>
        <path class="cls-1" d="m318.76,179.64h1.59v1.93h1.74v1.27h-1.74v4.11c0,.84.31,1.08,1.19,1.08.22,0,.51-.01.64-.03v1.25c-.13.02-.67.07-1.04.07-1.88,0-2.4-.67-2.4-2.23v-4.24h-1.18v-1.27h1.2v-1.93Z"/>
        <path class="cls-1" d="m323.59,185.92v-1.05c0-2.2,1.44-3.48,3.32-3.48s3.31,1.35,3.31,3.48v.91h-5.02v.38c0,1.11.66,1.93,1.8,1.93.85,0,1.44-.4,1.55-.89h1.59c-.09.89-1.04,2.19-3.13,2.19s-3.42-1.3-3.42-3.48Zm5.05-1.2v-.1c0-1.17-.68-1.94-1.71-1.94s-1.72.78-1.72,1.94v.1h3.43Z"/>
        <path class="cls-1" d="m332.18,178.74h1.63v10.53h-1.63v-10.53Z"/>
        <path class="cls-1" d="m336.21,178.74h1.63v10.53h-1.63v-10.53Z"/>
        <path class="cls-1" d="m346.71,184.88v1c0,2.25-1.41,3.52-3.43,3.52s-3.45-1.25-3.45-3.51v-1c0-2.12,1.42-3.49,3.45-3.49s3.43,1.31,3.43,3.49Zm-5.24.09v.86c0,1.3.62,2.26,1.82,2.26s1.79-.95,1.79-2.26v-.86c0-1.3-.64-2.26-1.79-2.26s-1.82.97-1.82,2.26Z"/>
        <path class="cls-1" d="m356.68,182.69h.08v-3.95h1.62v10.53h-1.58v-1.24h-.08c-.23.78-1.16,1.34-2.29,1.34-1.78,0-2.94-1.27-2.94-3.31v-1.33c0-2.04,1.18-3.31,2.96-3.31,1.09,0,1.93.48,2.23,1.27Zm-3.53,2.28v.85c0,1.41.68,2.22,1.79,2.22s1.82-.8,1.82-2.12v-1.17c0-1.19-.78-1.99-1.85-1.99s-1.76.81-1.76,2.21Z"/>
        <path class="cls-1" d="m361.68,178.2c.64,0,1.09.41,1.09,1s-.45.98-1.09.98-1.06-.4-1.06-.98.45-1,1.06-1Zm-.8,3.32h1.62v7.74h-1.62v-7.74Z"/>
        <path class="cls-1" d="m367.24,179.27h1.91l2.48,8.13h.08l2.48-8.13h1.85l-3.45,10h-1.89l-3.46-10Z"/>
        <path class="cls-1" d="m378.37,178.2c.64,0,1.09.41,1.09,1s-.45.98-1.09.98-1.06-.4-1.06-.98.45-1,1.06-1Zm-.8,3.32h1.62v7.74h-1.62v-7.74Z"/>
        <path class="cls-1" d="m386.48,189.01v-1.11h-.09c-.29.67-1.08,1.21-2.17,1.21-1.71,0-3-1.22-3-3.33v-1.02c0-2.12,1.28-3.35,3-3.35,1.14,0,1.96.62,2.22,1.28h.08v-1.18h1.58v7.54c0,2.17-1.59,3.03-3.53,3.03-2.09,0-3.08-1.03-3.17-2.19h1.61c.1.52.7.92,1.61.92,1.25,0,1.86-.67,1.86-1.81Zm-3.6-4.05v.67c0,1.34.77,2.2,1.86,2.2s1.74-.92,1.74-2.02v-1.02c0-1.12-.66-2.05-1.75-2.05s-1.85.87-1.85,2.21Z"/>
        <path class="cls-1" d="m389.92,185.92v-1.05c0-2.2,1.44-3.48,3.32-3.48s3.31,1.35,3.31,3.48v.91h-5.02v.38c0,1.11.66,1.93,1.8,1.93.85,0,1.44-.4,1.55-.89h1.59c-.09.89-1.04,2.19-3.13,2.19s-3.42-1.3-3.42-3.48Zm5.05-1.2v-.1c0-1.17-.68-1.94-1.71-1.94s-1.72.78-1.72,1.94v.1h3.43Z"/>
        <path class="cls-1" d="m397.57,181.52h1.78l1.72,6.17h.07l1.88-6.17h1.71l-2.75,7.74h-1.76l-2.64-7.74Z"/>
        <path class="cls-1" d="m405.72,187.02c0-1.37.95-2.29,2.74-2.29h1.96v-.72c0-.89-.56-1.3-1.46-1.3s-1.27.37-1.4.88h-1.54c.1-1.3,1.07-2.17,3-2.17,1.65,0,3.02.69,3.02,2.62v5.24h-1.55v-1h-.07c-.34.59-1.02,1.12-2.16,1.12-1.5,0-2.53-.92-2.53-2.37Zm4.7-.37v-.83h-1.7c-.95,0-1.36.48-1.36,1.12,0,.81.67,1.19,1.41,1.19.92,0,1.66-.63,1.66-1.47Z"/>
        <path class="cls-1" d="m414.29,181.52h1.6v1.39h.08c.2-.61.76-1.51,2.33-1.51s2.61.87,2.61,2.63v5.23h-1.63v-4.75c0-1.18-.62-1.72-1.53-1.72-1.2,0-1.83.92-1.83,2.18v4.3h-1.63v-7.74Z"/>
        <path class="cls-1" d="m429.68,184.88v1c0,2.25-1.41,3.52-3.44,3.52s-3.45-1.25-3.45-3.51v-1c0-2.12,1.42-3.49,3.45-3.49s3.44,1.31,3.44,3.49Zm-5.24.09v.86c0,1.3.62,2.26,1.82,2.26s1.79-.95,1.79-2.26v-.86c0-1.3-.64-2.26-1.79-2.26s-1.82.97-1.82,2.26Z"/>
      </g>
      <g>
        <path class="cls-1" d="m13.89,106.69c-.5-2.16-2.24-3.6-4.81-3.6-3.4,0-5.39,2.53-5.39,6.82v2.87c0,4.27,1.87,6.94,5.5,6.94,3.26,0,4.92-1.89,4.92-4.37v-1.74h-5.06v-2.89h8.58v4.47c0,4.26-2.87,7.66-8.45,7.66-6.02,0-9.18-3.92-9.18-10.05v-2.9c0-6.02,3.4-9.94,9.15-9.94,4.84,0,7.89,2.9,8.35,6.73h-3.61Z"/>
        <path class="cls-1" d="m22.23,105.37h3.56v2.66h.19c.37-1.15,1.61-2.9,4.47-2.9.48,0,.87.03,1.21.1v3.16c-.31-.08-.94-.13-1.53-.13-2.87,0-4.27,1.71-4.27,4.02v10.15h-3.63v-17.05Z"/>
        <path class="cls-1" d="m49.42,122.42h-3.52v-2.84h-.19c-.47,1.37-2.05,3.1-5.03,3.1-3.4,0-5.77-1.61-5.77-5.61v-11.69h3.58v10.76c0,2.71,1.6,3.52,3.4,3.52,2.21,0,3.95-1.63,3.95-3.77v-10.5h3.58v17.05Z"/>
        <path class="cls-1" d="m58.25,119.85h-.18v8.23h-3.58v-22.71h3.48v2.71h.18c.69-1.84,2.61-2.94,5.05-2.94,3.97,0,6.42,2.82,6.42,7.44v2.63c0,4.63-2.47,7.45-6.5,7.45-2.34,0-4.1-1.02-4.87-2.81Zm7.74-5.11v-1.65c0-3.19-1.42-5.02-3.95-5.02s-3.97,1.77-3.97,4.66v2.6c0,2.61,1.63,4.39,4.03,4.39s3.89-1.82,3.89-4.98Z"/>
        <path class="cls-1" d="m77.69,119.85h-.18v8.23h-3.58v-22.71h3.48v2.71h.18c.69-1.84,2.61-2.94,5.05-2.94,3.97,0,6.42,2.82,6.42,7.44v2.63c0,4.63-2.47,7.45-6.5,7.45-2.34,0-4.1-1.02-4.87-2.81Zm7.74-5.11v-1.65c0-3.19-1.42-5.02-3.95-5.02s-3.97,1.77-3.97,4.66v2.6c0,2.61,1.63,4.39,4.03,4.39s3.89-1.82,3.89-4.98Z"/>
        <path class="cls-1" d="m107.72,112.76v2.21c0,4.95-3.11,7.74-7.56,7.74s-7.6-2.76-7.6-7.73v-2.21c0-4.66,3.13-7.69,7.6-7.69s7.56,2.89,7.56,7.68Zm-11.55.19v1.9c0,2.85,1.35,4.97,4,4.97s3.95-2.1,3.95-4.97v-1.9c0-2.85-1.4-4.98-3.95-4.98s-4,2.13-4,4.98Z"/>
        <path class="cls-1" d="m126.65,100.4l-3.03,9.61h-3.94l3.87-9.61h3.1Zm7.18,0l-3.03,9.61h-3.94l3.87-9.61h3.1Z"/>
        <path class="cls-1" d="m134.74,122.42l3.89-22.03h7.56c4.35,0,6.74,2.56,6.74,6.06,0,.42-.03.98-.11,1.47-.61,4.18-3.52,6.68-9.02,6.68h-4.02l-1.37,7.82h-3.68Zm7.05-19.08l-1.45,8.19h3.58c3.56,0,4.95-1.76,5.23-3.77.06-.32.1-.77.1-1.06,0-1.97-1.21-3.35-3.82-3.35h-3.63Z"/>
        <path class="cls-1" d="m153.69,117.9c0-.16,0-.36.03-.56.23-3.05,2.66-4.92,6.92-4.92h4.35l.18-1.1c.03-.16.06-.45.06-.69,0-1.32-.85-2.73-3.16-2.73-1.82,0-2.85.84-3.16,1.87h-3.44c.44-2.58,2.77-4.66,6.85-4.66s6.34,2.15,6.34,5.42c0,.73-.13,1.56-.26,2.32l-1.69,9.56h-3.42l.4-2.26h-.21c-.6,1.21-2.19,2.52-4.69,2.52-2.82,0-5.11-1.74-5.11-4.77Zm6.35,2.05c2,0,3.79-1.34,4.13-3.19l.35-1.97h-3.74c-2.39,0-3.5,1.27-3.5,2.73s1.02,2.44,2.76,2.44Z"/>
        <path class="cls-1" d="m171.2,119.71l10.4-11.34.05-.23h-8.74l.52-2.77h13.02l-.5,2.81-10.26,11.19-.05.21h8.71l-.52,2.84h-13.11l.48-2.71Z"/>
        <path class="cls-1" d="m186.93,119.71l10.4-11.34.05-.23h-8.74l.52-2.77h13.02l-.5,2.81-10.26,11.19-.05.21h8.71l-.52,2.84h-13.11l.48-2.71Z"/>
        <path class="cls-1" d="m206.2,105.37h3.6l-3.02,17.05h-3.6l3.02-17.05Zm2.5-7.26c1.44,0,2.35.9,2.35,2.15s-1.02,2.19-2.45,2.19-2.31-.89-2.31-2.13c0-1.31,1.02-2.21,2.4-2.21Z"/>
        <path class="cls-1" d="m223.33,119.1h-.23l-1.56,8.98h-3.6l3.98-22.71h3.58l-.52,2.85h.24c.58-1.47,2.05-3.08,4.82-3.08,3.47,0,5.87,2.39,5.87,6.34,0,.65-.03,1.42-.16,2.13l-.48,2.63c-.61,3.73-3.08,6.42-7.08,6.42-2.84,0-4.56-1.97-4.87-3.56Zm4.23.56c2.35,0,3.85-1.87,4.27-4.19l.39-2.11c.05-.37.08-.97.08-1.42,0-2.45-1.45-3.9-3.71-3.9s-3.87,1.81-4.32,4.47l-.34,2.06c-.06.39-.06.76-.06.87,0,2.85,1.94,4.23,3.69,4.23Z"/>
        <path class="cls-1" d="m238.56,116.1c0-.92.15-1.84.26-2.48l.39-2.1c.73-4.18,3.85-6.44,7.79-6.44,4.97,0,6.95,3.73,6.55,7.26,0,.1-.32,1.95-.42,2.37h-10.97c-.08.31-.15.9-.15,1.4,0,1.92,1,3.74,3.66,3.74,1.89,0,3.11-.9,3.44-2.02h3.47c-.39,2.45-3.03,4.87-7.13,4.87s-6.89-2.21-6.89-6.61Zm11.58-4.11c.39-2.24-.74-4.11-3.24-4.11-1.87,0-3.56,1.1-4.08,3.52l-.21.97h7.48c.02-.06.05-.32.05-.37Z"/>
        <path class="cls-1" d="m258.86,105.37h3.42l-.52,2.84h.23c.58-1.58,2.19-3.1,4.66-3.1.66,0,1.29.15,1.58.23l-.69,3.23c-.37-.15-1.11-.27-1.66-.27-2.89,0-4.31,2.15-4.77,4.82l-1.65,9.31h-3.6l3-17.05Z"/>
        <path class="cls-1" d="m278.91,105.37h3.6l-3.02,17.05h-3.6l3.02-17.05Zm2.5-7.26c1.44,0,2.35.9,2.35,2.15s-1.02,2.19-2.45,2.19-2.31-.89-2.31-2.13c0-1.31,1.02-2.21,2.4-2.21Z"/>
        <path class="cls-1" d="m288.9,99.24h3.6l-4.1,23.18h-3.61l4.11-23.18Z"/>
        <path class="cls-1" d="m304.95,119.1h-.23l-1.56,8.98h-3.6l3.98-22.71h3.58l-.52,2.85h.24c.58-1.47,2.05-3.08,4.82-3.08,3.47,0,5.87,2.39,5.87,6.34,0,.65-.03,1.42-.16,2.13l-.48,2.63c-.61,3.73-3.08,6.42-7.08,6.42-2.84,0-4.56-1.97-4.87-3.56Zm4.23.56c2.35,0,3.85-1.87,4.27-4.19l.39-2.11c.05-.37.08-.97.08-1.42,0-2.45-1.45-3.9-3.71-3.9s-3.87,1.81-4.32,4.47l-.34,2.06c-.06.39-.06.76-.06.87,0,2.85,1.94,4.23,3.69,4.23Z"/>
        <path class="cls-1" d="m322.8,105.37h3.42l-.52,2.84h.23c.58-1.58,2.19-3.1,4.66-3.1.66,0,1.29.15,1.58.23l-.69,3.23c-.37-.15-1.11-.27-1.66-.27-2.89,0-4.31,2.15-4.77,4.82l-1.65,9.31h-3.6l3-17.05Z"/>
        <path class="cls-1" d="m332.97,116.1c0-.92.14-1.84.26-2.48l.39-2.1c.73-4.18,3.86-6.44,7.79-6.44,4.97,0,6.95,3.73,6.55,7.26,0,.1-.32,1.95-.42,2.37h-10.97c-.08.31-.15.9-.15,1.4,0,1.92,1,3.74,3.66,3.74,1.89,0,3.11-.9,3.44-2.02h3.47c-.39,2.45-3.03,4.87-7.13,4.87s-6.89-2.21-6.89-6.61Zm11.58-4.11c.39-2.24-.74-4.11-3.24-4.11-1.87,0-3.56,1.1-4.08,3.52l-.21.97h7.48c.02-.06.05-.32.05-.37Z"/>
        <path class="cls-1" d="m358.36,105.08c4.1,0,6.45,2.35,6.45,4.74v.4h-3.23v-.18c0-1.05-1.08-2.37-3.21-2.37-1.9,0-2.97.98-2.97,2.18,0,1.58,1.79,2,3.71,2.63,2.53.82,4.64,1.94,4.64,4.89,0,3.52-2.92,5.39-6.92,5.39s-6.87-2.08-6.87-5.03c0-.06,0-.23.02-.27h3.29c0,.06.02.21.02.29.21,1.24,1.58,2.32,3.69,2.32s3.23-.98,3.23-2.37c0-1.56-1.52-2.03-3.36-2.6-1.89-.6-4.92-1.63-4.92-4.87,0-3.03,2.24-5.15,6.42-5.15Z"/>
        <path class="cls-1" d="m367.32,116.1c0-.92.14-1.84.26-2.48l.39-2.1c.73-4.18,3.86-6.44,7.79-6.44,4.97,0,6.95,3.73,6.55,7.26,0,.1-.32,1.95-.42,2.37h-10.97c-.08.31-.15.9-.15,1.4,0,1.92,1,3.74,3.66,3.74,1.89,0,3.11-.9,3.44-2.02h3.47c-.39,2.45-3.03,4.87-7.13,4.87s-6.89-2.21-6.89-6.61Zm11.58-4.11c.39-2.24-.74-4.11-3.24-4.11-1.87,0-3.56,1.1-4.08,3.52l-.21.97h7.48c.02-.06.05-.32.05-.37Z"/>
        <path class="cls-1" d="m389.02,119.1h-.23l-1.56,8.98h-3.6l3.98-22.71h3.58l-.52,2.85h.24c.58-1.47,2.05-3.08,4.82-3.08,3.47,0,5.87,2.39,5.87,6.34,0,.65-.03,1.42-.16,2.13l-.48,2.63c-.61,3.73-3.08,6.42-7.08,6.42-2.84,0-4.56-1.97-4.87-3.56Zm4.23.56c2.36,0,3.86-1.87,4.27-4.19l.39-2.11c.05-.37.08-.97.08-1.42,0-2.45-1.45-3.9-3.71-3.9s-3.87,1.81-4.32,4.47l-.34,2.06c-.06.39-.06.76-.06.87,0,2.85,1.94,4.23,3.69,4.23Z"/>
        <path class="cls-1" d="m404.26,116.1c0-.92.14-1.84.26-2.48l.39-2.1c.73-4.18,3.86-6.44,7.79-6.44,4.97,0,6.95,3.73,6.55,7.26,0,.1-.32,1.95-.42,2.37h-10.97c-.08.31-.15.9-.15,1.4,0,1.92,1,3.74,3.66,3.74,1.89,0,3.11-.9,3.44-2.02h3.47c-.39,2.45-3.03,4.87-7.13,4.87s-6.89-2.21-6.89-6.61Zm11.58-4.11c.39-2.24-.74-4.11-3.24-4.11-1.87,0-3.56,1.1-4.08,3.52l-.21.97h7.48c.02-.06.05-.32.05-.37Z"/>
        <path class="cls-1" d="m423.36,110.02l3.05-9.61h3.92l-3.87,9.61h-3.1Zm7.18,0l3.05-9.61h3.92l-3.87,9.61h-3.1Z"/>
      </g>
    </g>
    <g>
      <g>
        <path class="cls-1" d="m112.1,19.92V1.98c0-1.05.61-1.7,1.64-1.7h6.28c4.1,0,6.95,2.82,6.95,6.93,0,4.12-2.91,6.96-7.05,6.96h-4.53s0,5.75,0,5.75c0,1.05-.63,1.7-1.64,1.7-1.02,0-1.64-.64-1.64-1.7Zm7.04-8.5c2.85,0,4.48-1.54,4.48-4.2,0-2.66-1.62-4.18-4.46-4.18h-3.77s0,8.38,0,8.38h3.76Z"/>
        <path class="cls-1" d="m129.45,20V7.31c0-.97.61-1.59,1.51-1.59.88,0,1.49.63,1.49,1.59v1.32s.07,0,.07,0c.42-1.73,1.84-2.88,3.38-2.88.56,0,.98.13,1.24.38.29.23.42.61.42,1.11,0,.5-.16.86-.47,1.11-.32.28-.79.41-1.45.41-2.16.01-3.04,1.46-3.04,3.38v7.85c0,1.02-.64,1.67-1.58,1.67-.95,0-1.58-.64-1.58-1.67Z"/>
        <path class="cls-1" d="m137.93,13.76c0-4.89,2.78-8.05,7.14-8.05,4.1,0,6.92,2.95,6.92,7.15,0,1.02-.59,1.61-1.57,1.61h-9.3s0,.07,0,.07c0,2.81,1.58,4.56,4.1,4.56,1.73,0,2.81-.6,3.98-2.19.34-.39.66-.56,1.11-.56.76,0,1.32.5,1.32,1.29,0,.25-.09.54-.22.85-1.01,2.02-3.25,3.17-6.11,3.17-4.64,0-7.36-2.94-7.36-7.91Zm10.9-1.49c-.07-2.41-1.58-4.01-3.77-4.01-2.18,0-3.76,1.61-3.92,4.01h7.69Z"/>
        <path class="cls-1" d="m154.12,18.55c-.1-.23-.13-.45-.13-.66,0-.79.57-1.26,1.36-1.26.53,0,.98.25,1.37.83.79,1.24,1.71,1.8,3.54,1.8,1.8,0,3.01-.78,3.01-2.05,0-1.01-.6-1.55-2.25-1.95l-2.43-.57c-2.98-.7-4.45-2.16-4.45-4.36,0-2.78,2.41-4.62,6.07-4.62,2.78,0,5.06,1.42,5.5,3.23.03.18.06.32.06.47,0,.7-.44,1.17-1.23,1.17-.51,0-.97-.18-1.27-.67-.69-1.17-1.62-1.78-3.17-1.78-1.7,0-2.87.83-2.87,2.03,0,.97.75,1.64,2.37,2.02l2.38.56c3.23.75,4.48,1.9,4.48,4.18,0,2.85-2.56,4.75-6.36,4.75-3.03,0-5.25-1.24-5.98-3.13Z"/>
        <path class="cls-1" d="m168.22,13.76c0-4.89,2.78-8.05,7.14-8.05,4.1,0,6.92,2.95,6.92,7.15,0,1.02-.59,1.61-1.57,1.61h-9.3s0,.07,0,.07c0,2.81,1.58,4.56,4.1,4.56,1.73,0,2.81-.6,3.98-2.19.34-.39.66-.56,1.11-.56.76,0,1.32.5,1.32,1.29,0,.25-.09.54-.22.85-1.01,2.02-3.25,3.17-6.11,3.17-4.64,0-7.36-2.94-7.36-7.91Zm10.9-1.49c-.07-2.41-1.58-4.01-3.77-4.01-2.18,0-3.76,1.61-3.92,4.01h7.69Z"/>
        <path class="cls-1" d="m184.72,25.16V7.34c0-1.01.63-1.62,1.52-1.62.89,0,1.54.61,1.54,1.62v1.3s.06,0,.06,0c.91-1.77,2.68-2.9,4.9-2.9,3.91,0,6.48,3.07,6.48,7.94,0,4.87-2.56,7.96-6.42,7.96-2.21,0-3.96-1.08-4.84-2.79h-.07v6.3c0,1.04-.66,1.68-1.58,1.68-.94,0-1.58-.64-1.58-1.68Zm11.25-11.47c0-3.22-1.57-5.28-4.07-5.28-2.41,0-4.04,2.11-4.04,5.28,0,3.2,1.61,5.28,4.04,5.28,2.5,0,4.07-2.05,4.07-5.28Z"/>
        <path class="cls-1" d="m201.5,1.86c0-1.01.82-1.8,1.83-1.8,1.02,0,1.84.79,1.84,1.8,0,.99-.82,1.81-1.84,1.81-1.01,0-1.83-.82-1.83-1.81Zm.25,18.14V7.4c0-1.02.63-1.68,1.58-1.68s1.58.66,1.58,1.68v12.59c0,1.01-.63,1.67-1.58,1.67-.95,0-1.58-.66-1.58-1.67Z"/>
      </g>
      <g>
        <path class="cls-1" d="m224.28,19.88l-6.66-17.48c-.12-.34-.18-.63-.18-.92,0-.88.67-1.48,1.67-1.48.83,0,1.35.38,1.62,1.23l5.78,16.43h.09l5.78-16.44C232.67.35,233.13,0,233.96,0c.98,0,1.67.61,1.67,1.46,0,.28-.06.57-.18.89l-6.67,17.54c-.45,1.2-1.1,1.68-2.25,1.68s-1.81-.5-2.25-1.7Z"/>
        <path class="cls-1" d="m237.3,1.81c0-1.01.82-1.8,1.83-1.8,1.02,0,1.84.79,1.84,1.8,0,.99-.82,1.81-1.84,1.81s-1.83-.82-1.83-1.81Zm.25,18.14V7.36c0-1.02.63-1.68,1.58-1.68.95,0,1.58.66,1.58,1.68v12.59c0,1.01-.63,1.67-1.58,1.67-.95,0-1.58-.66-1.58-1.67Z"/>
        <path class="cls-1" d="m244.33,24.35c-.2-.35-.29-.67-.29-1.04,0-.73.54-1.26,1.35-1.26.48,0,.79.16,1.21.59,1.26,1.32,2.34,1.89,3.85,1.92,2.57.03,4.14-1.43,4.14-3.58v-2.44s-.07,0-.07,0c-.86,1.67-2.68,2.76-4.87,2.76-3.88,0-6.39-3.03-6.39-7.78,0-4.81,2.49-7.81,6.47-7.81,2.18,0,3.88,1.1,4.81,2.84h.06v-1.24c0-1.02.69-1.62,1.59-1.62.91,0,1.58.6,1.58,1.62v13.62c0,3.8-2.79,6.26-7.37,6.22-2.79-.03-5-1.11-6.06-2.78Zm10.27-10.81c0-3.16-1.64-5.24-4.11-5.24-2.43,0-4.01,2.02-4.01,5.22,0,3.22,1.58,5.19,4.01,5.19,2.47,0,4.11-2.02,4.11-5.18Z"/>
        <path class="cls-1" d="m260.17,13.72c0-4.89,2.78-8.05,7.14-8.05,4.1,0,6.92,2.95,6.92,7.15,0,1.02-.59,1.61-1.57,1.61h-9.3s0,.07,0,.07c0,2.81,1.58,4.56,4.1,4.56,1.73,0,2.81-.6,3.98-2.19.34-.39.66-.56,1.11-.56.76,0,1.32.5,1.32,1.29,0,.25-.09.54-.22.85-1.01,2.02-3.25,3.17-6.11,3.17-4.64,0-7.36-2.94-7.36-7.91Zm10.9-1.49c-.07-2.41-1.58-4.01-3.77-4.01-2.18,0-3.76,1.61-3.92,4.01h7.69Z"/>
        <path class="cls-1" d="m280.35,20.01l-4.56-12.01c-.1-.28-.18-.59-.18-.88,0-.88.67-1.45,1.59-1.45.73,0,1.23.39,1.49,1.24l3.82,11.34h.06l3.82-11.37c.26-.82.76-1.21,1.48-1.21.91,0,1.55.6,1.55,1.43,0,.28-.06.59-.16.85l-4.56,12.05c-.41,1.11-1.08,1.61-2.16,1.61s-1.74-.47-2.18-1.61Z"/>
        <path class="cls-1" d="m290.6,16.97c0-2.69,2.08-4.34,5.72-4.55l4.23-.25v-1.18c0-1.71-1.16-2.74-3.09-2.74-1.52,0-2.53.54-3.41,1.95-.32.47-.73.67-1.29.67-.79,0-1.36-.53-1.36-1.32,0-.32.09-.67.28-1.02.8-1.74,3.13-2.85,5.89-2.85,3.73,0,6.11,1.97,6.11,5.06v9.29c0,.99-.63,1.59-1.52,1.59-.88,0-1.48-.57-1.51-1.51v-1.3s-.07,0-.07,0c-.89,1.71-2.85,2.79-4.86,2.79-3.01,0-5.13-1.87-5.13-4.64Zm9.95-1.39v-1.21s-3.8.23-3.8.23c-1.89.13-2.95.97-2.95,2.28,0,1.35,1.13,2.22,2.81,2.22,2.21,0,3.95-1.52,3.95-3.53Z"/>
        <path class="cls-1" d="m306.75,19.95V7.27c0-.97.59-1.59,1.51-1.59.91,0,1.54.63,1.54,1.61v1.21s.07,0,.07,0c.83-1.76,2.44-2.81,4.81-2.81,3.39,0,5.34,2.16,5.34,5.69v8.57c0,1.04-.66,1.67-1.59,1.67s-1.58-.63-1.58-1.67v-7.96c0-2.31-1.08-3.58-3.28-3.58-2.22,0-3.66,1.58-3.66,3.96v7.58c0,1.04-.66,1.67-1.58,1.67-.94,0-1.58-.63-1.58-1.67Z"/>
        <path class="cls-1" d="m322.37,13.65c0-4.94,2.91-7.97,7.3-7.97,4.39,0,7.3,3.03,7.3,7.97,0,4.96-2.9,7.99-7.3,7.99-4.4,0-7.3-3.03-7.3-7.99Zm11.38,0c0-3.41-1.61-5.37-4.08-5.37-2.47,0-4.08,1.96-4.08,5.37,0,3.42,1.61,5.38,4.08,5.38,2.49,0,4.08-1.96,4.08-5.38Z"/>
      </g>
    </g>
  </g>
</svg>