<?xml version="1.0" encoding="UTF-8"?>
<svg id="Livello_2" data-name="Livello 2" xmlns="http://www.w3.org/2000/svg" viewBox="0 0 442.65 339.91">
  <defs>
    <style>
      .cls-1 {
        fill: none;
        stroke: #fff;
        stroke-linejoin: round;
        stroke-width: 1.3px;
      }

      .cls-2 {
        fill: #de2531;
      }

      .cls-2, .cls-3 {
        stroke-width: 0px;
      }

      .cls-3 {
        fill: #fff;
      }
    </style>
  </defs>
  <g id="Livello_1-2" data-name="Livello 1">
    <g>
      <path class="cls-3" d="m22.96,75.26c0,5.86-3.83,10.3-10.55,10.3h-6.25v10.44H0v-31.12h12.45c6.73,0,10.51,4.56,10.51,10.37Zm-11.69-5.47h-5.13v10.94h5.13c3.4,0,5.43-2.01,5.43-5.47s-2.03-5.47-5.43-5.47Z"/>
      <path class="cls-3" d="m51.13,74.74c0,4.56-2.83,7.64-5.65,8.73l6.25,12.54h-6.88l-5.45-11.6h-5.52v11.6h-6.09v-31.12h12.42c6.91,0,10.92,3.9,10.92,9.85Zm-11.9,5.04c3.42,0,5.54-1.64,5.54-4.92s-2.19-5.13-5.45-5.13h-5.45v10.05h5.36Z"/>
      <path class="cls-3" d="m77.03,96.01h-20.04v-31.12h20.04v5.04h-13.93v7.98h13.11v4.72h-13.11v8.34h13.93v5.04Z"/>
      <path class="cls-3" d="m87.19,87.53c.41,2.42,2.74,4.19,6.41,4.19s5.86-1.76,5.86-4.31c0-2.17-1.55-3.28-4.79-4.04l-4.81-1.12c-4.83-1.09-7.89-3.88-7.89-8.59,0-5.7,4.76-9.42,11.63-9.42s11.22,3.99,11.51,8.78h-5.84c-.39-2.23-2.42-3.94-5.72-3.94s-5.43,1.76-5.43,4.17c0,1.87,1.53,3.1,4.26,3.69l4.83,1.12c5.04,1.14,8.37,3.56,8.37,8.78,0,5.79-4.45,9.76-12.33,9.76s-11.74-4.15-12.01-9.07h5.95Z"/>
      <path class="cls-3" d="m131.19,96.01h-20.04v-31.12h20.04v5.04h-13.93v7.98h13.11v4.72h-13.11v8.34h13.93v5.04Z"/>
      <path class="cls-3" d="m160.28,75.26c0,5.86-3.83,10.3-10.55,10.3h-6.25v10.44h-6.15v-31.12h12.45c6.73,0,10.51,4.56,10.51,10.37Zm-11.69-5.47h-5.13v10.94h5.13c3.4,0,5.43-2.01,5.43-5.47s-2.03-5.47-5.43-5.47Z"/>
      <path class="cls-3" d="m165.11,96.01v-31.12h6.15v31.12h-6.15Z"/>
      <path class="cls-3" d="m194.72,75.35c.08.05.12.12.1.19l-4.6,16.27c-.21.87-.32,1.38-.32,1.55,0,.23.05.43.14.59.08.18.27.27.57.27.52,0,1.2-.45,2.05-1.34.5-.53,1.12-1.29,1.85-2.28l.59.5-.23.32c-1.14,1.6-2.08,2.74-2.83,3.44-1.17,1.09-2.31,1.64-3.42,1.64-.65,0-1.2-.27-1.63-.82-.43-.55-.65-1.19-.65-1.94,0-.44.03-.82.09-1.15.06-.33.17-.81.34-1.45l3.24-11.71c.05-.18.08-.35.11-.5.03-.15.05-.3.05-.46,0-.55-.2-.88-.6-1.01-.4-.13-1.2-.19-2.38-.19v-.75c1.25-.15,2.15-.27,2.7-.35.55-.08,1.1-.17,1.66-.26.72-.12,1.41-.26,2.06-.41s1.01-.2,1.1-.15Zm-2.15-5.71c-.44-.49-.66-1.07-.66-1.75s.22-1.29.66-1.78c.44-.49.97-.73,1.6-.73s1.16.24,1.61.73c.45.49.67,1.08.67,1.78s-.22,1.29-.67,1.77c-.45.48-.98.72-1.61.72s-1.15-.24-1.6-.73Z"/>
      <path class="cls-3" d="m197.24,96.01l3.9-14.08c.33-1.19.53-1.91.58-2.17.05-.25.08-.52.08-.81,0-.44-.12-.79-.38-1.04-.25-.25-.74-.38-1.47-.38-.18,0-.36.01-.54.03-.17.02-.37.05-.58.08v-.75c.98-.15,1.68-.27,2.09-.34.42-.08.86-.17,1.35-.27l4.05-.89c.09.06.15.13.18.21l-3.02,9.8c1.87-2.84,3.43-4.95,4.68-6.34,2.2-2.45,4.18-3.67,5.92-3.67.67,0,1.25.13,1.74.39.93.5,1.4,1.41,1.4,2.71,0,.36-.04.74-.11,1.14-.08.4-.17.82-.3,1.28l-3,10.92c-.06.23-.13.51-.21.83-.08.33-.11.56-.11.7,0,.23.05.43.16.62.11.18.28.27.51.27.38,0,.82-.23,1.31-.69.5-.46,1.3-1.46,2.43-2.97l.66.59c-1.22,1.69-2.19,2.87-2.9,3.56-1.22,1.2-2.39,1.8-3.51,1.8-.51,0-1-.17-1.47-.51s-.71-.96-.71-1.86c0-.26.02-.53.06-.82.04-.29.09-.54.15-.75l2.91-11.08c.15-.61.25-1.11.31-1.49.05-.39.08-.66.08-.83,0-.36-.09-.68-.26-.95-.17-.27-.49-.4-.93-.4-1.15,0-2.61,1.03-4.36,3.1-1.03,1.23-2.08,2.69-3.14,4.39-.79,1.32-1.42,2.61-1.87,3.86-.46,1.25-1.18,3.53-2.18,6.84h-3.5Z"/>
      <path class="cls-3" d="m237.62,82.44c0,5.74,2.48,8.96,6.84,8.96,3.58,0,5.9-2.26,6.16-5.45h5.95v.59c-.3,5.95-5.33,10.05-12.15,10.05-8.37,0-13.06-5.33-13.06-14.16v-3.88c0-8.82,4.74-14.27,13.06-14.27,6.84,0,11.88,4.22,12.15,10.37v.57h-5.95c-.25-3.31-2.62-5.75-6.16-5.75-4.31,0-6.84,3.33-6.84,9.1v3.85Z"/>
      <path class="cls-3" d="m259.3,96.01l10.44-31.12h7.2l10.4,31.12h-6.54l-2.44-8h-10.4l-2.44,8h-6.22Zm13.75-25.17l-3.81,12.58h7.89l-3.81-12.58h-.27Z"/>
      <path class="cls-3" d="m295.2,87.53c.41,2.42,2.74,4.19,6.41,4.19s5.86-1.76,5.86-4.31c0-2.17-1.55-3.28-4.79-4.04l-4.81-1.12c-4.83-1.09-7.89-3.88-7.89-8.59,0-5.7,4.76-9.42,11.63-9.42s11.22,3.99,11.51,8.78h-5.84c-.39-2.23-2.42-3.94-5.72-3.94s-5.43,1.76-5.43,4.17c0,1.87,1.53,3.1,4.26,3.69l4.83,1.12c5.04,1.14,8.37,3.56,8.37,8.78,0,5.79-4.45,9.76-12.33,9.76s-11.74-4.15-12.01-9.07h5.95Z"/>
      <path class="cls-3" d="m325.13,96.01v-25.97h-8.82v-5.15h23.85v5.15h-8.84v25.97h-6.18Z"/>
      <path class="cls-3" d="m364.32,96.01h-20.04v-31.12h20.04v5.04h-13.93v7.98h13.11v4.72h-13.11v8.34h13.93v5.04Z"/>
      <path class="cls-3" d="m389.81,96.01h-19.35v-31.12h6.16v25.87h13.2v5.24Z"/>
      <path class="cls-3" d="m413.61,96.01h-19.35v-31.12h6.16v25.87h13.2v5.24Z"/>
      <path class="cls-3" d="m429.34,96.6c-8.32,0-13.34-5.36-13.34-14.13v-3.99c0-8.84,5.01-14.18,13.34-14.18s13.31,5.38,13.31,14.18v3.99c0,8.78-4.99,14.13-13.31,14.13Zm0-27.17c-4.13,0-7.07,3.01-7.07,9v4.06c0,6,2.94,8.98,7.07,8.98s7.07-2.99,7.07-8.98v-4.06c0-6-2.96-9-7.07-9Z"/>
    </g>
    <g>
      <path class="cls-3" d="m4.42,166.79h1.82c1.56,0,2.68-1.02,2.66-2.4,0-1.39-1.14-2.33-2.66-2.33s-2.62,1.04-2.69,2.16H.38c.09-2.69,2.2-4.78,5.96-4.79,3.6-.01,5.85,1.89,5.89,4.49.05,2.44-1.92,3.75-3.18,3.95v.18c1.56.15,3.67,1.38,3.71,4.11.04,3.27-2.97,5.16-6.52,5.16-3.91,0-6.1-2.22-6.18-4.85h3.13c.09,1.24,1.35,2.16,3.07,2.17,1.89,0,3.14-1.1,3.12-2.64-.01-1.5-1.19-2.59-3.04-2.59h-1.91v-2.62Z"/>
      <path class="cls-3" d="m15.52,167.97c0-5.16,2.47-8.56,6.59-8.56s6.51,3.34,6.51,8.56v.77c0,5.16-2.49,8.56-6.57,8.56s-6.52-3.36-6.52-8.56v-.77Zm3.41.74c0,3.63,1.2,5.8,3.14,5.8s3.14-2.17,3.14-5.8v-.73c0-3.62-1.19-5.78-3.14-5.78s-3.14,2.16-3.14,5.78v.73Z"/>
      <path class="cls-3" d="m33.84,172.93c1.26,0,2.23.87,2.23,2.17s-.98,2.12-2.23,2.12-2.2-.84-2.2-2.12.97-2.17,2.2-2.17Z"/>
      <path class="cls-3" d="m43.31,176.97v-13.94h-.16l-3.91,2.78v-3.13l4.08-2.93h3.38v17.22h-3.38Z"/>
      <path class="cls-3" d="m55.35,176.97v-13.94h-.16l-3.91,2.78v-3.13l4.08-2.93h3.38v17.22h-3.38Z"/>
      <path class="cls-3" d="m65.51,172.93c1.26,0,2.23.87,2.23,2.17s-.98,2.12-2.23,2.12-2.2-.84-2.2-2.12.97-2.17,2.2-2.17Z"/>
      <path class="cls-3" d="m70.83,164.88v-.16c0-2.62,1.89-5.3,5.89-5.3,3.56,0,5.88,2.08,5.88,4.82,0,2.37-1.53,3.84-3.03,5.48l-3.91,4.32v.16h7.23v2.78h-11.9v-2.12l6.3-6.79c.92-.98,1.93-2.08,1.93-3.51s-1.1-2.41-2.57-2.41c-1.63,0-2.59,1.2-2.59,2.55v.19h-3.23Z"/>
      <path class="cls-3" d="m85.58,167.97c0-5.16,2.47-8.56,6.59-8.56s6.51,3.34,6.51,8.56v.77c0,5.16-2.49,8.56-6.57,8.56s-6.52-3.36-6.52-8.56v-.77Zm3.41.74c0,3.63,1.2,5.8,3.14,5.8s3.14-2.17,3.14-5.8v-.73c0-3.62-1.19-5.78-3.14-5.78s-3.14,2.16-3.14,5.78v.73Z"/>
      <path class="cls-3" d="m101.63,164.88v-.16c0-2.62,1.89-5.3,5.89-5.3,3.56,0,5.88,2.08,5.88,4.82,0,2.37-1.53,3.84-3.03,5.48l-3.91,4.32v.16h7.23v2.78h-11.9v-2.12l6.3-6.79c.92-.98,1.93-2.08,1.93-3.51s-1.1-2.41-2.57-2.41c-1.63,0-2.59,1.2-2.59,2.55v.19h-3.23Z"/>
      <path class="cls-3" d="m127.56,159.75v11.28h2.11v2.75h-2.11v3.19h-3.19v-3.19h-8.34v-2.79c2.02-3.79,4.37-7.52,6.62-11.24h4.91Zm-3.19,11.28v-8.71h-.18c-1.73,2.74-3.52,5.69-5.07,8.62v.09h5.25Z"/>
      <path class="cls-3" d="m137.27,171.38v-2.95h7.95v2.95h-7.95Z"/>
      <path class="cls-3" d="m144.51,171.38v-2.95h7.95v2.95h-7.95Z"/>
      <path class="cls-3" d="m151.75,171.38v-2.95h7.95v2.95h-7.95Z"/>
      <path class="cls-3" d="m158.99,171.38v-2.95h7.95v2.95h-7.95Z"/>
      <path class="cls-3" d="m166.24,171.38v-2.95h7.95v2.95h-7.95Z"/>
      <path class="cls-3" d="m173.48,171.38v-2.95h7.95v2.95h-7.95Z"/>
      <path class="cls-3" d="m180.72,171.38v-2.95h7.95v2.95h-7.95Z"/>
      <path class="cls-3" d="m187.96,171.38v-2.95h7.95v2.95h-7.95Z"/>
      <path class="cls-3" d="m195.21,171.38v-2.95h7.95v2.95h-7.95Z"/>
      <path class="cls-3" d="m212.4,176.97v-13.94h-.16l-3.91,2.78v-3.13l4.08-2.93h3.38v17.22h-3.38Z"/>
      <path class="cls-3" d="m220.28,164.88v-.16c0-2.62,1.89-5.3,5.89-5.3,3.56,0,5.88,2.08,5.88,4.82,0,2.37-1.53,3.84-3.03,5.48l-3.91,4.32v.16h7.23v2.78h-11.9v-2.12l6.3-6.79c.92-.98,1.93-2.08,1.93-3.51s-1.1-2.41-2.57-2.41c-1.63,0-2.59,1.2-2.59,2.55v.19h-3.23Z"/>
      <path class="cls-3" d="m237.38,172.93c1.26,0,2.23.87,2.23,2.17s-.98,2.12-2.23,2.12-2.2-.84-2.2-2.12.97-2.17,2.2-2.17Z"/>
      <path class="cls-3" d="m242.63,167.97c0-5.16,2.47-8.56,6.59-8.56s6.51,3.34,6.51,8.56v.77c0,5.16-2.49,8.56-6.57,8.56s-6.52-3.36-6.52-8.56v-.77Zm3.41.74c0,3.63,1.2,5.8,3.14,5.8s3.14-2.17,3.14-5.8v-.73c0-3.62-1.19-5.78-3.14-5.78s-3.14,2.16-3.14,5.78v.73Z"/>
      <path class="cls-3" d="m262.83,176.97v-13.94h-.16l-3.91,2.78v-3.13l4.08-2.93h3.38v17.22h-3.38Z"/>
      <path class="cls-3" d="m272.98,172.93c1.26,0,2.23.87,2.23,2.17s-.98,2.12-2.23,2.12-2.2-.84-2.2-2.12.97-2.17,2.2-2.17Z"/>
      <path class="cls-3" d="m278.31,164.88v-.16c0-2.62,1.89-5.3,5.89-5.3,3.56,0,5.88,2.08,5.88,4.82,0,2.37-1.53,3.84-3.03,5.48l-3.91,4.32v.16h7.23v2.78h-11.9v-2.12l6.3-6.79c.92-.98,1.93-2.08,1.93-3.51s-1.1-2.41-2.57-2.41c-1.63,0-2.59,1.2-2.59,2.55v.19h-3.23Z"/>
      <path class="cls-3" d="m293.06,167.97c0-5.16,2.47-8.56,6.59-8.56s6.51,3.34,6.51,8.56v.77c0,5.16-2.49,8.56-6.57,8.56s-6.52-3.36-6.52-8.56v-.77Zm3.41.74c0,3.63,1.2,5.8,3.14,5.8s3.14-2.17,3.14-5.8v-.73c0-3.62-1.19-5.78-3.14-5.78s-3.14,2.16-3.14,5.78v.73Z"/>
      <path class="cls-3" d="m309.1,164.88v-.16c0-2.62,1.89-5.3,5.89-5.3,3.56,0,5.88,2.08,5.88,4.82,0,2.37-1.53,3.84-3.03,5.48l-3.91,4.32v.16h7.23v2.78h-11.9v-2.12l6.3-6.79c.92-.98,1.93-2.08,1.93-3.51s-1.1-2.41-2.57-2.41c-1.63,0-2.59,1.2-2.59,2.55v.19h-3.23Z"/>
      <path class="cls-3" d="m327.19,172.55c.25,1.36,1.6,2.06,3.03,2.06,1.63,0,3.13-1.21,3.13-3.31,0-1.89-1.41-3.1-3.13-3.1-1.53,0-2.46.91-2.83,1.59h-2.98l.72-10.04h10.55v2.75h-7.82l-.38,4.57h.18c.34-.55,1.51-1.46,3.46-1.46,2.97,0,5.53,2.01,5.53,5.59s-2.62,6.11-6.49,6.11c-3.6,0-5.98-2.04-6.09-4.75h3.13Z"/>
    </g>
    <g>
      <path class="cls-3" d="m14.11,121.41c-.58-2.37-2.48-3.83-5.17-3.83-3.64,0-5.83,2.71-5.83,7.27v3c0,4.66,2.16,7.38,5.93,7.38,3.51,0,5.3-2,5.3-4.74v-2.06h-5.56v-2.53h8.44v4.53c0,4.25-2.92,7.43-8.17,7.43-5.69,0-8.91-3.71-8.91-10.01v-3c0-6.06,3.35-9.89,8.86-9.89,4.43,0,7.51,2.63,8.07,6.46h-2.96Z"/>
      <path class="cls-3" d="m21.7,120.45h2.92v2.61h.15c.42-1.11,1.64-2.87,4.64-2.87.37,0,.73.03,1.06.08v2.66c-.27-.06-.85-.1-1.37-.1-2.98,0-4.46,1.79-4.46,4.09v10.47h-2.93v-16.95Z"/>
      <path class="cls-3" d="m47.3,137.4h-2.88v-2.82h-.16c-.48,1.38-2.08,3.09-5.04,3.09-3.4,0-5.8-1.53-5.8-5.46v-11.76h2.92v10.97c0,2.82,1.68,3.71,3.69,3.71,2.48,0,4.37-1.82,4.37-4v-10.68h2.92v16.95Z"/>
      <path class="cls-3" d="m55.29,134.88h-.15v8.14h-2.92v-22.59h2.8v2.71h.15c.69-1.82,2.64-2.95,5.08-2.95,3.98,0,6.48,2.8,6.48,7.27v2.92c0,4.5-2.53,7.28-6.57,7.28-2.34,0-4.08-.98-4.87-2.77Zm8.51-5.04v-1.8c0-3.4-1.56-5.35-4.32-5.35s-4.33,1.87-4.33,4.93v2.95c0,2.72,1.8,4.59,4.42,4.59s4.24-1.93,4.24-5.32Z"/>
      <path class="cls-3" d="m73.93,134.88h-.15v8.14h-2.92v-22.59h2.8v2.71h.15c.69-1.82,2.64-2.95,5.08-2.95,3.98,0,6.48,2.8,6.48,7.27v2.92c0,4.5-2.53,7.28-6.57,7.28-2.34,0-4.08-.98-4.87-2.77Zm8.51-5.04v-1.8c0-3.4-1.56-5.35-4.32-5.35s-4.33,1.87-4.33,4.93v2.95c0,2.72,1.8,4.59,4.42,4.59s4.24-1.93,4.24-5.32Z"/>
      <path class="cls-3" d="m103.32,127.65v2.51c0,4.79-3.11,7.51-7.32,7.51s-7.33-2.68-7.33-7.51v-2.5c0-4.58,3.09-7.49,7.33-7.49s7.32,2.76,7.32,7.48Zm-11.73.26v2.05c0,3.14,1.6,5.25,4.43,5.25s4.37-2.11,4.37-5.25v-2.05c0-3.09-1.64-5.25-4.37-5.25s-4.43,2.16-4.43,5.25Z"/>
      <path class="cls-3" d="m121.26,115.4l-3.09,9.35h-3.43l3.9-9.35h2.63Zm6.8,0l-3.11,9.35h-3.42l3.9-9.35h2.63Z"/>
      <path class="cls-3" d="m128.78,137.4l3.88-22.01h7.22c4.25,0,6.54,2.55,6.54,5.83,0,.34-.03.85-.1,1.31-.56,4.27-3.43,6.62-8.94,6.62h-4.17l-1.45,8.25h-2.98Zm6.41-19.46l-1.53,8.62h4c4.01,0,5.43-1.92,5.67-4.06.05-.32.08-.77.08-1.06,0-1.93-1.13-3.5-4.09-3.5h-4.12Z"/>
      <path class="cls-3" d="m146.91,132.93c0-.19,0-.43.03-.69.27-2.85,2.53-4.79,6.86-4.79h4.53l.16-1.05c.03-.18.06-.5.06-.77,0-1.43-.87-3.05-3.51-3.05-2.03,0-3.14.92-3.51,2.01h-2.84c.47-2.55,2.82-4.43,6.57-4.43,4.03,0,6.11,2.19,6.11,5.29,0,.85-.16,1.79-.31,2.61l-1.66,9.33h-2.82l.4-2.29h-.19c-.61,1.21-2.26,2.56-4.79,2.56-2.8,0-5.11-1.74-5.11-4.74Zm5.96,2.35c2.26,0,4.27-1.52,4.64-3.59l.37-2.05h-4.17c-2.66,0-3.85,1.43-3.85,3s1.08,2.64,3.01,2.64Z"/>
      <path class="cls-3" d="m163.68,134.82l10.8-11.81.05-.21h-9.18l.45-2.35h12.63l-.45,2.58-10.76,11.75-.03.21h9.17l-.44,2.42h-12.7l.47-2.58Z"/>
      <path class="cls-3" d="m178.61,134.82l10.8-11.81.05-.21h-9.18l.45-2.35h12.63l-.45,2.58-10.76,11.75-.03.21h9.17l-.44,2.42h-12.7l.47-2.58Z"/>
      <path class="cls-3" d="m197.19,120.45h2.95l-3,16.95h-2.95l3-16.95Zm2.11-7.15c1.22,0,2.09.84,2.09,2s-.9,2-2.13,2c-1.16,0-2.05-.84-2.05-1.98s.9-2.01,2.08-2.01Z"/>
      <path class="cls-3" d="m212.52,134.03h-.21l-1.56,8.99h-2.95l3.96-22.58h2.92l-.5,2.72h.21c.53-1.29,1.92-2.98,4.82-2.98,3.51,0,5.98,2.38,5.98,6.32,0,.6-.02,1.34-.15,2l-.55,3.03c-.55,3.43-3.03,6.12-7.06,6.12-2.9,0-4.62-2.14-4.91-3.63Zm4.61,1.06c2.58,0,4.22-2.03,4.66-4.4l.42-2.38c.06-.4.08-.98.08-1.43,0-2.69-1.61-4.27-4.12-4.27s-4.22,1.97-4.67,4.75l-.39,2.3c-.06.4-.06.74-.06.81,0,3.16,2.21,4.62,4.09,4.62Z"/>
      <path class="cls-3" d="m227.62,131.23c0-.97.15-1.95.26-2.58l.44-2.34c.69-3.92,3.64-6.14,7.51-6.14,5.14,0,6.75,4,6.25,7.15,0,.03-.37,2.14-.42,2.3h-11.07c-.08.29-.16.89-.16,1.45,0,2.08,1.05,4.11,3.98,4.11,2.06,0,3.38-1,3.72-2.11h2.88c-.39,2.24-2.9,4.59-6.8,4.59s-6.59-2.21-6.59-6.45Zm11.67-4.06c.47-2.51-.79-4.61-3.56-4.61-2,0-3.93,1.16-4.48,3.82l-.23,1.08h8.22s.05-.27.05-.29Z"/>
      <path class="cls-3" d="m247.19,120.45h2.79l-.52,2.84h.21c.61-1.58,2.29-3.11,4.8-3.11.5,0,1.11.1,1.4.15l-.58,2.72c-.35-.13-1.02-.19-1.45-.19-3,0-4.53,2.27-5.03,4.99l-1.68,9.56h-2.95l3-16.95Z"/>
      <path class="cls-3" d="m266,120.45h2.95l-3,16.95h-2.95l3-16.95Zm2.11-7.15c1.22,0,2.09.84,2.09,2s-.9,2-2.13,2c-1.16,0-2.05-.84-2.05-1.98s.9-2.01,2.08-2.01Z"/>
      <path class="cls-3" d="m275.28,114.24h2.95l-4.11,23.15h-2.95l4.11-23.15Z"/>
      <path class="cls-3" d="m289.52,134.03h-.21l-1.56,8.99h-2.95l3.96-22.58h2.92l-.5,2.72h.21c.53-1.29,1.92-2.98,4.82-2.98,3.51,0,5.98,2.38,5.98,6.32,0,.6-.02,1.34-.15,2l-.55,3.03c-.55,3.43-3.03,6.12-7.06,6.12-2.9,0-4.62-2.14-4.91-3.63Zm4.61,1.06c2.58,0,4.22-2.03,4.66-4.4l.42-2.38c.06-.4.08-.98.08-1.43,0-2.69-1.61-4.27-4.12-4.27s-4.22,1.97-4.67,4.75l-.39,2.3c-.06.4-.06.74-.06.81,0,3.16,2.21,4.62,4.09,4.62Z"/>
      <path class="cls-3" d="m307.27,120.45h2.79l-.52,2.84h.21c.61-1.58,2.29-3.11,4.8-3.11.5,0,1.11.1,1.4.15l-.58,2.72c-.35-.13-1.02-.19-1.45-.19-3,0-4.53,2.27-5.03,4.99l-1.68,9.56h-2.95l3-16.95Z"/>
      <path class="cls-3" d="m316.53,131.23c0-.97.15-1.95.26-2.58l.44-2.34c.69-3.92,3.64-6.14,7.51-6.14,5.14,0,6.75,4,6.25,7.15,0,.03-.37,2.14-.42,2.3h-11.07c-.08.29-.16.89-.16,1.45,0,2.08,1.05,4.11,3.98,4.11,2.06,0,3.38-1,3.72-2.11h2.88c-.39,2.24-2.9,4.59-6.8,4.59s-6.59-2.21-6.59-6.45Zm11.67-4.06c.47-2.51-.79-4.61-3.56-4.61-2,0-3.93,1.16-4.48,3.82l-.23,1.08h8.22s.05-.27.05-.29Z"/>
      <path class="cls-3" d="m340.89,120.17c4.04,0,6.19,2.43,6.19,4.66v.32h-2.71v-.13c0-1.13-1.16-2.61-3.5-2.61-2.06,0-3.24,1.1-3.24,2.38,0,1.66,1.72,2.18,3.62,2.8,2.51.81,4.72,1.84,4.72,4.87,0,3.38-2.63,5.27-6.61,5.27s-6.66-2.26-6.66-4.95v-.18h2.77c0,.08.02.21.03.29.24,1.26,1.71,2.45,4.03,2.45s3.53-1.08,3.53-2.64c0-1.72-1.61-2.22-3.46-2.8-1.82-.56-4.85-1.59-4.85-4.75,0-2.98,2.18-4.98,6.12-4.98Z"/>
      <path class="cls-3" d="m349.35,131.23c0-.97.15-1.95.26-2.58l.44-2.34c.69-3.92,3.64-6.14,7.51-6.14,5.14,0,6.75,4,6.25,7.15,0,.03-.37,2.14-.42,2.3h-11.07c-.08.29-.16.89-.16,1.45,0,2.08,1.05,4.11,3.98,4.11,2.06,0,3.38-1,3.72-2.11h2.88c-.39,2.24-2.9,4.59-6.8,4.59s-6.59-2.21-6.59-6.45Zm11.67-4.06c.47-2.51-.79-4.61-3.56-4.61-2,0-3.93,1.16-4.48,3.82l-.23,1.08h8.22s.05-.27.05-.29Z"/>
      <path class="cls-3" d="m369.67,134.03h-.21l-1.56,8.99h-2.95l3.96-22.58h2.92l-.5,2.72h.21c.53-1.29,1.92-2.98,4.82-2.98,3.51,0,5.98,2.38,5.98,6.32,0,.6-.02,1.34-.15,2l-.55,3.03c-.55,3.43-3.03,6.12-7.06,6.12-2.9,0-4.62-2.14-4.91-3.63Zm4.61,1.06c2.58,0,4.22-2.03,4.66-4.4l.42-2.38c.06-.4.08-.98.08-1.43,0-2.69-1.61-4.27-4.12-4.27s-4.22,1.97-4.67,4.75l-.39,2.3c-.06.4-.06.74-.06.81,0,3.16,2.21,4.62,4.09,4.62Z"/>
      <path class="cls-3" d="m384.76,131.23c0-.97.14-1.95.26-2.58l.43-2.34c.69-3.92,3.64-6.14,7.51-6.14,5.14,0,6.75,4,6.25,7.15,0,.03-.37,2.14-.42,2.3h-11.07c-.08.29-.16.89-.16,1.45,0,2.08,1.05,4.11,3.98,4.11,2.06,0,3.38-1,3.72-2.11h2.88c-.39,2.24-2.9,4.59-6.8,4.59s-6.59-2.21-6.59-6.45Zm11.67-4.06c.47-2.51-.79-4.61-3.56-4.61-2,0-3.93,1.16-4.48,3.82l-.23,1.08h8.22s.05-.27.05-.29Z"/>
      <path class="cls-3" d="m403.14,124.75l3.11-9.35h3.42l-3.9,9.35h-2.63Zm6.8,0l3.11-9.35h3.42l-3.9,9.35h-2.63Z"/>
    </g>
    <g>
      <g>
        <path class="cls-3" d="m112.08,19.92V1.98c0-1.05.61-1.7,1.64-1.7h6.28c4.1,0,6.95,2.82,6.95,6.93,0,4.12-2.91,6.96-7.05,6.96h-4.53s0,5.75,0,5.75c0,1.05-.63,1.7-1.64,1.7-1.02,0-1.64-.64-1.64-1.7Zm7.04-8.5c2.85,0,4.48-1.54,4.48-4.2,0-2.66-1.62-4.18-4.46-4.18h-3.77s0,8.38,0,8.38h3.76Z"/>
        <path class="cls-3" d="m129.43,20V7.31c0-.97.61-1.59,1.51-1.59.88,0,1.49.63,1.49,1.59v1.32s.07,0,.07,0c.42-1.73,1.84-2.88,3.38-2.88.56,0,.98.13,1.24.38.29.23.42.61.42,1.11,0,.5-.16.86-.47,1.11-.32.28-.79.41-1.45.41-2.16.01-3.04,1.46-3.04,3.38v7.85c0,1.02-.64,1.67-1.58,1.67-.95,0-1.58-.64-1.58-1.67Z"/>
        <path class="cls-3" d="m137.91,13.76c0-4.89,2.78-8.05,7.14-8.05,4.1,0,6.92,2.95,6.92,7.15,0,1.02-.59,1.61-1.57,1.61h-9.3s0,.07,0,.07c0,2.81,1.58,4.56,4.1,4.56,1.73,0,2.81-.6,3.98-2.19.34-.39.66-.56,1.11-.56.76,0,1.32.5,1.32,1.29,0,.25-.09.54-.22.85-1.01,2.02-3.25,3.17-6.11,3.17-4.64,0-7.36-2.94-7.36-7.91Zm10.9-1.49c-.07-2.41-1.58-4.01-3.77-4.01-2.18,0-3.76,1.61-3.92,4.01h7.69Z"/>
        <path class="cls-3" d="m154.11,18.55c-.1-.23-.13-.45-.13-.66,0-.79.57-1.26,1.36-1.26.53,0,.98.25,1.37.83.79,1.24,1.71,1.8,3.54,1.8,1.8,0,3.01-.78,3.01-2.05,0-1.01-.6-1.55-2.25-1.95l-2.43-.57c-2.98-.7-4.45-2.16-4.45-4.36,0-2.78,2.41-4.62,6.07-4.62,2.78,0,5.06,1.42,5.5,3.23.03.18.06.32.06.47,0,.7-.44,1.17-1.23,1.17-.51,0-.97-.18-1.27-.67-.69-1.17-1.62-1.78-3.17-1.78-1.7,0-2.87.83-2.87,2.03,0,.97.75,1.64,2.37,2.02l2.38.56c3.23.75,4.48,1.9,4.48,4.18,0,2.85-2.56,4.75-6.36,4.75-3.03,0-5.25-1.24-5.98-3.13Z"/>
        <path class="cls-3" d="m168.21,13.76c0-4.89,2.78-8.05,7.14-8.05,4.1,0,6.92,2.95,6.92,7.15,0,1.02-.59,1.61-1.57,1.61h-9.3s0,.07,0,.07c0,2.81,1.58,4.56,4.1,4.56,1.73,0,2.81-.6,3.98-2.19.34-.39.66-.56,1.11-.56.76,0,1.32.5,1.32,1.29,0,.25-.09.54-.22.85-1.01,2.02-3.25,3.17-6.11,3.17-4.64,0-7.36-2.94-7.36-7.91Zm10.9-1.49c-.07-2.41-1.58-4.01-3.77-4.01-2.18,0-3.76,1.61-3.92,4.01h7.69Z"/>
        <path class="cls-3" d="m184.71,25.16V7.34c0-1.01.63-1.62,1.52-1.62.89,0,1.54.61,1.54,1.62v1.3s.06,0,.06,0c.91-1.77,2.68-2.9,4.9-2.9,3.91,0,6.48,3.07,6.48,7.94,0,4.87-2.56,7.96-6.42,7.96-2.21,0-3.96-1.08-4.84-2.79h-.07v6.3c0,1.04-.66,1.68-1.58,1.68-.94,0-1.58-.64-1.58-1.68Zm11.25-11.47c0-3.22-1.57-5.28-4.07-5.28-2.41,0-4.04,2.11-4.04,5.28,0,3.2,1.61,5.28,4.04,5.28,2.5,0,4.07-2.05,4.07-5.28Z"/>
        <path class="cls-3" d="m201.48,1.86c0-1.01.82-1.8,1.83-1.8,1.02,0,1.84.79,1.84,1.8,0,.99-.82,1.81-1.84,1.81-1.01,0-1.83-.82-1.83-1.81Zm.25,18.14V7.4c0-1.02.63-1.68,1.58-1.68s1.58.66,1.58,1.68v12.59c0,1.01-.63,1.67-1.58,1.67-.95,0-1.58-.66-1.58-1.67Z"/>
      </g>
      <g>
        <path class="cls-3" d="m224.26,19.88l-6.66-17.48c-.12-.34-.18-.63-.18-.92,0-.88.67-1.48,1.67-1.48.83,0,1.35.38,1.62,1.23l5.78,16.43h.09l5.78-16.44C232.66.35,233.11,0,233.95,0c.98,0,1.67.61,1.67,1.46,0,.28-.06.57-.18.89l-6.67,17.54c-.45,1.2-1.1,1.68-2.25,1.68s-1.81-.5-2.25-1.7Z"/>
        <path class="cls-3" d="m237.28,1.81c0-1.01.82-1.8,1.83-1.8,1.02,0,1.84.79,1.84,1.8s-.82,1.81-1.84,1.81-1.83-.82-1.83-1.81Zm.25,18.14V7.36c0-1.02.63-1.68,1.58-1.68.95,0,1.58.66,1.58,1.68v12.59c0,1.01-.63,1.67-1.58,1.67-.95,0-1.58-.66-1.58-1.67Z"/>
        <path class="cls-3" d="m244.32,24.35c-.2-.35-.29-.67-.29-1.04,0-.73.54-1.26,1.35-1.26.48,0,.79.16,1.21.59,1.26,1.32,2.34,1.89,3.85,1.92,2.57.03,4.14-1.43,4.14-3.58v-2.44s-.07,0-.07,0c-.86,1.67-2.68,2.76-4.87,2.76-3.88,0-6.39-3.03-6.39-7.78,0-4.81,2.49-7.81,6.47-7.81,2.18,0,3.88,1.1,4.81,2.84h.06v-1.24c0-1.02.69-1.62,1.59-1.62.91,0,1.58.6,1.58,1.62v13.62c0,3.8-2.79,6.26-7.37,6.22-2.79-.03-5-1.11-6.06-2.78Zm10.27-10.81c0-3.16-1.64-5.24-4.11-5.24-2.43,0-4.01,2.02-4.01,5.22,0,3.22,1.58,5.19,4.01,5.19,2.47,0,4.11-2.02,4.11-5.18Z"/>
        <path class="cls-3" d="m260.16,13.72c0-4.89,2.78-8.05,7.14-8.05,4.1,0,6.92,2.95,6.92,7.15,0,1.02-.59,1.61-1.57,1.61h-9.3s0,.07,0,.07c0,2.81,1.58,4.56,4.1,4.56,1.73,0,2.81-.6,3.98-2.19.34-.39.66-.56,1.11-.56.76,0,1.32.5,1.32,1.29,0,.25-.09.54-.22.85-1.01,2.02-3.25,3.17-6.11,3.17-4.64,0-7.36-2.94-7.36-7.91Zm10.9-1.49c-.07-2.41-1.58-4.01-3.77-4.01-2.18,0-3.76,1.61-3.92,4.01h7.69Z"/>
        <path class="cls-3" d="m280.33,20.01l-4.56-12.01c-.1-.28-.18-.59-.18-.88,0-.88.67-1.45,1.59-1.45.73,0,1.23.39,1.49,1.24l3.82,11.34h.06l3.82-11.37c.26-.82.76-1.21,1.48-1.21.91,0,1.55.6,1.55,1.43,0,.28-.06.59-.16.85l-4.56,12.05c-.41,1.11-1.08,1.61-2.16,1.61s-1.74-.47-2.18-1.61Z"/>
        <path class="cls-3" d="m290.58,16.97c0-2.69,2.08-4.34,5.72-4.55l4.23-.25v-1.18c0-1.71-1.16-2.74-3.09-2.74-1.52,0-2.53.54-3.41,1.95-.32.47-.73.67-1.29.67-.79,0-1.36-.53-1.36-1.32,0-.32.09-.67.28-1.02.8-1.74,3.13-2.85,5.89-2.85,3.73,0,6.11,1.97,6.11,5.06v9.29c0,.99-.63,1.59-1.52,1.59-.88,0-1.48-.57-1.51-1.51v-1.3s-.07,0-.07,0c-.89,1.71-2.85,2.79-4.86,2.79-3.01,0-5.13-1.87-5.13-4.64Zm9.95-1.39v-1.21s-3.8.23-3.8.23c-1.89.13-2.95.97-2.95,2.28,0,1.35,1.13,2.22,2.81,2.22,2.21,0,3.95-1.52,3.95-3.53Z"/>
        <path class="cls-3" d="m306.73,19.95V7.27c0-.97.59-1.59,1.51-1.59.91,0,1.54.63,1.54,1.61v1.21s.07,0,.07,0c.83-1.76,2.44-2.81,4.81-2.81,3.39,0,5.34,2.16,5.34,5.69v8.57c0,1.04-.66,1.67-1.59,1.67s-1.58-.63-1.58-1.67v-7.96c0-2.31-1.08-3.58-3.28-3.58-2.22,0-3.66,1.58-3.66,3.96v7.58c0,1.04-.66,1.67-1.58,1.67-.94,0-1.58-.63-1.58-1.67Z"/>
        <path class="cls-3" d="m322.36,13.65c0-4.94,2.91-7.97,7.3-7.97,4.39,0,7.3,3.03,7.3,7.97,0,4.96-2.9,7.99-7.3,7.99-4.4,0-7.3-3.03-7.3-7.99Zm11.38,0c0-3.41-1.61-5.37-4.08-5.37-2.47,0-4.08,1.96-4.08,5.37s1.61,5.38,4.08,5.38c2.49,0,4.08-1.96,4.08-5.38Z"/>
      </g>
    </g>
    <g>
      <path class="cls-1" d="m51.63,252.5v1.23l8.13,3.81.93-1.75,34.47,14.66-3.95,5.78,2.99,2.41-6.46,11.27-3.95,16.96,2.7.96-2,11.95,4.31,5.49,43.74,13.97,6.74-.87,42.39-39.12,1.83.48,10.02-13.1,1.25-10.31-3.95-15.22h-2.99l2.02,13.1h-3.85l-1.54-23.7h3.47l-.77-7.03-20.91-29.97-7.13-7.52-21.2,21.58-1.75-1.73,8.16-10.7-1.97-1.75-19.73,23.68-20.16-14.75-5.55,5.37,15.27,10.92-16.65,24.2-31.87-13.31v-1.36l-7.98-3.92-.9,1.36L3.73,224.8l-2.02,7.01,49.91,20.69Zm44.42,34.99l4.86-8.2,17.72,10.73-.91,1.72,5.27,3.04,4.76-7.8-22.28-13.77,16.2-24.3,20.43,12.38,4.31-7.5-5.14-3.19-.75,1.46-13.6-8.52,1.8-2.62-3.5-2.36,9.07-10.75,5.9,4.92,15.73-15.4,22.61,31.46,1.64,38.67-46.53,45.88-41.44-13.03,8.61-29.57-4.76-3.24Z"/>
      <polygon class="cls-3" points="55.04 259.42 41.19 271.97 49.42 272.43 55.04 278.11 55.04 259.42"/>
    </g>
    <g>
      <path class="cls-3" d="m217.11,238.19c0,.06,0,.14,0,.21,0,1.03,1.07,1.89,2.63,1.89,1.32,0,2.43-.64,2.43-1.81,0-1.05-.94-1.44-2.08-1.84l-.95-.31c-1.69-.58-3.34-1.57-3.34-3.74,0-2.62,2.23-4.07,4.99-4.07s4.7,1.49,4.7,3.66c0,.1-.02.31-.02.36h-2.41s0-.07,0-.16c0-1.14-1.09-1.78-2.29-1.78s-2.25.58-2.25,1.69c0,.95.88,1.46,2.11,1.88l1.08.36c1.61.57,3.17,1.36,3.17,3.56,0,2.73-2.29,4.25-5.26,4.25-2.74,0-5.05-1.45-5.05-3.75,0-.15,0-.29.04-.43h2.5Z"/>
      <path class="cls-3" d="m229.56,229.28h2.49l-.45,2.58h2.18l-.35,1.97h-2.15l-.77,4.41c-.11.62-.14.84-.14,1.03,0,.7.39.99,1.21.99.38,0,.8-.04,1.04-.09l-.34,1.88c-.27.07-.9.15-1.54.15-2,0-3.03-.69-3.03-2.14,0-.28.04-.67.11-1.09l.91-5.14h-1.49l.35-1.97h1.51l.47-2.58Z"/>
      <path class="cls-3" d="m236.31,231.76h2.44l-.3,1.71h.15c.34-.97,1.27-1.88,2.73-1.88.5,0,.9.13,1.06.19l-.48,2.28c-.23-.11-.74-.21-1.14-.21-1.67,0-2.46,1.22-2.74,2.8l-.97,5.48h-2.58l1.83-10.36Z"/>
      <path class="cls-3" d="m242.62,239.35c0-.08,0-.17,0-.27.11-1.95,1.7-3.06,4.23-3.06h2.53l.11-.68c.02-.09.04-.24.04-.37,0-.73-.5-1.46-1.7-1.46-.96,0-1.52.45-1.7,1.04h-2.43c.24-1.58,1.65-2.97,4.31-2.97,2.52,0,4,1.27,4,3.37,0,.37-.07.82-.14,1.23l-1.05,5.93h-2.43l.24-1.35h-.14c-.36.72-1.29,1.5-2.78,1.5-1.72,0-3.1-1.06-3.1-2.92Zm4.08,1.04c1.05,0,2-.69,2.19-1.68l.21-1.14h-2c-1.28,0-1.9.67-1.9,1.47s.59,1.35,1.51,1.35Z"/>
      <path class="cls-3" d="m261.53,233.77h.14l1.01-5.68h2.6l-2.48,14.03h-2.57l.29-1.69h-.15c-.32.89-1.34,1.81-2.92,1.81-2.09,0-3.52-1.46-3.52-3.87,0-.44.04-.94.12-1.36l.26-1.34c.45-2.42,1.92-4.05,4.27-4.05,1.68,0,2.78,1.09,2.95,2.15Zm-2.3-.1c-1.28,0-2.07,1-2.33,2.4l-.21,1.1c-.03.17-.06.51-.06.8,0,1.38.76,2.21,1.98,2.21s2.12-1.01,2.38-2.54l.2-1.09c.04-.21.05-.48.05-.63,0-1.5-1-2.25-2-2.25Z"/>
      <path class="cls-3" d="m265.71,239.35c0-.08,0-.17,0-.27.11-1.95,1.7-3.06,4.23-3.06h2.53l.11-.68c.02-.09.04-.24.04-.37,0-.73-.5-1.46-1.7-1.46-.96,0-1.52.45-1.7,1.04h-2.43c.24-1.58,1.65-2.97,4.31-2.97,2.52,0,4,1.27,4,3.37,0,.37-.07.82-.14,1.23l-1.05,5.93h-2.43l.24-1.35h-.14c-.36.72-1.29,1.5-2.78,1.5-1.72,0-3.1-1.06-3.1-2.92Zm4.08,1.04c1.05,0,2-.69,2.19-1.68l.21-1.14h-2c-1.28,0-1.9.67-1.9,1.47s.59,1.35,1.51,1.35Z"/>
      <path class="cls-3" d="m283.83,238.19c0,.06,0,.14,0,.21,0,1.03,1.07,1.89,2.63,1.89,1.32,0,2.43-.64,2.43-1.81,0-1.05-.94-1.44-2.08-1.84l-.95-.31c-1.69-.58-3.34-1.57-3.34-3.74,0-2.62,2.23-4.07,4.99-4.07s4.7,1.49,4.7,3.66c0,.1-.02.31-.02.36h-2.41s0-.07,0-.16c0-1.14-1.09-1.78-2.29-1.78s-2.25.58-2.25,1.69c0,.95.88,1.46,2.11,1.88l1.08.36c1.61.57,3.17,1.36,3.17,3.56,0,2.73-2.29,4.25-5.26,4.25-2.74,0-5.05-1.45-5.05-3.75,0-.15,0-.29.04-.43h2.5Z"/>
      <path class="cls-3" d="m293.99,235.61c.46-2.51,2.37-4.04,4.88-4.04,2.79,0,4.64,1.68,4.64,4.35,0,.44-.03.86-.11,1.25l-.21,1.07c-.49,2.51-2.24,4.06-4.95,4.06s-4.56-1.61-4.56-4.24c0-.5.03-.97.11-1.39l.2-1.06Zm2.4,1.47c-.05.29-.09.59-.09.96,0,1.35.77,2.25,2.05,2.25,1.21,0,2.01-.9,2.29-2.5l.19-1.14c.05-.3.06-.72.06-.88,0-1.3-.77-2.19-2.03-2.19-1.14,0-2.01.78-2.29,2.43l-.18,1.07Z"/>
      <path class="cls-3" d="m307.82,229.28h2.49l-.45,2.58h2.18l-.35,1.97h-2.15l-.77,4.41c-.11.62-.14.84-.14,1.03,0,.7.39.99,1.21.99.38,0,.8-.04,1.04-.09l-.34,1.88c-.27.07-.9.15-1.54.15-2,0-3.03-.69-3.03-2.14,0-.28.04-.67.11-1.09l.91-5.14h-1.49l.35-1.97h1.51l.47-2.58Z"/>
      <path class="cls-3" d="m315.64,229.28h2.49l-.45,2.58h2.18l-.35,1.97h-2.15l-.77,4.41c-.11.62-.14.84-.14,1.03,0,.7.39.99,1.21.99.38,0,.8-.04,1.04-.09l-.34,1.88c-.27.07-.9.15-1.54.15-2,0-3.03-.69-3.03-2.14,0-.28.04-.67.11-1.09l.91-5.14h-1.49l.35-1.97h1.51l.47-2.58Z"/>
      <path class="cls-3" d="m320.85,238.2c0-.52.07-1.05.15-1.46l.2-1.11c.48-2.7,2.46-4.06,4.89-4.06,2.89,0,4.34,2.08,4.14,4.44,0,.09-.15,1.06-.24,1.47h-6.56c-.05.21-.09.56-.09.82,0,1.06.57,2.02,2.02,2.02,1.03,0,1.72-.48,1.89-1.14h2.45c-.22,1.6-1.89,3.12-4.5,3.12-2.46,0-4.35-1.35-4.35-4.1Zm6.94-2.52c.18-1.2-.43-2.19-1.77-2.19-1.04,0-1.92.62-2.22,1.94l-.11.51h4.05c.02-.07.04-.21.04-.26Z"/>
      <path class="cls-3" d="m333.46,231.76h2.44l-.3,1.71h.15c.34-.97,1.27-1.88,2.73-1.88.5,0,.9.13,1.06.19l-.48,2.28c-.23-.11-.74-.21-1.14-.21-1.67,0-2.46,1.22-2.74,2.8l-.97,5.48h-2.58l1.83-10.36Z"/>
      <path class="cls-3" d="m341.62,231.76h2.44l-.3,1.71h.15c.34-.97,1.27-1.88,2.73-1.88.5,0,.9.13,1.06.19l-.48,2.28c-.23-.11-.74-.21-1.14-.21-1.67,0-2.46,1.22-2.74,2.8l-.97,5.48h-2.58l1.83-10.36Z"/>
      <path class="cls-3" d="m347.94,239.35c0-.08,0-.17,0-.27.11-1.95,1.7-3.06,4.23-3.06h2.53l.11-.68c.02-.09.04-.24.04-.37,0-.73-.5-1.46-1.7-1.46-.96,0-1.52.45-1.7,1.04h-2.43c.24-1.58,1.65-2.97,4.31-2.97,2.52,0,4,1.27,4,3.37,0,.37-.07.82-.14,1.23l-1.05,5.93h-2.43l.24-1.35h-.14c-.36.72-1.29,1.5-2.78,1.5-1.72,0-3.1-1.06-3.1-2.92Zm4.08,1.04c1.05,0,2-.69,2.19-1.68l.21-1.14h-2c-1.28,0-1.9.67-1.9,1.47s.59,1.35,1.51,1.35Z"/>
      <path class="cls-3" d="m360.83,231.76h2.54l-.29,1.62h.15c.51-1.03,1.47-1.79,3-1.79,2.09,0,3.14,1.42,3.14,3.17,0,.62-.13,1.31-.22,1.86l-.97,5.5h-2.59l.99-5.63c.05-.28.11-.75.11-1.1,0-1.03-.55-1.76-1.6-1.76-1.38,0-2.17,1.06-2.44,2.61l-1.04,5.89h-2.59l1.82-10.36Z"/>
      <path class="cls-3" d="m371.32,238.2c0-.52.07-1.05.15-1.46l.2-1.11c.48-2.7,2.46-4.06,4.89-4.06,2.89,0,4.34,2.08,4.14,4.44,0,.09-.15,1.06-.24,1.47h-6.56c-.05.21-.09.56-.09.82,0,1.06.57,2.02,2.02,2.02,1.03,0,1.72-.48,1.89-1.14h2.45c-.22,1.6-1.89,3.12-4.5,3.12-2.46,0-4.35-1.35-4.35-4.1Zm6.94-2.52c.18-1.2-.43-2.19-1.77-2.19-1.04,0-1.92.62-2.22,1.94l-.11.51h4.05c.02-.07.04-.21.04-.26Z"/>
      <path class="cls-3" d="m382.1,239.35c0-.08,0-.17,0-.27.11-1.95,1.7-3.06,4.23-3.06h2.53l.11-.68c.02-.09.04-.24.04-.37,0-.73-.5-1.46-1.7-1.46-.96,0-1.52.45-1.7,1.04h-2.43c.24-1.58,1.65-2.97,4.31-2.97,2.52,0,4,1.27,4,3.37,0,.37-.07.82-.14,1.23l-1.05,5.93h-2.43l.24-1.35h-.14c-.36.72-1.29,1.5-2.78,1.5-1.72,0-3.1-1.06-3.1-2.92Zm4.08,1.04c1.05,0,2-.69,2.19-1.68l.21-1.14h-2c-1.28,0-1.9.67-1.9,1.47s.59,1.35,1.51,1.35Z"/>
      <path class="cls-3" d="m405.4,233.77h.14l1.01-5.68h2.6l-2.48,14.03h-2.57l.29-1.69h-.15c-.32.89-1.34,1.81-2.92,1.81-2.09,0-3.52-1.46-3.52-3.87,0-.44.04-.94.12-1.36l.26-1.34c.45-2.42,1.92-4.05,4.27-4.05,1.68,0,2.78,1.09,2.95,2.15Zm-2.3-.1c-1.28,0-2.07,1-2.33,2.4l-.21,1.1c-.03.17-.06.51-.06.8,0,1.38.76,2.21,1.98,2.21s2.12-1.01,2.38-2.54l.2-1.09c.04-.21.05-.48.05-.63,0-1.5-1-2.25-2-2.25Z"/>
      <path class="cls-3" d="m409.87,238.2c0-.52.07-1.05.15-1.46l.2-1.11c.48-2.7,2.46-4.06,4.89-4.06,2.89,0,4.34,2.08,4.14,4.44,0,.09-.15,1.06-.24,1.47h-6.56c-.05.21-.09.56-.09.82,0,1.06.57,2.02,2.02,2.02,1.03,0,1.72-.48,1.89-1.14h2.45c-.22,1.6-1.89,3.12-4.5,3.12-2.46,0-4.35-1.35-4.35-4.1Zm6.94-2.52c.18-1.2-.43-2.19-1.77-2.19-1.04,0-1.92.62-2.22,1.94l-.11.51h4.05c.02-.07.04-.21.04-.26Z"/>
      <path class="cls-3" d="m423.25,228.08h2.59l-2.49,14.03h-2.58l2.48-14.03Z"/>
      <path class="cls-3" d="m217.89,257.67c-.07.34-.12,1.02-.12,1.38,0,1.83.98,3.03,2.76,3.03,1.41,0,2.38-.79,2.64-2.02h2.52s-.04.26-.06.35c-.35,2.26-2.29,3.96-5.3,3.96-3.28,0-5.25-1.98-5.25-5.33,0-.32.02-.92.09-1.3l.38-2.04c.58-3.17,2.63-5.17,5.81-5.17s5.11,1.96,5.11,4.22c0,.21-.02.53-.09.71h-2.52c.02-.17.03-.34.02-.46-.09-1.27-1.12-2.22-2.54-2.22-1.6,0-2.71,1.06-3.14,3.32l-.3,1.56Z"/>
      <path class="cls-3" d="m227.31,261.35c0-.08,0-.17,0-.27.11-1.95,1.7-3.06,4.23-3.06h2.53l.11-.68c.02-.09.04-.24.04-.37,0-.73-.5-1.46-1.7-1.46-.96,0-1.52.45-1.7,1.04h-2.43c.24-1.58,1.65-2.97,4.31-2.97,2.52,0,4,1.27,4,3.37,0,.37-.07.82-.14,1.23l-1.05,5.93h-2.43l.24-1.35h-.14c-.36.72-1.29,1.5-2.78,1.5-1.72,0-3.1-1.06-3.1-2.92Zm4.08,1.04c1.05,0,2-.69,2.19-1.68l.21-1.14h-2c-1.28,0-1.9.67-1.9,1.47s.59,1.35,1.51,1.35Z"/>
      <path class="cls-3" d="m243.46,253.57c2.52,0,4.08,1.36,4.08,2.92,0,.06,0,.24,0,.27h-2.27v-.13c0-.59-.61-1.29-1.78-1.29-1.04,0-1.61.54-1.61,1.18,0,.91,1.11,1.11,2.29,1.49,1.53.5,2.77,1.22,2.77,2.97,0,2.21-1.97,3.33-4.4,3.33-2.28,0-4.28-1.16-4.28-3.09,0-.07,0-.2,0-.24h2.32s0,.13,0,.2c.1.73.87,1.31,2.02,1.31s1.77-.53,1.77-1.27c0-.84-.87-1.09-1.98-1.44-1.18-.37-3.01-1.02-3.01-3.01,0-1.88,1.41-3.21,4.05-3.21Z"/>
      <path class="cls-3" d="m251.73,251.28h2.49l-.45,2.58h2.18l-.35,1.97h-2.15l-.77,4.41c-.11.62-.14.84-.14,1.03,0,.7.39.99,1.21.99.38,0,.8-.04,1.04-.09l-.34,1.88c-.27.07-.9.15-1.54.15-2,0-3.03-.69-3.03-2.14,0-.28.04-.67.11-1.09l.91-5.14h-1.49l.35-1.97h1.51l.47-2.58Z"/>
      <path class="cls-3" d="m256.93,260.2c0-.52.07-1.05.15-1.46l.2-1.11c.48-2.7,2.46-4.06,4.89-4.06,2.89,0,4.34,2.08,4.14,4.44,0,.09-.15,1.06-.24,1.47h-6.56c-.05.21-.09.56-.09.82,0,1.06.57,2.02,2.02,2.02,1.03,0,1.72-.48,1.89-1.14h2.45c-.22,1.6-1.89,3.12-4.5,3.12-2.46,0-4.35-1.35-4.35-4.1Zm6.94-2.52c.18-1.2-.43-2.19-1.77-2.19-1.04,0-1.92.62-2.22,1.94l-.11.51h4.05c.02-.07.04-.21.04-.26Z"/>
      <path class="cls-3" d="m270.31,250.08h2.59l-2.49,14.03h-2.58l2.48-14.03Z"/>
      <path class="cls-3" d="m276.04,250.08h2.59l-2.49,14.03h-2.58l2.48-14.03Z"/>
      <path class="cls-3" d="m279.8,257.61c.46-2.51,2.37-4.04,4.88-4.04,2.79,0,4.64,1.68,4.64,4.35,0,.44-.03.86-.11,1.25l-.21,1.07c-.49,2.51-2.24,4.06-4.95,4.06s-4.56-1.61-4.56-4.24c0-.5.03-.97.11-1.39l.2-1.06Zm2.4,1.47c-.05.29-.09.59-.09.96,0,1.35.77,2.25,2.05,2.25,1.21,0,2.01-.9,2.29-2.5l.19-1.14c.05-.3.06-.72.06-.88,0-1.3-.77-2.19-2.03-2.19-1.14,0-2.01.78-2.29,2.43l-.18,1.07Z"/>
      <path class="cls-3" d="m302.97,255.77h.14l1.01-5.68h2.6l-2.48,14.03h-2.57l.29-1.69h-.15c-.32.89-1.34,1.81-2.92,1.81-2.09,0-3.52-1.46-3.52-3.87,0-.44.04-.94.12-1.36l.26-1.34c.45-2.42,1.92-4.05,4.27-4.05,1.68,0,2.78,1.09,2.95,2.15Zm-2.3-.1c-1.28,0-2.07,1-2.33,2.4l-.21,1.1c-.03.17-.06.51-.06.8,0,1.38.76,2.21,1.98,2.21s2.12-1.01,2.38-2.54l.2-1.09c.04-.21.05-.48.05-.63,0-1.5-1-2.25-2-2.25Z"/>
      <path class="cls-3" d="m309.1,253.76h2.59l-1.84,10.36h-2.59l1.84-10.36Zm1.76-4.46c.99,0,1.59.59,1.59,1.4,0,.86-.69,1.44-1.68,1.44s-1.57-.57-1.57-1.38c0-.87.69-1.46,1.66-1.46Z"/>
      <path class="cls-3" d="m320.56,264.12l-2.11-13.33h2.89l1.18,10.64h.14l4.94-10.64h2.91l-6.76,13.33h-3.19Z"/>
      <path class="cls-3" d="m331.85,253.76h2.59l-1.84,10.36h-2.59l1.84-10.36Zm1.76-4.46c.99,0,1.59.59,1.59,1.4,0,.86-.69,1.44-1.68,1.44s-1.57-.57-1.57-1.38c0-.87.69-1.46,1.66-1.46Z"/>
      <path class="cls-3" d="m343.56,255.72h.14l.34-1.94h2.57l-1.82,10.38c-.45,2.51-2.22,3.75-5.05,3.75s-4.34-1.48-4.34-3.07c0-.08,0-.19.02-.21h2.41s.02.12.03.15c.08.63.88,1.2,2,1.2,1.53,0,2.2-.79,2.46-2.29l.23-1.38h-.16c-.37.86-1.36,1.57-2.83,1.57-1.98,0-3.55-1.47-3.55-3.96,0-.32.03-.97.13-1.42l.17-.86c.58-2.81,2.32-4.03,4.26-4.03,1.65,0,2.7.94,2.99,2.1Zm-2.35-.05c-1.22,0-2.06.95-2.33,2.48l-.13.7c-.05.22-.11.68-.11.94,0,1.38.73,2.26,2.03,2.26,1.15,0,2.06-.93,2.33-2.49l.13-.77c.08-.43.09-.79.09-.91,0-1.35-.82-2.21-2.01-2.21Z"/>
      <path class="cls-3" d="m348,260.2c0-.52.07-1.05.15-1.46l.2-1.11c.48-2.7,2.46-4.06,4.89-4.06,2.89,0,4.34,2.08,4.14,4.44,0,.09-.15,1.06-.24,1.47h-6.56c-.05.21-.09.56-.09.82,0,1.06.57,2.02,2.02,2.02,1.03,0,1.72-.48,1.89-1.14h2.45c-.22,1.6-1.89,3.12-4.5,3.12-2.46,0-4.35-1.35-4.35-4.1Zm6.94-2.52c.18-1.2-.43-2.19-1.77-2.19-1.04,0-1.92.62-2.22,1.94l-.11.51h4.05c.02-.07.04-.21.04-.26Z"/>
      <path class="cls-3" d="m359.53,253.76h2.69l.79,7.98h.12l3.42-7.98h2.69l-5.09,10.36h-2.95l-1.66-10.36Z"/>
      <path class="cls-3" d="m369.49,261.35c0-.08,0-.17,0-.27.11-1.95,1.7-3.06,4.23-3.06h2.53l.11-.68c.02-.09.04-.24.04-.37,0-.73-.5-1.46-1.7-1.46-.96,0-1.52.45-1.7,1.04h-2.43c.24-1.58,1.65-2.97,4.31-2.97,2.52,0,4,1.27,4,3.37,0,.37-.07.82-.14,1.23l-1.05,5.93h-2.43l.24-1.35h-.14c-.36.72-1.29,1.5-2.78,1.5-1.72,0-3.1-1.06-3.1-2.92Zm4.08,1.04c1.05,0,2-.69,2.19-1.68l.21-1.14h-2c-1.28,0-1.9.67-1.9,1.47s.59,1.35,1.51,1.35Z"/>
      <path class="cls-3" d="m382.38,253.76h2.54l-.29,1.62h.15c.51-1.03,1.47-1.79,3-1.79,2.09,0,3.14,1.42,3.14,3.17,0,.62-.13,1.31-.22,1.86l-.97,5.5h-2.59l.99-5.63c.05-.28.11-.75.11-1.1,0-1.03-.55-1.76-1.6-1.76-1.38,0-2.17,1.06-2.44,2.61l-1.04,5.89h-2.59l1.82-10.36Z"/>
      <path class="cls-3" d="m393.2,257.61c.46-2.51,2.37-4.04,4.88-4.04,2.79,0,4.64,1.68,4.64,4.35,0,.44-.03.86-.11,1.25l-.21,1.07c-.49,2.51-2.24,4.06-4.95,4.06s-4.56-1.61-4.56-4.24c0-.5.03-.97.11-1.39l.2-1.06Zm2.4,1.47c-.05.29-.09.59-.09.96,0,1.35.77,2.25,2.05,2.25,1.21,0,2.01-.9,2.29-2.5l.19-1.14c.05-.3.06-.72.06-.88,0-1.3-.77-2.19-2.03-2.19-1.14,0-2.01.78-2.29,2.43l-.18,1.07Z"/>
    </g>
    <rect class="cls-3" x="214.56" y="280.64" width="184.67" height="29.22" rx="7.56" ry="7.56"/>
    <g>
      <path class="cls-2" d="m223.49,302.51v-14.06h2.34v14.06h-2.34Z"/>
      <path class="cls-2" d="m229.32,302.51v-14.06h2.06l6.56,10.09h.1v-10.09h2.25v14.06h-2.05l-6.58-10.12h-.09v10.12h-2.25Z"/>
      <path class="cls-2" d="m252.09,292.47c-.32-1.38-1.43-2.3-3.07-2.3-2.17,0-3.44,1.62-3.44,4.36v1.83c0,2.73,1.19,4.43,3.51,4.43,2.08,0,3.14-1.21,3.14-2.79v-1.11h-3.23v-1.84h5.48v2.85c0,2.72-1.83,4.89-5.4,4.89-3.84,0-5.86-2.5-5.86-6.42v-1.85c0-3.84,2.17-6.34,5.84-6.34,3.09,0,5.04,1.85,5.33,4.29h-2.31Z"/>
      <path class="cls-2" d="m267.52,292.77c0,2-1.15,3.41-2.59,3.93l2.84,5.8h-2.63l-2.52-5.41h-2.91v5.41h-2.31v-14.06h5.38c2.96,0,4.74,1.71,4.74,4.33Zm-5.13,2.47c1.72,0,2.72-.81,2.72-2.39s-1.03-2.49-2.66-2.49h-2.74v4.88h2.68Z"/>
      <path class="cls-2" d="m279.27,302.51h-8.78v-14.06h8.78v1.97h-6.45v4.01h6.07v1.88h-6.07v4.23h6.45v1.97Z"/>
      <path class="cls-2" d="m283.65,298.81c.23,1.21,1.39,2.05,3.13,2.05,1.84,0,2.91-.87,2.91-2.18,0-1.06-.71-1.64-2.23-2.01l-2.31-.58c-2.14-.51-3.44-1.79-3.44-3.79,0-2.48,2.1-4.16,5.08-4.16s4.87,1.67,5.05,3.82h-2.27c-.23-1.12-1.24-1.91-2.8-1.91-1.66,0-2.71.87-2.71,2.11,0,.92.69,1.53,1.95,1.83l2.3.57c2.37.58,3.73,1.71,3.73,3.9,0,2.58-2.02,4.32-5.43,4.32s-5.09-1.73-5.25-3.98h2.3Z"/>
      <path class="cls-2" d="m296.17,298.81c.23,1.21,1.39,2.05,3.13,2.05,1.84,0,2.91-.87,2.91-2.18,0-1.06-.71-1.64-2.23-2.01l-2.31-.58c-2.14-.51-3.44-1.79-3.44-3.79,0-2.48,2.1-4.16,5.08-4.16s4.87,1.67,5.05,3.82h-2.27c-.23-1.12-1.24-1.91-2.8-1.91-1.66,0-2.71.87-2.71,2.11,0,.92.69,1.53,1.95,1.83l2.3.57c2.37.58,3.73,1.71,3.73,3.9,0,2.58-2.02,4.32-5.43,4.32s-5.09-1.73-5.25-3.98h2.3Z"/>
      <path class="cls-2" d="m312.62,302.79c-3.6,0-5.85-2.37-5.85-6.34v-1.92c0-4,2.25-6.35,5.85-6.35s5.84,2.37,5.84,6.35v1.92c0,3.98-2.23,6.34-5.84,6.34Zm0-12.62c-2.01,0-3.48,1.43-3.48,4.34v1.95c0,2.92,1.47,4.35,3.48,4.35s3.47-1.43,3.47-4.35v-1.95c0-2.9-1.48-4.34-3.47-4.34Z"/>
      <path class="cls-2" d="m334.43,302.51h-8.53v-14.06h2.34v12.03h6.19v2.03Z"/>
      <path class="cls-2" d="m336.58,302.51v-14.06h2.34v14.06h-2.34Z"/>
      <path class="cls-2" d="m342.42,288.45h5.6c2.45,0,4.04,1.32,4.04,3.46,0,1.65-.93,2.7-2.34,3.09v.1c1.78.21,3.09,1.41,3.09,3.45,0,2.49-1.97,3.96-4.89,3.96h-5.5v-14.06Zm2.33,5.94h1.98c2.09,0,3.02-.7,3.02-2.09,0-1.25-.81-2-2.21-2h-2.78v4.09Zm0,6.26h2.24c2.45,0,3.45-.7,3.45-2.18s-.97-2.32-2.71-2.32h-2.98v4.5Z"/>
      <path class="cls-2" d="m364.32,302.51h-8.78v-14.06h8.78v1.97h-6.45v4.01h6.07v1.88h-6.07v4.23h6.45v1.97Z"/>
      <path class="cls-2" d="m377.46,292.77c0,2-1.15,3.41-2.58,3.93l2.84,5.8h-2.63l-2.52-5.41h-2.92v5.41h-2.31v-14.06h5.38c2.96,0,4.74,1.71,4.74,4.33Zm-5.13,2.47c1.72,0,2.72-.81,2.72-2.39s-1.03-2.49-2.66-2.49h-2.74v4.88h2.68Z"/>
      <path class="cls-2" d="m385.72,302.79c-3.6,0-5.85-2.37-5.85-6.34v-1.92c0-4,2.25-6.35,5.85-6.35s5.84,2.37,5.84,6.35v1.92c0,3.98-2.24,6.34-5.84,6.34Zm0-12.62c-2.01,0-3.48,1.43-3.48,4.34v1.95c0,2.92,1.47,4.35,3.48,4.35s3.47-1.43,3.47-4.35v-1.95c0-2.9-1.48-4.34-3.47-4.34Z"/>
    </g>
  </g>
</svg>