<?xml version="1.0" encoding="UTF-8"?>
<svg id="Layer_2" data-name="Layer 2" xmlns="http://www.w3.org/2000/svg" viewBox="0 0 436.14 123.58">
  <defs>
    <style>
      .cls-1 {
        stroke-linejoin: round;
        stroke-width: 1.44px;
      }

      .cls-1, .cls-2 {
        fill: none;
        stroke: #fff;
      }

      .cls-3 {
        fill: #fff;
      }

      .cls-2 {
        stroke-miterlimit: 10;
        stroke-width: 1.91px;
      }
    </style>
  </defs>
  <g id="Livello_1" data-name="Livello 1">
    <g>
      <path class="cls-1" d="M45.56,42.49v1.11l7.3,3.42.83-1.57,30.96,13.17-3.55,5.19,2.68,2.16-5.8,10.13-3.55,15.23,2.42.87-1.8,10.73,3.88,4.93,39.29,12.55,6.06-.78,38.08-35.14,1.64.43,9-11.77,1.13-9.26-3.55-13.67h-2.68l1.82,11.77h-3.46l-1.38-21.29h3.12l-.69-6.32-18.78-26.92-6.4-6.75-19.04,19.39-1.57-1.56,7.33-9.61-1.77-1.58-17.72,21.27-18.11-13.25-4.99,4.82,13.71,9.81-14.96,21.74-28.63-11.95v-1.22l-7.17-3.52-.81,1.22L2.53,17.61l-1.81,6.3,44.84,18.58ZM85.45,73.92l4.37-7.37,15.92,9.64-.82,1.55,4.73,2.73,4.28-7-20.01-12.37,14.55-21.83,18.35,11.12,3.87-6.74-4.62-2.86-.68,1.31-12.22-7.65,1.62-2.35-3.14-2.12,8.15-9.66,5.3,4.42,14.13-13.84,20.31,28.26,1.47,34.74-41.8,41.21-37.22-11.7,7.73-26.56-4.28-2.91Z"/>
      <polygon class="cls-3" points="48.62 48.7 36.18 59.97 43.57 60.39 48.61 65.49 48.62 48.7"/>
    </g>
    <g>
      <path class="cls-3" d="M206.54,11.84c-.01.06-.01.15-.01.24,0,1.13,1.18,2.08,2.89,2.08,1.45,0,2.67-.71,2.67-1.99,0-1.16-1.03-1.58-2.29-2.02l-1.04-.34c-1.86-.63-3.67-1.73-3.67-4.11,0-2.88,2.45-4.48,5.49-4.48s5.17,1.64,5.17,4.03c0,.11-.02.34-.02.4h-2.65s.01-.08.01-.17c0-1.26-1.2-1.96-2.52-1.96s-2.47.63-2.47,1.86c0,1.04.97,1.6,2.32,2.07l1.19.4c1.77.62,3.49,1.49,3.49,3.92,0,3.01-2.52,4.67-5.79,4.67-3.02,0-5.55-1.59-5.55-4.12,0-.16.01-.32.04-.47h2.75Z"/>
      <path class="cls-3" d="M220.24,2.03h2.74l-.49,2.84h2.4l-.39,2.17h-2.36l-.85,4.86c-.12.68-.15.92-.15,1.13,0,.77.43,1.08,1.33,1.08.42,0,.88-.04,1.14-.1l-.38,2.07c-.3.08-.99.16-1.7.16-2.2,0-3.33-.76-3.33-2.35,0-.31.04-.74.12-1.2l1-5.65h-1.64l.39-2.17h1.67l.52-2.84Z"/>
      <path class="cls-3" d="M227.66,4.76h2.69l-.33,1.88h.16c.38-1.06,1.4-2.06,3.01-2.06.55,0,.99.14,1.17.2l-.53,2.5c-.26-.12-.82-.24-1.26-.24-1.84,0-2.71,1.34-3.02,3.08l-1.06,6.03h-2.84l2.01-11.4Z"/>
      <path class="cls-3" d="M234.61,13.11c0-.09,0-.18.01-.3.12-2.15,1.87-3.36,4.65-3.36h2.78l.12-.75c.02-.1.04-.27.04-.41,0-.81-.55-1.6-1.87-1.6-1.05,0-1.68.49-1.87,1.15h-2.67c.27-1.74,1.82-3.27,4.74-3.27,2.77,0,4.4,1.4,4.4,3.71,0,.41-.08.9-.15,1.35l-1.16,6.52h-2.67l.27-1.48h-.15c-.4.79-1.42,1.65-3.06,1.65-1.89,0-3.41-1.17-3.41-3.21ZM239.1,14.26c1.16,0,2.2-.76,2.41-1.85l.23-1.26h-2.2c-1.41,0-2.09.74-2.09,1.62s.64,1.48,1.67,1.48Z"/>
      <path class="cls-3" d="M255.41,6.97h.15l1.11-6.25h2.86l-2.73,15.44h-2.83l.32-1.86h-.16c-.35.98-1.47,1.99-3.21,1.99-2.3,0-3.87-1.61-3.87-4.25,0-.48.04-1.03.13-1.49l.29-1.47c.49-2.66,2.12-4.46,4.69-4.46,1.85,0,3.06,1.2,3.24,2.36ZM252.87,6.86c-1.41,0-2.28,1.1-2.57,2.64l-.24,1.21c-.03.18-.06.56-.06.88,0,1.51.84,2.43,2.18,2.43s2.33-1.11,2.62-2.79l.21-1.2c.04-.23.05-.53.05-.7,0-1.65-1.1-2.47-2.2-2.47Z"/>
      <path class="cls-3" d="M260,13.11c0-.09,0-.18.01-.3.12-2.15,1.87-3.36,4.65-3.36h2.78l.12-.75c.02-.1.04-.27.04-.41,0-.81-.55-1.6-1.87-1.6-1.05,0-1.68.49-1.87,1.15h-2.67c.27-1.74,1.82-3.27,4.74-3.27,2.77,0,4.4,1.4,4.4,3.71,0,.41-.08.9-.15,1.35l-1.16,6.52h-2.67l.27-1.48h-.15c-.4.79-1.42,1.65-3.06,1.65-1.89,0-3.41-1.17-3.41-3.21ZM264.49,14.26c1.16,0,2.2-.76,2.41-1.85l.23-1.26h-2.2c-1.41,0-2.09.74-2.09,1.62s.64,1.48,1.67,1.48Z"/>
      <path class="cls-3" d="M279.93,11.84c-.01.06-.01.15-.01.24,0,1.13,1.18,2.08,2.89,2.08,1.45,0,2.67-.71,2.67-1.99,0-1.16-1.03-1.58-2.29-2.02l-1.04-.34c-1.86-.63-3.67-1.73-3.67-4.11,0-2.88,2.45-4.48,5.49-4.48s5.17,1.64,5.17,4.03c0,.11-.02.34-.02.4h-2.65s.01-.08.01-.17c0-1.26-1.2-1.96-2.52-1.96s-2.47.63-2.47,1.86c0,1.04.97,1.6,2.32,2.07l1.19.4c1.77.62,3.49,1.49,3.49,3.92,0,3.01-2.52,4.67-5.79,4.67-3.02,0-5.55-1.59-5.55-4.12,0-.16.01-.32.04-.47h2.75Z"/>
      <path class="cls-3" d="M291.11,9c.5-2.76,2.61-4.45,5.37-4.45,3.07,0,5.1,1.85,5.1,4.78,0,.48-.03.95-.12,1.38l-.23,1.18c-.54,2.76-2.46,4.47-5.45,4.47s-5.02-1.77-5.02-4.66c0-.55.03-1.06.12-1.53l.21-1.17ZM293.76,10.62c-.05.32-.1.64-.1,1.05,0,1.48.85,2.47,2.26,2.47,1.33,0,2.21-.99,2.51-2.75l.2-1.26c.05-.33.06-.79.06-.97,0-1.43-.85-2.41-2.23-2.41-1.26,0-2.21.86-2.51,2.67l-.19,1.18Z"/>
      <path class="cls-3" d="M306.32,2.03h2.74l-.49,2.84h2.4l-.39,2.17h-2.36l-.85,4.86c-.12.68-.15.92-.15,1.13,0,.77.43,1.08,1.33,1.08.42,0,.88-.04,1.14-.1l-.38,2.07c-.3.08-.99.16-1.7.16-2.2,0-3.33-.76-3.33-2.35,0-.31.04-.74.12-1.2l1-5.65h-1.64l.39-2.17h1.67l.52-2.84Z"/>
      <path class="cls-3" d="M314.93,2.03h2.74l-.49,2.84h2.4l-.39,2.17h-2.36l-.85,4.86c-.12.68-.15.92-.15,1.13,0,.77.43,1.08,1.33,1.08.42,0,.88-.04,1.14-.1l-.38,2.07c-.3.08-.99.16-1.7.16-2.2,0-3.33-.76-3.33-2.35,0-.31.04-.74.12-1.2l1-5.65h-1.64l.39-2.17h1.67l.52-2.84Z"/>
      <path class="cls-3" d="M320.65,11.85c0-.57.08-1.16.16-1.6l.21-1.22c.53-2.96,2.71-4.47,5.38-4.47,3.18,0,4.77,2.29,4.55,4.89,0,.1-.16,1.17-.27,1.62h-7.22c-.05.23-.1.61-.1.9,0,1.17.62,2.22,2.22,2.22,1.13,0,1.89-.53,2.08-1.26h2.7c-.25,1.76-2.08,3.43-4.95,3.43-2.71,0-4.78-1.48-4.78-4.51ZM328.29,9.08c.19-1.32-.47-2.41-1.94-2.41-1.15,0-2.12.69-2.44,2.14l-.12.56h4.46c.02-.08.04-.24.04-.29Z"/>
      <path class="cls-3" d="M334.53,4.76h2.69l-.33,1.88h.16c.38-1.06,1.4-2.06,3.01-2.06.55,0,.99.14,1.17.2l-.53,2.5c-.26-.12-.82-.24-1.26-.24-1.84,0-2.71,1.34-3.02,3.08l-1.06,6.03h-2.84l2.01-11.4Z"/>
      <path class="cls-3" d="M343.5,4.76h2.69l-.33,1.88h.16c.38-1.06,1.4-2.06,3.01-2.06.55,0,.99.14,1.17.2l-.53,2.5c-.26-.12-.82-.24-1.26-.24-1.84,0-2.71,1.34-3.02,3.08l-1.06,6.03h-2.84l2.01-11.4Z"/>
      <path class="cls-3" d="M350.45,13.11c0-.09,0-.18.01-.3.12-2.15,1.87-3.36,4.65-3.36h2.78l.12-.75c.02-.1.04-.27.04-.41,0-.81-.55-1.6-1.87-1.6-1.05,0-1.68.49-1.87,1.15h-2.67c.27-1.74,1.82-3.27,4.74-3.27,2.77,0,4.4,1.4,4.4,3.71,0,.41-.08.9-.15,1.35l-1.16,6.52h-2.67l.27-1.48h-.15c-.4.79-1.42,1.65-3.06,1.65-1.89,0-3.41-1.17-3.41-3.21ZM354.94,14.26c1.16,0,2.2-.76,2.41-1.85l.23-1.26h-2.2c-1.41,0-2.09.74-2.09,1.62s.64,1.48,1.67,1.48Z"/>
      <path class="cls-3" d="M364.63,4.76h2.79l-.32,1.78h.16c.56-1.13,1.62-1.97,3.3-1.97,2.3,0,3.46,1.56,3.46,3.49,0,.69-.14,1.44-.25,2.04l-1.06,6.05h-2.85l1.08-6.2c.05-.31.12-.83.12-1.21,0-1.13-.6-1.93-1.76-1.93-1.51,0-2.38,1.17-2.69,2.87l-1.14,6.48h-2.85l2-11.4Z"/>
      <path class="cls-3" d="M376.17,11.85c0-.57.08-1.16.16-1.6l.21-1.22c.53-2.96,2.71-4.47,5.38-4.47,3.18,0,4.77,2.29,4.55,4.89,0,.1-.16,1.17-.27,1.62h-7.22c-.05.23-.1.61-.1.9,0,1.17.62,2.22,2.22,2.22,1.13,0,1.89-.53,2.08-1.26h2.7c-.25,1.76-2.08,3.43-4.95,3.43-2.71,0-4.78-1.48-4.78-4.51ZM383.81,9.08c.19-1.32-.47-2.41-1.94-2.41-1.15,0-2.12.69-2.44,2.14l-.12.56h4.46c.02-.08.04-.24.04-.29Z"/>
      <path class="cls-3" d="M388.03,13.11c0-.09,0-.18.01-.3.12-2.15,1.87-3.36,4.65-3.36h2.78l.12-.75c.02-.1.04-.27.04-.41,0-.81-.55-1.6-1.87-1.6-1.05,0-1.68.49-1.87,1.15h-2.67c.27-1.74,1.82-3.27,4.74-3.27,2.77,0,4.4,1.4,4.4,3.71,0,.41-.08.9-.15,1.35l-1.16,6.52h-2.67l.27-1.48h-.15c-.4.79-1.42,1.65-3.06,1.65-1.89,0-3.41-1.17-3.41-3.21ZM392.52,14.26c1.16,0,2.2-.76,2.41-1.85l.23-1.26h-2.2c-1.41,0-2.09.74-2.09,1.62s.64,1.48,1.67,1.48Z"/>
      <path class="cls-3" d="M413.66,6.97h.15l1.11-6.25h2.86l-2.73,15.44h-2.83l.32-1.86h-.16c-.35.98-1.47,1.99-3.21,1.99-2.3,0-3.87-1.61-3.87-4.25,0-.48.04-1.03.13-1.49l.29-1.47c.49-2.66,2.12-4.46,4.69-4.46,1.85,0,3.06,1.2,3.24,2.36ZM411.13,6.86c-1.41,0-2.28,1.1-2.57,2.64l-.24,1.21c-.03.18-.06.56-.06.88,0,1.51.84,2.43,2.18,2.43s2.33-1.11,2.62-2.79l.21-1.2c.04-.23.05-.53.05-.7,0-1.65-1.1-2.47-2.2-2.47Z"/>
      <path class="cls-3" d="M418.58,11.85c0-.57.08-1.16.16-1.6l.21-1.22c.53-2.96,2.71-4.47,5.38-4.47,3.18,0,4.77,2.29,4.55,4.89,0,.1-.16,1.17-.27,1.62h-7.22c-.05.23-.1.61-.1.9,0,1.17.62,2.22,2.22,2.22,1.13,0,1.89-.53,2.08-1.26h2.7c-.25,1.76-2.08,3.43-4.95,3.43-2.71,0-4.78-1.48-4.78-4.51ZM426.22,9.08c.19-1.32-.47-2.41-1.94-2.41-1.15,0-2.12.69-2.44,2.14l-.12.56h4.46c.02-.08.04-.24.04-.29Z"/>
      <path class="cls-3" d="M433.3.72h2.85l-2.74,15.44h-2.84l2.73-15.44Z"/>
      <path class="cls-3" d="M207.4,33.07c-.08.38-.13,1.12-.13,1.51,0,2.01,1.07,3.33,3.04,3.33,1.55,0,2.62-.87,2.9-2.22h2.77s-.04.29-.06.39c-.39,2.48-2.52,4.36-5.83,4.36-3.61,0-5.78-2.18-5.78-5.87,0-.35.02-1.01.1-1.43l.42-2.25c.63-3.49,2.89-5.68,6.39-5.68s5.62,2.16,5.62,4.64c0,.24-.02.58-.1.78h-2.77c.02-.18.03-.38.02-.5-.1-1.4-1.24-2.44-2.79-2.44-1.76,0-2.98,1.17-3.46,3.65l-.33,1.72Z"/>
      <path class="cls-3" d="M217.77,37.11c0-.09,0-.18.01-.3.12-2.15,1.87-3.36,4.65-3.36h2.78l.12-.75c.02-.1.04-.27.04-.41,0-.81-.55-1.6-1.87-1.6-1.05,0-1.68.49-1.87,1.15h-2.67c.27-1.74,1.82-3.27,4.74-3.27,2.77,0,4.4,1.4,4.4,3.71,0,.41-.08.9-.15,1.35l-1.16,6.52h-2.67l.27-1.48h-.15c-.4.79-1.42,1.65-3.06,1.65-1.89,0-3.41-1.17-3.41-3.21ZM222.26,38.26c1.16,0,2.2-.76,2.41-1.85l.23-1.26h-2.2c-1.41,0-2.09.74-2.09,1.62s.64,1.48,1.67,1.48Z"/>
      <path class="cls-3" d="M235.53,28.55c2.77,0,4.49,1.49,4.49,3.21,0,.06,0,.27-.01.3h-2.49v-.14c0-.64-.67-1.42-1.96-1.42-1.14,0-1.77.59-1.77,1.3,0,1,1.22,1.22,2.52,1.64,1.69.55,3.05,1.34,3.05,3.27,0,2.43-2.17,3.66-4.84,3.66-2.5,0-4.71-1.28-4.71-3.39,0-.08,0-.21.01-.27h2.56s0,.14.01.21c.11.81.96,1.44,2.22,1.44s1.94-.58,1.94-1.4c0-.92-.96-1.2-2.18-1.58-1.3-.41-3.31-1.12-3.31-3.31,0-2.06,1.55-3.53,4.46-3.53Z"/>
      <path class="cls-3" d="M244.62,26.03h2.74l-.49,2.84h2.4l-.39,2.17h-2.36l-.85,4.86c-.12.68-.15.92-.15,1.13,0,.77.43,1.08,1.33,1.08.42,0,.88-.04,1.14-.1l-.38,2.07c-.3.08-.99.16-1.7.16-2.2,0-3.33-.76-3.33-2.35,0-.31.04-.74.12-1.2l1-5.65h-1.64l.39-2.17h1.67l.52-2.84Z"/>
      <path class="cls-3" d="M250.35,35.85c0-.57.08-1.16.16-1.6l.21-1.22c.53-2.96,2.71-4.47,5.38-4.47,3.18,0,4.77,2.29,4.55,4.89,0,.1-.16,1.17-.27,1.62h-7.22c-.05.23-.1.61-.1.9,0,1.17.62,2.22,2.22,2.22,1.13,0,1.89-.53,2.08-1.26h2.7c-.25,1.76-2.08,3.43-4.95,3.43-2.71,0-4.78-1.48-4.78-4.51ZM257.98,33.08c.19-1.32-.47-2.41-1.94-2.41-1.15,0-2.12.69-2.44,2.14l-.12.56h4.46c.02-.08.04-.24.04-.29Z"/>
      <path class="cls-3" d="M265.06,24.72h2.85l-2.74,15.44h-2.84l2.73-15.44Z"/>
      <path class="cls-3" d="M271.37,24.72h2.85l-2.74,15.44h-2.84l2.73-15.44Z"/>
      <path class="cls-3" d="M275.5,33c.5-2.76,2.61-4.45,5.37-4.45,3.07,0,5.1,1.85,5.1,4.78,0,.48-.03.95-.12,1.38l-.23,1.18c-.54,2.76-2.46,4.47-5.45,4.47s-5.02-1.77-5.02-4.66c0-.55.03-1.06.12-1.53l.21-1.17ZM278.15,34.62c-.05.32-.1.64-.1,1.05,0,1.48.85,2.47,2.26,2.47,1.33,0,2.21-.99,2.51-2.75l.2-1.26c.05-.33.06-.79.06-.97,0-1.43-.85-2.41-2.23-2.41-1.26,0-2.21.86-2.51,2.67l-.19,1.18Z"/>
      <path class="cls-3" d="M300.99,30.97h.15l1.11-6.25h2.86l-2.73,15.44h-2.83l.32-1.86h-.16c-.35.98-1.47,1.99-3.21,1.99-2.3,0-3.87-1.61-3.87-4.25,0-.48.04-1.03.13-1.49l.29-1.47c.49-2.66,2.12-4.46,4.69-4.46,1.85,0,3.06,1.2,3.24,2.36ZM298.45,30.86c-1.41,0-2.28,1.1-2.57,2.64l-.24,1.21c-.03.18-.06.56-.06.88,0,1.51.84,2.43,2.18,2.43s2.33-1.11,2.62-2.79l.21-1.2c.04-.23.05-.53.05-.7,0-1.65-1.1-2.47-2.2-2.47Z"/>
      <path class="cls-3" d="M307.73,28.76h2.85l-2.02,11.4h-2.85l2.02-11.4ZM309.67,23.85c1.08,0,1.75.64,1.75,1.54,0,.95-.76,1.58-1.85,1.58s-1.73-.62-1.73-1.51c0-.96.76-1.6,1.83-1.6Z"/>
      <path class="cls-3" d="M320.34,40.16l-2.32-14.66h3.18l1.3,11.71h.15l5.44-11.71h3.2l-7.43,14.66h-3.51Z"/>
      <path class="cls-3" d="M332.76,28.76h2.85l-2.02,11.4h-2.85l2.02-11.4ZM334.69,23.85c1.08,0,1.75.64,1.75,1.54,0,.95-.76,1.58-1.85,1.58s-1.73-.62-1.73-1.51c0-.96.76-1.6,1.83-1.6Z"/>
      <path class="cls-3" d="M345.64,30.92h.15l.38-2.14h2.83l-2,11.42c-.49,2.76-2.44,4.12-5.55,4.12s-4.77-1.63-4.77-3.37c0-.09.01-.2.02-.23h2.65s.02.13.03.16c.09.7.97,1.32,2.2,1.32,1.69,0,2.42-.87,2.71-2.51l.26-1.51h-.17c-.41.95-1.49,1.73-3.12,1.73-2.18,0-3.91-1.62-3.91-4.36,0-.35.03-1.06.14-1.56l.18-.95c.63-3.09,2.56-4.44,4.68-4.44,1.82,0,2.96,1.03,3.29,2.31ZM343.05,30.86c-1.34,0-2.27,1.04-2.57,2.73l-.14.77c-.05.25-.12.75-.12,1.03,0,1.51.81,2.48,2.23,2.48,1.27,0,2.27-1.02,2.57-2.74l.14-.85c.09-.47.1-.87.1-1,0-1.48-.9-2.43-2.21-2.43Z"/>
      <path class="cls-3" d="M350.52,35.85c0-.57.08-1.16.16-1.6l.21-1.22c.53-2.96,2.71-4.47,5.38-4.47,3.18,0,4.77,2.29,4.55,4.89,0,.1-.16,1.17-.27,1.62h-7.22c-.05.23-.1.61-.1.9,0,1.17.62,2.22,2.22,2.22,1.13,0,1.89-.53,2.08-1.26h2.7c-.25,1.76-2.08,3.43-4.95,3.43-2.71,0-4.78-1.48-4.78-4.51ZM358.16,33.08c.19-1.32-.47-2.41-1.94-2.41-1.15,0-2.12.69-2.44,2.14l-.12.56h4.46c.02-.08.04-.24.04-.29Z"/>
      <path class="cls-3" d="M363.2,28.76h2.95l.87,8.78h.13l3.76-8.78h2.95l-5.6,11.4h-3.24l-1.83-11.4Z"/>
      <path class="cls-3" d="M374.16,37.11c0-.09,0-.18.01-.3.12-2.15,1.87-3.36,4.65-3.36h2.78l.12-.75c.02-.1.04-.27.04-.41,0-.81-.55-1.6-1.87-1.6-1.05,0-1.68.49-1.87,1.15h-2.67c.27-1.74,1.82-3.27,4.74-3.27,2.77,0,4.4,1.4,4.4,3.71,0,.41-.08.9-.15,1.35l-1.16,6.52h-2.67l.27-1.48h-.15c-.4.79-1.42,1.65-3.06,1.65-1.89,0-3.41-1.17-3.41-3.21ZM378.65,38.26c1.16,0,2.2-.76,2.41-1.85l.23-1.26h-2.2c-1.41,0-2.09.74-2.09,1.62s.64,1.48,1.67,1.48Z"/>
      <path class="cls-3" d="M388.34,28.76h2.79l-.32,1.78h.16c.56-1.13,1.62-1.97,3.3-1.97,2.3,0,3.46,1.56,3.46,3.49,0,.69-.14,1.44-.25,2.04l-1.06,6.05h-2.85l1.08-6.2c.05-.31.12-.83.12-1.21,0-1.13-.6-1.93-1.76-1.93-1.51,0-2.38,1.17-2.69,2.87l-1.14,6.48h-2.85l2-11.4Z"/>
      <path class="cls-3" d="M400.24,33c.5-2.76,2.61-4.45,5.37-4.45,3.07,0,5.1,1.85,5.1,4.78,0,.48-.03.95-.12,1.38l-.23,1.18c-.54,2.76-2.46,4.47-5.45,4.47s-5.02-1.77-5.02-4.66c0-.55.03-1.06.12-1.53l.21-1.17ZM402.89,34.62c-.05.32-.1.64-.1,1.05,0,1.48.85,2.47,2.26,2.47,1.33,0,2.21-.99,2.51-2.75l.2-1.26c.05-.33.06-.79.06-.97,0-1.43-.85-2.41-2.23-2.41-1.26,0-2.21.86-2.51,2.67l-.19,1.18Z"/>
    </g>
    <rect class="cls-2" x="205.79" y="57.06" width="192.19" height="29.22" rx="7.71" ry="7.71"/>
    <g>
      <path class="cls-3" d="M217.19,78.93v-14.06h2.34v14.06h-2.34Z"/>
      <path class="cls-3" d="M223.02,78.93v-14.06h2.06l6.56,10.09h.1v-10.09h2.25v14.06h-2.05l-6.58-10.12h-.09v10.12h-2.25Z"/>
      <path class="cls-3" d="M245.79,68.89c-.32-1.38-1.43-2.3-3.07-2.3-2.17,0-3.44,1.62-3.44,4.36v1.83c0,2.73,1.19,4.43,3.51,4.43,2.08,0,3.14-1.21,3.14-2.79v-1.11h-3.23v-1.84h5.48v2.85c0,2.72-1.83,4.89-5.4,4.89-3.84,0-5.86-2.5-5.86-6.42v-1.85c0-3.84,2.17-6.34,5.84-6.34,3.09,0,5.04,1.85,5.33,4.29h-2.31Z"/>
      <path class="cls-3" d="M261.22,69.19c0,2-1.15,3.41-2.59,3.93l2.84,5.8h-2.63l-2.52-5.41h-2.91v5.41h-2.31v-14.06h5.38c2.96,0,4.74,1.71,4.74,4.33ZM256.09,71.67c1.72,0,2.72-.81,2.72-2.39s-1.03-2.49-2.66-2.49h-2.74v4.88h2.68Z"/>
      <path class="cls-3" d="M272.97,78.93h-8.78v-14.06h8.78v1.97h-6.45v4.01h6.07v1.88h-6.07v4.23h6.45v1.97Z"/>
      <path class="cls-3" d="M277.35,75.23c.23,1.21,1.39,2.05,3.13,2.05,1.84,0,2.91-.87,2.91-2.18,0-1.06-.71-1.64-2.23-2.01l-2.31-.58c-2.14-.51-3.44-1.79-3.44-3.79,0-2.48,2.1-4.16,5.08-4.16s4.87,1.67,5.05,3.82h-2.27c-.23-1.12-1.24-1.91-2.8-1.91-1.66,0-2.71.87-2.71,2.11,0,.92.69,1.53,1.95,1.83l2.3.57c2.37.58,3.73,1.71,3.73,3.9,0,2.58-2.02,4.32-5.43,4.32s-5.09-1.73-5.25-3.98h2.3Z"/>
      <path class="cls-3" d="M289.87,75.23c.23,1.21,1.39,2.05,3.13,2.05,1.84,0,2.91-.87,2.91-2.18,0-1.06-.71-1.64-2.23-2.01l-2.31-.58c-2.14-.51-3.44-1.79-3.44-3.79,0-2.48,2.1-4.16,5.08-4.16s4.87,1.67,5.05,3.82h-2.27c-.23-1.12-1.24-1.91-2.8-1.91-1.66,0-2.71.87-2.71,2.11,0,.92.69,1.53,1.95,1.83l2.3.57c2.37.58,3.73,1.71,3.73,3.9,0,2.58-2.02,4.32-5.43,4.32s-5.09-1.73-5.25-3.98h2.3Z"/>
      <path class="cls-3" d="M306.32,79.21c-3.6,0-5.85-2.37-5.85-6.34v-1.92c0-4,2.25-6.35,5.85-6.35s5.84,2.37,5.84,6.35v1.92c0,3.98-2.23,6.34-5.84,6.34ZM306.32,66.59c-2.01,0-3.48,1.43-3.48,4.34v1.95c0,2.92,1.47,4.35,3.48,4.35s3.47-1.43,3.47-4.35v-1.95c0-2.9-1.48-4.34-3.47-4.34Z"/>
      <path class="cls-3" d="M328.13,78.93h-8.53v-14.06h2.34v12.03h6.19v2.03Z"/>
      <path class="cls-3" d="M330.28,78.93v-14.06h2.34v14.06h-2.34Z"/>
      <path class="cls-3" d="M336.12,64.87h5.6c2.45,0,4.04,1.32,4.04,3.46,0,1.65-.93,2.7-2.34,3.09v.1c1.78.21,3.09,1.41,3.09,3.45,0,2.49-1.97,3.96-4.89,3.96h-5.5v-14.06ZM338.44,70.81h1.98c2.09,0,3.02-.7,3.02-2.09,0-1.25-.81-2-2.21-2h-2.78v4.09ZM338.44,77.07h2.24c2.45,0,3.45-.7,3.45-2.18s-.97-2.32-2.71-2.32h-2.98v4.5Z"/>
      <path class="cls-3" d="M358.01,78.93h-8.78v-14.06h8.78v1.97h-6.45v4.01h6.07v1.88h-6.07v4.23h6.45v1.97Z"/>
      <path class="cls-3" d="M371.16,69.19c0,2-1.15,3.41-2.58,3.93l2.84,5.8h-2.63l-2.52-5.41h-2.92v5.41h-2.31v-14.06h5.38c2.96,0,4.74,1.71,4.74,4.33ZM366.03,71.67c1.72,0,2.72-.81,2.72-2.39s-1.03-2.49-2.66-2.49h-2.74v4.88h2.68Z"/>
      <path class="cls-3" d="M379.42,79.21c-3.6,0-5.85-2.37-5.85-6.34v-1.92c0-4,2.25-6.35,5.85-6.35s5.84,2.37,5.84,6.35v1.92c0,3.98-2.24,6.34-5.84,6.34ZM379.42,66.59c-2.01,0-3.48,1.43-3.48,4.34v1.95c0,2.92,1.47,4.35,3.48,4.35s3.47-1.43,3.47-4.35v-1.95c0-2.9-1.48-4.34-3.47-4.34Z"/>
    </g>
    <g>
      <path class="cls-3" d="M236.19,107.35h-5.26v-8.66h1.44v7.41h3.81v1.25Z"/>
      <path class="cls-3" d="M237.37,102.47l.53-3.78h1.55l-.86,3.78h-1.22Z"/>
      <path class="cls-3" d="M241,105.4c0-1.19.83-1.99,2.37-1.99h1.7v-.63c0-.77-.49-1.13-1.26-1.13s-1.1.32-1.21.76h-1.34c.08-1.12.93-1.88,2.6-1.88,1.43,0,2.62.6,2.62,2.27v4.54h-1.34v-.87h-.06c-.3.51-.88.97-1.87.97-1.3,0-2.2-.8-2.2-2.05ZM245.07,105.09v-.72h-1.47c-.82,0-1.18.41-1.18.97,0,.7.58,1.03,1.22,1.03.8,0,1.44-.55,1.44-1.28Z"/>
      <path class="cls-3" d="M248.51,100.64h1.4v1.05h.08c.15-.45.63-1.14,1.76-1.14.19,0,.34.01.48.04v1.24c-.12-.03-.37-.05-.6-.05-1.13,0-1.68.67-1.68,1.58v3.99h-1.43v-6.71Z"/>
      <path class="cls-3" d="M253.23,104.45v-.91c0-1.9,1.24-3.02,2.88-3.02s2.87,1.17,2.87,3.02v.79h-4.36v.33c0,.96.57,1.68,1.56,1.68.74,0,1.24-.35,1.34-.77h1.38c-.08.77-.9,1.9-2.71,1.9s-2.96-1.12-2.96-3.01ZM257.6,103.41v-.09c0-1.01-.59-1.68-1.49-1.68s-1.49.67-1.49,1.68v.09h2.98Z"/>
      <path class="cls-3" d="M260.26,105.4c0-1.19.83-1.99,2.37-1.99h1.7v-.63c0-.77-.49-1.13-1.26-1.13s-1.1.32-1.21.76h-1.34c.08-1.12.93-1.88,2.6-1.88,1.43,0,2.62.6,2.62,2.27v4.54h-1.34v-.87h-.06c-.3.51-.88.97-1.87.97-1.3,0-2.2-.8-2.2-2.05ZM264.33,105.09v-.72h-1.47c-.82,0-1.18.41-1.18.97,0,.7.58,1.03,1.22,1.03.8,0,1.44-.55,1.44-1.28Z"/>
      <path class="cls-3" d="M274.65,101.65h.07v-3.42h1.41v9.12h-1.37v-1.07h-.07c-.2.68-1.01,1.16-1.99,1.16-1.54,0-2.55-1.1-2.55-2.87v-1.15c0-1.77,1.02-2.87,2.56-2.87.95,0,1.67.42,1.93,1.1ZM271.59,103.63v.74c0,1.23.59,1.92,1.55,1.92s1.57-.69,1.57-1.83v-1.02c0-1.04-.68-1.73-1.61-1.73s-1.52.7-1.52,1.92Z"/>
      <path class="cls-3" d="M277.83,104.45v-.91c0-1.9,1.24-3.02,2.88-3.02s2.87,1.17,2.87,3.02v.79h-4.36v.33c0,.96.57,1.68,1.56,1.68.74,0,1.24-.35,1.34-.77h1.38c-.08.77-.9,1.9-2.71,1.9s-2.96-1.12-2.96-3.01ZM282.2,103.41v-.09c0-1.01-.59-1.68-1.49-1.68s-1.49.67-1.49,1.68v.09h2.98Z"/>
      <path class="cls-3" d="M285.27,98.23h1.41v9.12h-1.41v-9.12Z"/>
      <path class="cls-3" d="M288.77,98.23h1.41v9.12h-1.41v-9.12Z"/>
      <path class="cls-3" d="M291.86,105.4c0-1.19.83-1.99,2.37-1.99h1.7v-.63c0-.77-.49-1.13-1.26-1.13s-1.1.32-1.21.76h-1.34c.08-1.12.93-1.88,2.6-1.88,1.43,0,2.62.6,2.62,2.27v4.54h-1.34v-.87h-.06c-.3.51-.88.97-1.87.97-1.3,0-2.2-.8-2.2-2.05ZM295.93,105.09v-.72h-1.47c-.82,0-1.18.41-1.18.97,0,.7.58,1.03,1.22,1.03.8,0,1.44-.55,1.44-1.28Z"/>
      <path class="cls-3" d="M302.06,100.64h1.38v1.09h.07c.15-.49.6-1.19,1.83-1.19,1.02,0,1.64.54,1.85,1.26h.06c.25-.63.89-1.26,2.04-1.26,1.37,0,2.18.78,2.18,2.11v4.7h-1.4v-4.29c0-.85-.47-1.35-1.28-1.35-.75,0-1.34.58-1.34,1.47v4.16h-1.37v-4.25c0-.87-.52-1.38-1.29-1.38s-1.32.56-1.32,1.45v4.18h-1.41v-6.71Z"/>
      <path class="cls-3" d="M319.09,103.55v.87c0,1.95-1.22,3.05-2.98,3.05s-2.99-1.08-2.99-3.04v-.87c0-1.83,1.23-3.03,2.99-3.03s2.98,1.14,2.98,3.02ZM314.55,103.63v.75c0,1.12.53,1.96,1.57,1.96s1.56-.83,1.56-1.96v-.75c0-1.12-.55-1.96-1.56-1.96s-1.57.84-1.57,1.96Z"/>
      <path class="cls-3" d="M323.08,100.53c1.47,0,2.48.74,2.48,1.92h-1.27c-.04-.44-.44-.89-1.25-.89-.72,0-1.21.34-1.21.91,0,.74.95.84,1.7.97,1.25.22,2.21.62,2.21,1.88,0,1.35-1.07,2.14-2.77,2.14-1.59,0-2.62-.72-2.62-1.92h1.37c.08.54.46.89,1.31.89.95,0,1.33-.43,1.33-.95,0-.7-.77-.81-1.67-.98-1.23-.25-2.22-.6-2.22-1.91,0-1.46,1.23-2.07,2.6-2.07Z"/>
      <path class="cls-3" d="M327.81,99.01h1.38v1.68h1.5v1.1h-1.5v3.56c0,.73.27.93,1.03.93.19,0,.44-.01.55-.03v1.08c-.12.02-.58.06-.9.06-1.63,0-2.08-.58-2.08-1.93v-3.68h-1.02v-1.1h1.04v-1.68Z"/>
      <path class="cls-3" d="M332.41,100.64h1.4v1.05h.08c.15-.45.63-1.14,1.76-1.14.19,0,.34.01.48.04v1.24c-.12-.03-.37-.05-.6-.05-1.13,0-1.68.67-1.68,1.58v3.99h-1.43v-6.71Z"/>
      <path class="cls-3" d="M337.08,105.4c0-1.19.83-1.99,2.37-1.99h1.7v-.63c0-.77-.49-1.13-1.26-1.13s-1.1.32-1.21.76h-1.34c.08-1.12.93-1.88,2.6-1.88,1.43,0,2.62.6,2.62,2.27v4.54h-1.34v-.87h-.06c-.3.51-.88.97-1.87.97-1.3,0-2.2-.8-2.2-2.05ZM341.15,105.09v-.72h-1.47c-.82,0-1.18.41-1.18.97,0,.7.58,1.03,1.22,1.03.8,0,1.44-.55,1.44-1.28Z"/>
      <path class="cls-3" d="M346.97,104.45v-.91c0-1.9,1.24-3.02,2.88-3.02s2.87,1.17,2.87,3.02v.79h-4.36v.33c0,.96.57,1.68,1.56,1.68.74,0,1.24-.35,1.34-.77h1.38c-.08.77-.9,1.9-2.71,1.9s-2.96-1.12-2.96-3.01ZM349.45,99.56l-1.77-2.25h1.31l1.51,2.25h-1.05ZM351.34,103.41v-.09c0-1.01-.59-1.68-1.49-1.68s-1.49.67-1.49,1.68v.09h2.98Z"/>
      <path class="cls-3" d="M356.79,105.4c0-1.19.83-1.99,2.37-1.99h1.69v-.63c0-.77-.49-1.13-1.26-1.13s-1.1.32-1.21.76h-1.34c.08-1.12.93-1.88,2.6-1.88,1.44,0,2.62.6,2.62,2.27v4.54h-1.34v-.87h-.06c-.3.51-.88.97-1.87.97-1.3,0-2.2-.8-2.2-2.05ZM360.85,105.09v-.72h-1.47c-.82,0-1.18.41-1.18.97,0,.7.58,1.03,1.22,1.03.8,0,1.43-.55,1.43-1.28Z"/>
      <path class="cls-3" d="M363.89,103.49c0-1.8,1.12-2.96,2.89-2.96s2.64,1.05,2.67,2.2h-1.33c-.06-.43-.38-1.02-1.31-1.02-.98,0-1.51.71-1.51,1.82v.94c0,1.13.56,1.83,1.52,1.83.89,0,1.24-.42,1.34-.96h1.33c-.04,1.14-.91,2.13-2.71,2.13s-2.89-1.15-2.89-3v-.97Z"/>
      <path class="cls-3" d="M370.75,103.49c0-1.8,1.12-2.96,2.89-2.96s2.64,1.05,2.67,2.2h-1.33c-.06-.43-.37-1.02-1.31-1.02-.98,0-1.51.71-1.51,1.82v.94c0,1.13.57,1.83,1.52,1.83.9,0,1.24-.42,1.34-.96h1.33c-.04,1.14-.91,2.13-2.71,2.13s-2.89-1.15-2.89-3v-.97Z"/>
      <path class="cls-3" d="M377.61,104.45v-.91c0-1.9,1.24-3.02,2.88-3.02s2.87,1.17,2.87,3.02v.79h-4.36v.33c0,.96.57,1.68,1.56,1.68.74,0,1.24-.35,1.34-.77h1.38c-.08.77-.9,1.9-2.71,1.9s-2.96-1.12-2.96-3.01ZM381.98,103.41v-.09c0-1.01-.59-1.68-1.49-1.68s-1.49.67-1.49,1.68v.09h2.98Z"/>
      <path class="cls-3" d="M387.32,100.53c1.47,0,2.48.74,2.48,1.92h-1.27c-.04-.44-.44-.89-1.25-.89-.72,0-1.21.34-1.21.91,0,.74.95.84,1.7.97,1.25.22,2.21.62,2.21,1.88,0,1.35-1.07,2.14-2.77,2.14-1.59,0-2.62-.72-2.62-1.92h1.37c.08.54.46.89,1.31.89.95,0,1.33-.43,1.33-.95,0-.7-.77-.81-1.67-.98-1.23-.25-2.22-.6-2.22-1.91,0-1.46,1.23-2.07,2.6-2.07Z"/>
      <path class="cls-3" d="M393.92,100.53c1.47,0,2.48.74,2.48,1.92h-1.27c-.04-.44-.44-.89-1.25-.89-.72,0-1.21.34-1.21.91,0,.74.95.84,1.69.97,1.25.22,2.22.62,2.22,1.88,0,1.35-1.07,2.14-2.77,2.14-1.59,0-2.62-.72-2.62-1.92h1.37c.08.54.46.89,1.31.89.95,0,1.33-.43,1.33-.95,0-.7-.77-.81-1.67-.98-1.22-.25-2.22-.6-2.22-1.91,0-1.46,1.23-2.07,2.6-2.07Z"/>
      <path class="cls-3" d="M399.04,97.76c.56,0,.95.36.95.86s-.39.85-.95.85-.92-.35-.92-.85.39-.86.92-.86ZM398.35,100.64h1.4v6.71h-1.4v-6.71Z"/>
      <path class="cls-3" d="M403.35,106.34h-.08v1.01h-1.37v-9.12h1.41v3.48h.08c.21-.7.99-1.16,1.96-1.16,1.57,0,2.53,1.11,2.53,2.93v1.03c0,1.82-.98,2.93-2.56,2.93-.94,0-1.68-.41-1.96-1.11ZM406.44,104.34v-.65c0-1.26-.56-1.98-1.54-1.98s-1.59.72-1.59,1.86v.97c0,1.03.67,1.75,1.61,1.75s1.52-.72,1.52-1.96Z"/>
      <path class="cls-3" d="M410.39,97.76c.56,0,.95.36.95.86s-.39.85-.95.85-.92-.35-.92-.85.39-.86.92-.86ZM409.7,100.64h1.4v6.71h-1.4v-6.71Z"/>
      <path class="cls-3" d="M413.28,98.23h1.41v9.12h-1.41v-9.12Z"/>
      <path class="cls-3" d="M416.41,104.45v-.91c0-1.9,1.24-3.02,2.88-3.02s2.87,1.17,2.87,3.02v.79h-4.36v.33c0,.96.57,1.68,1.56,1.68.74,0,1.24-.35,1.34-.77h1.38c-.08.77-.9,1.9-2.71,1.9s-2.96-1.12-2.96-3.01ZM420.79,103.41v-.09c0-1.01-.59-1.68-1.49-1.68s-1.49.67-1.49,1.68v.09h2.98Z"/>
      <path class="cls-3" d="M426.24,105.4c0-1.19.83-1.99,2.37-1.99h1.7v-.63c0-.77-.49-1.13-1.26-1.13s-1.1.32-1.21.76h-1.34c.08-1.12.93-1.88,2.6-1.88,1.43,0,2.62.6,2.62,2.27v4.54h-1.34v-.87h-.06c-.3.51-.88.97-1.87.97-1.3,0-2.2-.8-2.2-2.05ZM430.3,105.09v-.72h-1.47c-.82,0-1.18.41-1.18.97,0,.7.58,1.03,1.22,1.03.8,0,1.44-.55,1.44-1.28Z"/>
      <path class="cls-3" d="M232.34,120.34h-.07v3.24h-1.41v-8.94h1.37v1.07h.07c.27-.72,1.03-1.16,1.99-1.16,1.56,0,2.53,1.11,2.53,2.93v1.03c0,1.82-.97,2.93-2.56,2.93-.92,0-1.61-.4-1.92-1.11ZM235.38,118.33v-.65c0-1.26-.56-1.97-1.55-1.97s-1.56.7-1.56,1.83v1.02c0,1.03.64,1.73,1.59,1.73s1.53-.72,1.53-1.96Z"/>
      <path class="cls-3" d="M238.19,118.45v-.91c0-1.9,1.24-3.02,2.88-3.02s2.87,1.17,2.87,3.02v.79h-4.36v.33c0,.96.57,1.68,1.56,1.68.74,0,1.24-.35,1.34-.77h1.38c-.08.77-.9,1.9-2.71,1.9s-2.96-1.12-2.96-3.01ZM242.56,117.41v-.09c0-1.01-.59-1.68-1.49-1.68s-1.49.67-1.49,1.68v.09h2.98Z"/>
      <path class="cls-3" d="M245.67,114.64h1.4v1.05h.08c.15-.45.63-1.14,1.76-1.14.19,0,.34.01.48.04v1.24c-.12-.03-.37-.05-.6-.05-1.13,0-1.68.67-1.68,1.58v3.99h-1.43v-6.71Z"/>
      <path class="cls-3" d="M253.01,114.53c1.47,0,2.48.74,2.48,1.92h-1.27c-.04-.44-.44-.89-1.25-.89-.72,0-1.21.34-1.21.91,0,.74.95.84,1.7.97,1.25.22,2.21.62,2.21,1.88,0,1.35-1.07,2.14-2.77,2.14-1.59,0-2.62-.72-2.62-1.92h1.37c.08.54.46.89,1.31.89.95,0,1.33-.43,1.33-.95,0-.7-.77-.81-1.67-.98-1.23-.25-2.22-.6-2.22-1.91,0-1.46,1.23-2.07,2.6-2.07Z"/>
      <path class="cls-3" d="M262.95,117.55v.87c0,1.95-1.22,3.05-2.98,3.05s-2.99-1.08-2.99-3.04v-.87c0-1.83,1.23-3.03,2.99-3.03s2.98,1.14,2.98,3.02ZM258.41,117.63v.75c0,1.12.53,1.96,1.57,1.96s1.56-.83,1.56-1.96v-.75c0-1.12-.55-1.96-1.56-1.96s-1.57.84-1.57,1.96Z"/>
      <path class="cls-3" d="M264.63,114.64h1.38v1.21h.07c.17-.53.66-1.31,2.02-1.31s2.26.75,2.26,2.28v4.53h-1.41v-4.12c0-1.02-.53-1.49-1.33-1.49-1.04,0-1.59.8-1.59,1.88v3.73h-1.41v-6.71Z"/>
      <path class="cls-3" d="M271.96,119.4c0-1.19.83-1.99,2.37-1.99h1.69v-.63c0-.77-.49-1.13-1.26-1.13s-1.1.32-1.21.76h-1.34c.08-1.12.93-1.88,2.6-1.88,1.44,0,2.62.6,2.62,2.27v4.54h-1.34v-.87h-.06c-.3.51-.88.97-1.87.97-1.3,0-2.2-.8-2.2-2.05ZM276.03,119.09v-.72h-1.47c-.82,0-1.18.41-1.18.97,0,.7.58,1.03,1.22,1.03.8,0,1.43-.55,1.43-1.28Z"/>
      <path class="cls-3" d="M281.85,117.49c0-1.8,1.12-2.96,2.89-2.96s2.64,1.05,2.67,2.2h-1.33c-.06-.43-.37-1.02-1.31-1.02-.98,0-1.51.71-1.51,1.82v.94c0,1.13.57,1.83,1.52,1.83.9,0,1.24-.42,1.34-.96h1.33c-.04,1.14-.91,2.13-2.71,2.13s-2.89-1.15-2.89-3v-.97Z"/>
      <path class="cls-3" d="M294.67,117.55v.87c0,1.95-1.22,3.05-2.98,3.05s-2.99-1.08-2.99-3.04v-.87c0-1.83,1.23-3.03,2.99-3.03s2.98,1.14,2.98,3.02ZM290.13,117.63v.75c0,1.12.53,1.96,1.57,1.96s1.56-.83,1.56-1.96v-.75c0-1.12-.55-1.96-1.56-1.96s-1.57.84-1.57,1.96Z"/>
      <path class="cls-3" d="M296.35,114.64h1.38v1.21h.07c.17-.53.66-1.31,2.02-1.31s2.26.75,2.26,2.28v4.53h-1.41v-4.12c0-1.02-.53-1.49-1.33-1.49-1.04,0-1.59.8-1.59,1.88v3.73h-1.41v-6.71Z"/>
      <path class="cls-3" d="M311.01,115.65h.07v-3.42h1.41v9.12h-1.37v-1.07h-.07c-.2.68-1.01,1.16-1.99,1.16-1.54,0-2.54-1.1-2.54-2.87v-1.15c0-1.77,1.02-2.87,2.56-2.87.95,0,1.67.42,1.93,1.1ZM307.95,117.63v.74c0,1.23.59,1.92,1.56,1.92s1.57-.69,1.57-1.83v-1.02c0-1.04-.68-1.73-1.61-1.73s-1.52.7-1.52,1.92Z"/>
      <path class="cls-3" d="M315.34,111.76c.56,0,.95.36.95.86s-.39.85-.95.85-.92-.35-.92-.85.39-.86.92-.86ZM314.65,114.64h1.4v6.71h-1.4v-6.71Z"/>
      <path class="cls-3" d="M320.5,114.53c1.47,0,2.48.74,2.48,1.92h-1.27c-.04-.44-.44-.89-1.25-.89-.72,0-1.21.34-1.21.91,0,.74.95.84,1.69.97,1.25.22,2.22.62,2.22,1.88,0,1.35-1.07,2.14-2.77,2.14-1.59,0-2.62-.72-2.62-1.92h1.37c.08.54.46.89,1.31.89.95,0,1.33-.43,1.33-.95,0-.7-.77-.81-1.67-.98-1.22-.25-2.22-.6-2.22-1.91,0-1.46,1.23-2.07,2.6-2.07Z"/>
      <path class="cls-3" d="M324.43,119.4c0-1.19.83-1.99,2.37-1.99h1.69v-.63c0-.77-.49-1.13-1.26-1.13s-1.1.32-1.21.76h-1.34c.08-1.12.93-1.88,2.6-1.88,1.44,0,2.62.6,2.62,2.27v4.54h-1.34v-.87h-.06c-.3.51-.88.97-1.87.97-1.3,0-2.2-.8-2.2-2.05ZM328.5,119.09v-.72h-1.47c-.82,0-1.18.41-1.18.97,0,.7.58,1.03,1.22,1.03.8,0,1.43-.55,1.43-1.28Z"/>
      <path class="cls-3" d="M333.31,120.34h-.08v1.01h-1.37v-9.12h1.41v3.48h.08c.21-.7.99-1.16,1.96-1.16,1.57,0,2.53,1.11,2.53,2.93v1.03c0,1.82-.98,2.93-2.56,2.93-.94,0-1.68-.41-1.96-1.11ZM336.4,118.34v-.65c0-1.26-.56-1.98-1.54-1.98s-1.59.72-1.59,1.86v.97c0,1.03.67,1.75,1.61,1.75s1.52-.72,1.52-1.96Z"/>
      <path class="cls-3" d="M340.35,111.76c.56,0,.95.36.95.86s-.39.85-.95.85-.92-.35-.92-.85.39-.86.92-.86ZM339.66,114.64h1.4v6.71h-1.4v-6.71Z"/>
      <path class="cls-3" d="M343.25,112.23h1.41v9.12h-1.41v-9.12Z"/>
      <path class="cls-3" d="M347.53,111.76c.56,0,.95.36.95.86s-.39.85-.95.85-.92-.35-.92-.85.39-.86.92-.86ZM346.84,114.64h1.4v6.71h-1.4v-6.71Z"/>
      <path class="cls-3" d="M350.82,113.01h1.38v1.68h1.5v1.1h-1.5v3.56c0,.73.27.93,1.03.93.19,0,.44-.01.55-.03v1.08c-.12.02-.58.06-.9.06-1.63,0-2.08-.58-2.08-1.93v-3.68h-1.02v-1.1h1.04v-1.68Z"/>
      <path class="cls-3" d="M354.97,119.4c0-1.19.83-1.99,2.37-1.99h1.7v-.63c0-.77-.49-1.13-1.26-1.13s-1.1.32-1.21.76h-1.34c.08-1.12.93-1.88,2.6-1.88,1.43,0,2.62.6,2.62,2.27v4.54h-1.34v-.87h-.06c-.3.51-.88.97-1.87.97-1.3,0-2.2-.8-2.2-2.05ZM357.49,113.56l-1.78-2.25h1.31l1.51,2.25h-1.05ZM359.04,119.09v-.72h-1.47c-.82,0-1.18.41-1.18.97,0,.7.58,1.03,1.22,1.03.8,0,1.44-.55,1.44-1.28Z"/>
    </g>
    <g>
      <path class="cls-3" d="M222.01,109.43c-.29-.3-.7-.46-1.12-.44l-5.05.28,2.78-3.16c.4-.45.51-1.05.36-1.59-.08-.37-.3-.7-.64-.92-.01,0-6.64-3.86-6.64-3.86-.54-.31-1.22-.24-1.69.17l-3.24,2.89c-.6.53-.65,1.45-.12,2.04.53.6,1.45.65,2.05.12l2.46-2.19,2.03,1.18-3.58,4.08c-1.48.24-2.82.93-3.87,1.91l1.87,1.87c.84-.77,1.97-1.24,3.2-1.24,2.63,0,4.76,2.14,4.76,4.76,0,1.23-.47,2.36-1.24,3.2l1.87,1.87c1.25-1.33,2.01-3.11,2.01-5.07,0-1.17-.27-2.27-.75-3.26l1.95-.11-.48,5.83c-.06.8.53,1.5,1.33,1.56.04,0,.08,0,.12,0,.75,0,1.38-.57,1.44-1.33l.61-7.49c.03-.42-.11-.83-.41-1.13"/>
      <path class="cls-3" d="M219.33,103.23c1.34,0,2.42-1.09,2.42-2.42s-1.08-2.42-2.42-2.42-2.42,1.08-2.42,2.42,1.08,2.42,2.42,2.42"/>
      <path class="cls-3" d="M210.79,120.11c-2.63,0-4.76-2.13-4.76-4.76,0-.99.3-1.91.82-2.67l-1.89-1.89c-.99,1.26-1.58,2.84-1.58,4.56,0,4.09,3.31,7.4,7.4,7.4,1.72,0,3.3-.59,4.56-1.58l-1.89-1.89c-.76.52-1.68.82-2.67.82"/>
    </g>
  </g>
</svg>