<?xml version="1.0" encoding="utf-8"?>
<!-- Generator: Adobe Illustrator 28.0.0, SVG Export Plug-In . SVG Version: 6.00 Build 0)  -->
<svg version="1.1" id="Livello_1" xmlns="http://www.w3.org/2000/svg" xmlns:xlink="http://www.w3.org/1999/xlink" x="0px" y="0px"
	 viewBox="0 0 238 384.6" style="enable-background:new 0 0 238 384.6;" xml:space="preserve">
<style type="text/css">
	.st0{fill:#DE2531;}
</style>
<path class="st0" d="M236.5,214.8l-10.4-9.6l-3.5-8.3v-42.5c0-9.5-12.8-46.8-12.8-46.8s0.2-2.5,0.4-3.6c0.4-2.4,0.5-4.8,0.2-7.2
	l-25.6-24.5c0.8-2.3,0.5-4.9-1-6.9c-2.5-3.1-9.4-4.4-9.4-4.4l9.9-7.8l-2-5.5l0.5-5.3c1.2-1.6,2.1-3.5,2.7-5.4
	c1-3.2-2.8-19.4-2.8-19.4c-3.5-3.9-7.5-7.2-12.1-9.7c-6.8-3.6-17.9-7.1-17.9-7.1l-15.9,16.7l-2.4,10l2.4,4.1l-3.1,4.5l1.4,19.4
	c0,0-10.2-4.3-14.8-3.5c-4.7,0.7-21.2,7.2-21.2,7.2s-15,0.1-20.8-3.3c-4-2.4-7.9-5.1-11.5-8l-11-2.9L26.4,25.9
	c-5.6-1.5-12.1-2.6-17.9-2.2c-2.3,0.1-1.5,2.6,0.9,3.4c-1.8,2.5-0.1,3.6,0.6,6c-0.2,2.5,1.2,3.4,3.4,5.4c-0.1,5.1,2.5,4.8,2.5,4.8
	l-1,12.3l-6.7,5.6v6.4c0,0-2.2,0-2.5,7.9L0,76.5l0.1,42.4l24.9,2.5l10.3-5.5l-0.2-41.1l-6-0.2c0,0,0.1-4.4-2.8-6.8l-0.2-5.1
	l-6.8-7.2l0.7-10.5l12.1,2.5c2.7,3.4,3.3,9,5.9,11.5c0,0,27,14.5,29.6,20.7c0,0-13.9,51.3-10.7,54.3c3.9,3.6,19.1,8.5,19.1,8.5
	s3.2,12,6,14.4c4.7,4,14.2-5,17.5-0.3S96,175.6,96,175.6c-5.9,0.9-9.7,5.1-12.7,8c-4,7.4-6.9,15.3-8.5,23.6
	c0.3,6.2,1.8,11.4,4.7,15.7c3.2,2,8.1,2.6,13.5,2.8l9.1,3.8c3.4,3.5,2.3,8.2,3.4,13.2l4,37.4l5.5,33.3l11.7,31.3
	c-2.5,5.5-3.3,11.2-2.3,15.9l-4.9,12.9v7.2l10.4,3.2l14-2.9l2.8-11.5c-2.5-9.7-3.6-19.9-0.6-21.7l23.1-1c2.6-2.6,3.6-5.2-1.3-8
	l-8.9-3.4l-3.8-9.1c-2.8-2.3-1.9-7.4,2.6-16.3c3.4-5.3,12.3-13.2,12.3-13.2c3.7-5.8,6.3-16.5,9.8-21.9l8.4-28.4l1.9-33.2l8.2-12.8
	c2.6-3.6,7.7-5.6,11.1-4.5l4.6,19.9c4.4,5,6,9,5.8,12.5L208,265c0,0-4.9,11.4-6.8,18.5c-0.5,5.5-2,24-2,24l-8.1,21.7
	c0,0-2.3,20.7-1,21.7c0.7,0.5,2.7,1.1,5.5,0c1.2-0.5,1.4-17.1,2.3-20.1c0.9-3,8.1-20.5,8.1-20.5l3.6-21.7l14.6-42.2l3.9-2.9l1.7-9.2
	c4.7-2.9,6.1-4.8,8.1-8.7C238.3,222,237.9,218.3,236.5,214.8z"/>
</svg>
