<?xml version="1.0" encoding="UTF-8"?>
<svg id="Layer_2" data-name="Layer 2" xmlns="http://www.w3.org/2000/svg" viewBox="0 0 440.93 250.3">
  <defs>
    <style>
      .cls-1 {
        fill: #fff;
      }
    </style>
  </defs>
  <g id="Livello_1" data-name="Livello 1">
    <g>
      <g>
        <g>
          <path class="cls-1" d="M205.75,90.38c0-.34.08-.79.28-1.34l8.89-24.1c.59-1.62,1.58-2.37,3.18-2.37s2.55.73,3.16,2.35l8.91,24.12c.2.57.28.95.28,1.34,0,1.2-.95,2.07-2.27,2.07-1.22,0-1.88-.57-2.29-1.86l-2.23-6.3h-11.18l-2.21,6.28c-.43,1.32-1.09,1.88-2.27,1.88-1.36,0-2.27-.83-2.27-2.07ZM222.52,80.58l-4.4-12.82h-.12l-4.35,12.82h8.87Z"/>
          <path class="cls-1" d="M233.29,88.2c-.14-.32-.18-.63-.18-.91,0-1.09.79-1.74,1.88-1.74.73,0,1.36.34,1.9,1.15,1.09,1.72,2.37,2.49,4.9,2.49s4.17-1.07,4.17-2.84c0-1.4-.83-2.15-3.12-2.69l-3.36-.79c-4.13-.97-6.16-3-6.16-6.04,0-3.85,3.34-6.4,8.41-6.4,3.85,0,7.01,1.96,7.62,4.48.04.24.08.45.08.65,0,.97-.61,1.62-1.7,1.62-.71,0-1.34-.24-1.76-.93-.95-1.62-2.25-2.47-4.4-2.47-2.35,0-3.97,1.15-3.97,2.82,0,1.34,1.03,2.27,3.28,2.8l3.3.77c4.48,1.03,6.2,2.63,6.2,5.79,0,3.95-3.54,6.58-8.81,6.58-4.19,0-7.27-1.72-8.28-4.33Z"/>
          <path class="cls-1" d="M253.34,88.2c-.14-.32-.18-.63-.18-.91,0-1.09.79-1.74,1.88-1.74.73,0,1.36.34,1.9,1.15,1.09,1.72,2.37,2.49,4.9,2.49s4.17-1.07,4.17-2.84c0-1.4-.83-2.15-3.12-2.69l-3.36-.79c-4.13-.97-6.16-3-6.16-6.04,0-3.85,3.34-6.4,8.41-6.4,3.85,0,7.01,1.96,7.62,4.48.04.24.08.45.08.65,0,.97-.61,1.62-1.7,1.62-.71,0-1.34-.24-1.76-.93-.95-1.62-2.25-2.47-4.4-2.47-2.35,0-3.97,1.15-3.97,2.82,0,1.34,1.03,2.27,3.28,2.8l3.3.77c4.48,1.03,6.2,2.63,6.2,5.79,0,3.95-3.54,6.58-8.81,6.58-4.19,0-7.27-1.72-8.28-4.33Z"/>
          <path class="cls-1" d="M272.87,81.47c0-6.85,4.03-11.04,10.11-11.04s10.11,4.19,10.11,11.04-4.01,11.06-10.11,11.06-10.11-4.19-10.11-11.06ZM288.63,81.47c0-4.72-2.23-7.43-5.65-7.43s-5.65,2.71-5.65,7.43,2.23,7.45,5.65,7.45,5.65-2.71,5.65-7.45Z"/>
          <path class="cls-1" d="M295.52,81.51c0-6.74,3.95-11.08,10.03-11.08,4.11,0,7.64,2.19,8.57,5.17.12.34.2.71.2,1.01,0,1.11-.79,1.8-1.86,1.8-.93,0-1.46-.36-1.98-1.34-1.09-2.03-2.59-3-4.84-3-3.42,0-5.65,2.86-5.65,7.39s2.27,7.39,5.65,7.39c2.37,0,3.81-1.05,4.84-2.9.61-1.05,1.07-1.42,2.03-1.42,1.07,0,1.86.73,1.86,1.82,0,.34-.08.71-.24,1.13-1.11,2.94-4.58,5.02-8.53,5.02-6.1,0-10.07-4.23-10.07-11.02Z"/>
          <path class="cls-1" d="M317.7,65.09c0-1.4,1.13-2.49,2.53-2.49s2.55,1.09,2.55,2.49-1.13,2.51-2.55,2.51-2.53-1.13-2.53-2.51ZM318.04,90.2v-17.44c0-1.42.87-2.33,2.19-2.33s2.19.91,2.19,2.33v17.44c0,1.4-.87,2.31-2.19,2.31s-2.19-.91-2.19-2.31Z"/>
          <path class="cls-1" d="M326.02,86.07c0-3.73,2.88-6.02,7.92-6.3l5.85-.34v-1.64c0-2.37-1.6-3.79-4.27-3.79-2.11,0-3.5.75-4.72,2.69-.45.65-1.01.93-1.78.93-1.09,0-1.88-.73-1.88-1.82,0-.45.12-.93.38-1.42,1.11-2.41,4.33-3.95,8.16-3.95,5.17,0,8.47,2.73,8.47,7.01v12.86c0,1.38-.87,2.21-2.11,2.21s-2.05-.79-2.09-2.09v-1.8h-.1c-1.24,2.37-3.95,3.87-6.72,3.87-4.17,0-7.11-2.59-7.11-6.42ZM339.79,84.15v-1.68l-5.27.32c-2.61.18-4.09,1.34-4.09,3.16s1.56,3.08,3.89,3.08c3.06,0,5.47-2.11,5.47-4.88Z"/>
          <path class="cls-1" d="M347.75,90.16c0-.67.18-1.09.69-1.72l10.69-14.06v-.08h-9.66c-1.17,0-1.86-.63-1.86-1.74s.67-1.74,1.86-1.74h12.36c1.48,0,2.37.79,2.37,2.11,0,.69-.24,1.22-.87,2.07l-10.25,13.57v.08h9.6c1.2,0,1.86.63,1.86,1.74s-.69,1.74-1.86,1.74h-12.8c-1.28,0-2.13-.77-2.13-1.96Z"/>
          <path class="cls-1" d="M367.99,65.09c0-1.4,1.13-2.49,2.53-2.49s2.55,1.09,2.55,2.49-1.13,2.51-2.55,2.51-2.53-1.13-2.53-2.51ZM368.33,90.2v-17.44c0-1.42.87-2.33,2.19-2.33s2.19.91,2.19,2.33v17.44c0,1.4-.87,2.31-2.19,2.31s-2.19-.91-2.19-2.31Z"/>
          <path class="cls-1" d="M376.23,81.47c0-6.85,4.03-11.04,10.11-11.04s10.11,4.19,10.11,11.04-4.01,11.06-10.11,11.06-10.11-4.19-10.11-11.06ZM391.99,81.47c0-4.72-2.23-7.43-5.65-7.43s-5.65,2.71-5.65,7.43,2.23,7.45,5.65,7.45,5.65-2.71,5.65-7.45Z"/>
          <path class="cls-1" d="M399.83,90.2v-17.56c0-1.34.81-2.21,2.09-2.21s2.13.87,2.13,2.23v1.68h.1c1.15-2.43,3.38-3.89,6.66-3.89,4.7,0,7.39,3,7.39,7.88v11.87c0,1.44-.91,2.31-2.21,2.31s-2.19-.87-2.19-2.31v-11.02c0-3.2-1.5-4.96-4.54-4.96s-5.06,2.19-5.06,5.49v10.49c0,1.44-.91,2.31-2.19,2.31s-2.19-.87-2.19-2.31Z"/>
          <path class="cls-1" d="M421.46,81.57c0-6.77,3.85-11.14,9.88-11.14,5.67,0,9.58,4.09,9.58,9.9,0,1.42-.81,2.23-2.17,2.23h-12.88v.1c0,3.89,2.19,6.32,5.67,6.32,2.39,0,3.89-.83,5.51-3.04.47-.55.91-.77,1.54-.77,1.05,0,1.82.69,1.82,1.78,0,.34-.12.75-.3,1.17-1.4,2.8-4.5,4.4-8.47,4.4-6.42,0-10.19-4.07-10.19-10.96ZM436.55,79.51c-.1-3.34-2.19-5.55-5.23-5.55s-5.21,2.23-5.43,5.55h10.65Z"/>
        </g>
        <g>
          <path class="cls-1" d="M205.66,132.26v-24.85c0-1.46.85-2.35,2.27-2.35h8.69c5.67,0,9.62,3.91,9.62,9.6s-4.03,9.64-9.76,9.64h-6.28v7.96c0,1.46-.87,2.35-2.27,2.35s-2.27-.89-2.27-2.35ZM215.41,120.49c3.95,0,6.2-2.13,6.2-5.81s-2.25-5.79-6.18-5.79h-5.23v11.61h5.21Z"/>
          <path class="cls-1" d="M229.69,132.36v-17.56c0-1.34.85-2.21,2.09-2.21s2.07.87,2.07,2.21v1.82h.1c.59-2.39,2.55-3.99,4.68-3.99.77,0,1.36.18,1.72.53.41.32.59.85.59,1.54s-.22,1.2-.65,1.54c-.45.38-1.09.57-2.01.57-3,.02-4.21,2.03-4.21,4.68v10.88c0,1.42-.89,2.31-2.19,2.31s-2.19-.89-2.19-2.31Z"/>
          <path class="cls-1" d="M241.43,123.73c0-6.77,3.85-11.14,9.88-11.14,5.67,0,9.58,4.09,9.58,9.9,0,1.42-.81,2.23-2.17,2.23h-12.88v.1c0,3.89,2.19,6.32,5.67,6.32,2.39,0,3.89-.83,5.51-3.04.47-.55.91-.77,1.54-.77,1.05,0,1.82.69,1.82,1.78,0,.34-.12.75-.3,1.17-1.4,2.8-4.5,4.4-8.47,4.4-6.42,0-10.19-4.07-10.19-10.96ZM256.52,121.67c-.1-3.34-2.19-5.55-5.23-5.55s-5.21,2.23-5.43,5.55h10.65Z"/>
          <path class="cls-1" d="M263.86,130.35c-.14-.32-.18-.63-.18-.91,0-1.09.79-1.74,1.88-1.74.73,0,1.36.34,1.9,1.15,1.09,1.72,2.37,2.49,4.9,2.49s4.17-1.07,4.17-2.84c0-1.4-.83-2.15-3.12-2.69l-3.36-.79c-4.13-.97-6.16-3-6.16-6.04,0-3.85,3.34-6.4,8.41-6.4,3.85,0,7.01,1.96,7.62,4.48.04.24.08.45.08.65,0,.97-.61,1.62-1.7,1.62-.71,0-1.34-.24-1.76-.93-.95-1.62-2.25-2.47-4.4-2.47-2.35,0-3.97,1.15-3.97,2.82,0,1.34,1.03,2.27,3.28,2.8l3.3.77c4.48,1.03,6.2,2.63,6.2,5.79,0,3.95-3.54,6.58-8.81,6.58-4.19,0-7.27-1.72-8.28-4.33Z"/>
          <path class="cls-1" d="M283.38,123.73c0-6.77,3.85-11.14,9.88-11.14,5.67,0,9.58,4.09,9.58,9.9,0,1.42-.81,2.23-2.17,2.23h-12.88v.1c0,3.89,2.19,6.32,5.67,6.32,2.39,0,3.89-.83,5.51-3.04.47-.55.91-.77,1.54-.77,1.05,0,1.82.69,1.82,1.78,0,.34-.12.75-.3,1.17-1.4,2.8-4.5,4.4-8.47,4.4-6.42,0-10.19-4.07-10.19-10.96ZM298.47,121.67c-.1-3.34-2.19-5.55-5.23-5.55s-5.21,2.23-5.43,5.55h10.65Z"/>
          <path class="cls-1" d="M306.23,139.51v-24.67c0-1.4.87-2.25,2.11-2.25s2.13.85,2.13,2.25v1.8h.08c1.26-2.45,3.71-4.01,6.79-4.01,5.41,0,8.97,4.25,8.97,11s-3.54,11.02-8.89,11.02c-3.06,0-5.49-1.5-6.7-3.87h-.1v8.73c0,1.44-.91,2.33-2.19,2.33s-2.19-.89-2.19-2.33ZM321.81,123.63c0-4.46-2.17-7.31-5.63-7.31s-5.59,2.92-5.59,7.31,2.23,7.31,5.59,7.31,5.63-2.84,5.63-7.31Z"/>
          <path class="cls-1" d="M329.46,107.24c0-1.4,1.13-2.49,2.53-2.49s2.55,1.09,2.55,2.49-1.13,2.51-2.55,2.51-2.53-1.13-2.53-2.51ZM329.81,132.36v-17.44c0-1.42.87-2.33,2.19-2.33s2.19.91,2.19,2.33v17.44c0,1.4-.87,2.31-2.19,2.31s-2.19-.91-2.19-2.31Z"/>
        </g>
        <g>
          <path class="cls-1" d="M215.12,174.65l-9.22-24.2c-.16-.47-.24-.87-.24-1.28,0-1.22.93-2.05,2.31-2.05,1.15,0,1.86.53,2.25,1.7l8,22.75h.12l8-22.77c.41-1.2,1.03-1.68,2.19-1.68,1.36,0,2.31.85,2.31,2.03,0,.38-.08.79-.24,1.24l-9.24,24.29c-.63,1.66-1.52,2.33-3.12,2.33s-2.51-.69-3.12-2.35Z"/>
          <path class="cls-1" d="M233.15,149.63c0-1.4,1.13-2.49,2.53-2.49s2.55,1.09,2.55,2.49-1.13,2.51-2.55,2.51-2.53-1.13-2.53-2.51ZM233.49,174.75v-17.44c0-1.42.87-2.33,2.19-2.33s2.19.91,2.19,2.33v17.44c0,1.4-.87,2.31-2.19,2.31s-2.19-.91-2.19-2.31Z"/>
          <path class="cls-1" d="M242.89,180.85c-.28-.49-.41-.93-.41-1.44,0-1.01.75-1.74,1.86-1.74.67,0,1.09.22,1.68.81,1.74,1.82,3.24,2.61,5.33,2.65,3.56.04,5.73-1.98,5.73-4.96v-3.38h-.1c-1.2,2.31-3.71,3.83-6.74,3.83-5.37,0-8.85-4.19-8.85-10.78s3.44-10.82,8.95-10.82c3.02,0,5.37,1.52,6.66,3.93h.08v-1.72c0-1.42.95-2.25,2.21-2.25s2.19.83,2.19,2.25v18.86c0,5.27-3.87,8.67-10.21,8.61-3.87-.04-6.93-1.54-8.39-3.85ZM257.11,165.88c0-4.38-2.27-7.25-5.69-7.25s-5.55,2.8-5.55,7.23,2.19,7.19,5.55,7.19,5.69-2.8,5.69-7.17Z"/>
          <path class="cls-1" d="M264.83,166.12c0-6.77,3.85-11.14,9.88-11.14,5.67,0,9.58,4.09,9.58,9.9,0,1.42-.81,2.23-2.17,2.23h-12.88v.1c0,3.89,2.19,6.32,5.67,6.32,2.39,0,3.89-.83,5.51-3.04.47-.55.91-.77,1.54-.77,1.05,0,1.82.69,1.82,1.78,0,.34-.12.75-.3,1.17-1.4,2.8-4.5,4.4-8.47,4.4-6.42,0-10.19-4.07-10.19-10.96ZM279.92,164.06c-.1-3.34-2.19-5.55-5.23-5.55s-5.21,2.23-5.43,5.55h10.65Z"/>
          <path class="cls-1" d="M292.76,174.83l-6.32-16.63c-.14-.38-.24-.81-.24-1.22,0-1.22.93-2.01,2.21-2.01,1.01,0,1.7.55,2.07,1.72l5.29,15.7h.08l5.29-15.74c.36-1.13,1.05-1.68,2.05-1.68,1.26,0,2.15.83,2.15,1.98,0,.38-.08.81-.22,1.17l-6.32,16.69c-.57,1.54-1.5,2.23-3,2.23s-2.41-.65-3.02-2.23Z"/>
          <path class="cls-1" d="M306.96,170.62c0-3.73,2.88-6.02,7.92-6.3l5.85-.34v-1.64c0-2.37-1.6-3.79-4.27-3.79-2.11,0-3.5.75-4.72,2.69-.45.65-1.01.93-1.78.93-1.09,0-1.88-.73-1.88-1.82,0-.45.12-.93.38-1.42,1.11-2.41,4.33-3.95,8.16-3.95,5.17,0,8.47,2.73,8.47,7.01v12.86c0,1.38-.87,2.21-2.11,2.21s-2.05-.79-2.09-2.09v-1.8h-.1c-1.24,2.37-3.95,3.87-6.72,3.87-4.17,0-7.11-2.59-7.11-6.42ZM320.73,168.69v-1.68l-5.27.32c-2.61.18-4.09,1.34-4.09,3.16s1.56,3.08,3.89,3.08c3.06,0,5.47-2.11,5.47-4.88Z"/>
          <path class="cls-1" d="M329.32,174.75v-17.56c0-1.34.81-2.21,2.09-2.21s2.13.87,2.13,2.23v1.68h.1c1.15-2.43,3.38-3.89,6.66-3.89,4.7,0,7.39,3,7.39,7.88v11.87c0,1.44-.91,2.31-2.21,2.31s-2.19-.87-2.19-2.31v-11.02c0-3.2-1.5-4.96-4.54-4.96s-5.06,2.19-5.06,5.49v10.49c0,1.44-.91,2.31-2.19,2.31s-2.19-.87-2.19-2.31Z"/>
          <path class="cls-1" d="M350.95,166.02c0-6.85,4.03-11.04,10.11-11.04s10.11,4.19,10.11,11.04-4.01,11.06-10.11,11.06-10.11-4.19-10.11-11.06ZM366.71,166.02c0-4.72-2.23-7.43-5.65-7.43s-5.65,2.71-5.65,7.43,2.23,7.45,5.65,7.45,5.65-2.71,5.65-7.45Z"/>
        </g>
      </g>
      <path class="cls-1" d="M154.51,139.87l-6.78-6.26-2.29-5.43v-27.76c0-6.2-8.37-30.6-8.37-30.6,0,0,.11-1.62.26-2.37.49-2.44.15-4.73.15-4.73l-16.73-15.97s.96-2.47-.67-4.51-6.13-2.86-6.13-2.86l6.47-5.12-1.32-3.61.31-3.45s1.13-1.45,1.76-3.52c.64-2.06-1.83-12.69-1.83-12.69,0,0-3.42-3.99-7.89-6.35-4.47-2.36-11.73-4.64-11.73-4.64l-10.38,10.89-1.54,6.54,1.54,2.65-2.03,2.94.89,12.65s-6.65-2.8-9.68-2.32c-3.03.49-13.82,4.67-13.82,4.67,0,0-9.81.04-13.6-2.18-3.79-2.22-7.54-5.23-7.54-5.23l-7.14-1.86-19.2-12.32c-3.69-.97-7.89-1.71-11.73-1.42-1.51.07-.99,1.73.58,2.2-1.2,1.61-.07,2.35.38,3.94-.14,1.6.81,2.22,2.25,3.53-.07,3.35,1.63,3.11,1.63,3.11l-.64,8.04-4.37,3.68v4.16s-1.43-.01-1.63,5.14l-3.72.72.08,27.67,16.25,1.65,6.75-3.6-.16-26.86-3.92-.15s.04-2.87-1.84-4.44l-.12-3.33-4.42-4.71.5-6.88,7.9,1.64c1.76,2.2,2.18,5.83,3.83,7.53,0,0,17.65,9.49,19.34,13.51,0,0-9.06,33.52-6.98,35.44,2.52,2.33,12.5,5.57,12.5,5.57,0,0,2.1,7.8,3.95,9.38,3.09,2.65,9.29-3.24,11.41-.22,2.11,3.02-2.33,12.49-2.33,12.49-3.83.58-6.35,3.34-8.29,5.19-2.38,4.53-4.45,9.42-5.57,15.43.2,4.08,1.17,7.44,3.07,10.24,2.1,1.31,5.3,1.7,8.82,1.82l5.92,2.46c2.2,2.26,1.49,5.33,2.2,8.64l2.6,24.43,3.6,21.72,7.62,20.46c-1.63,3.62-2.17,7.29-1.47,10.44l-3.18,8.42v4.73l6.78,2.09,9.17-1.89,1.83-7.5c-1.6-6.31-2.35-13.03-.38-14.17l15.11-.62c1.69-1.67,2.38-3.37-.85-5.22l-5.78-2.23-2.5-5.94c-1.81-1.53-1.25-4.81,1.71-10.65,2.22-3.46,8.02-8.64,8.02-8.64,2.44-3.81,4.12-10.79,6.37-14.3l5.56-18.6,1.2-21.69,5.33-8.35c1.66-2.37,5-3.69,7.25-2.95l2.98,12.98c2.84,3.25,3.93,5.9,3.82,8.14l-7.84,24.01s-3.17,7.45-4.45,12.11c-.36,3.62-1.27,15.66-1.27,15.66l-5.3,14.2s-1.5,13.54-.64,14.2c.47.35,1.77.74,3.57,0,.8-.33.94-11.19,1.51-13.16.57-1.96,5.3-13.36,5.3-13.36l2.33-14.2,9.54-27.56,2.54-1.88,1.09-6.03c3.08-1.91,3.97-3.14,5.27-5.67.28-2.54.05-4.92-.85-7.1Z"/>
    </g>
  </g>
</svg>